<?xml version="1.0" encoding="UTF-8"?>
<svg version="1.1" xmlns="http://www.w3.org/2000/svg" width="389" height="129">
<path d="M0 0 C128.37 0 256.74 0 389 0 C389 42.57 389 85.14 389 129 C260.63 129 132.26 129 0 129 C0 86.43 0 43.86 0 0 Z " fill="#FCFCFC" transform="translate(0,0)"/>
<path d="M0 0 C3.80634156 1.83520039 5.4868474 2.97369479 7.375 6.75 C7.58125 7.4925 7.7875 8.235 8 9 C8.66 9 9.32 9 10 9 C10.226875 8.4225 10.45375 7.845 10.6875 7.25 C12.66629537 3.85777937 15.50986942 1.74506529 19 0 C24.50371617 -0.61375994 29.75731224 -0.70701785 34.41436768 2.58972168 C37.94392837 5.72895065 39.72209687 9.93296653 40.34533691 14.56860352 C40.46071402 17.48138992 40.4502778 20.36681793 40.390625 23.28125 C40.38496521 24.33534058 40.37930542 25.38943115 40.37347412 26.47546387 C40.35121734 29.81745254 40.30103977 33.15833947 40.25 36.5 C40.22992123 38.7760261 40.21167288 41.05206913 40.1953125 43.328125 C40.1513878 48.88578782 40.08458337 54.44281517 40 60 C37.25494537 61.37252731 34.99672588 61.13229255 31.9375 61.125 C30.31134766 61.12886719 30.31134766 61.12886719 28.65234375 61.1328125 C26 61 26 61 25 60 C24.87669476 56.93416592 24.81383092 53.8873949 24.7890625 50.8203125 C24.76099451 48.92316845 24.73233004 47.02603314 24.703125 45.12890625 C24.66182751 42.12451412 24.62495869 39.12028541 24.59863281 36.11572266 C24.57108177 33.22523858 24.52520883 30.33550806 24.4765625 27.4453125 C24.47330963 26.54523468 24.47005676 25.64515686 24.46670532 24.71780396 C24.45013885 23.88038666 24.43357239 23.04296936 24.41650391 22.18017578 C24.40437363 21.07550461 24.40437363 21.07550461 24.39199829 19.94851685 C23.88612668 17.43396673 23.02442771 16.53790764 21 15 C17.81350376 14.60168797 15.8779472 14.39451917 13.1875 16.25 C10.29259798 20.5161714 10.7861261 25.73029036 10.68359375 30.703125 C10.66281265 31.54091492 10.64203156 32.37870483 10.62062073 33.24188232 C10.5553745 35.91117356 10.49635642 38.58056098 10.4375 41.25 C10.39429106 43.06250984 10.35067601 44.87501005 10.30664062 46.6875 C10.19971871 51.12490209 10.09838134 55.56240068 10 60 C5.05 60 0.1 60 -5 60 C-5.01981934 58.74340576 -5.03963867 57.48681152 -5.06005859 56.19213867 C-5.13606997 51.53470653 -5.22479423 46.87758865 -5.31738281 42.22045898 C-5.35569104 40.20392048 -5.39054065 38.18731322 -5.421875 36.1706543 C-5.46748549 33.27367558 -5.52548639 30.37717104 -5.5859375 27.48046875 C-5.59748871 26.57725388 -5.60903992 25.674039 -5.62094116 24.74345398 C-5.64081085 23.90280899 -5.66068054 23.062164 -5.68115234 22.19604492 C-5.69447601 21.45658127 -5.70779968 20.71711761 -5.7215271 19.95524597 C-5.90214412 17.67895835 -5.90214412 17.67895835 -8 15 C-11.45749949 14.33323122 -11.45749949 14.33323122 -15 15 C-18.72218537 19.30161004 -18.4710922 23.83949662 -18.51171875 29.23828125 C-18.52966995 30.11904831 -18.54762115 30.99981537 -18.56611633 31.90727234 C-18.6201191 34.7089668 -18.65408266 37.51049187 -18.6875 40.3125 C-18.72068195 42.21682039 -18.75517243 44.12111846 -18.79101562 46.02539062 C-18.87583978 50.68347134 -18.94269874 55.3415027 -19 60 C-23.95 60 -28.9 60 -34 60 C-34.02255549 52.45501411 -34.04091769 44.91004069 -34.05181217 37.36502934 C-34.05703989 33.86191115 -34.0641355 30.35881715 -34.07543945 26.85571289 C-34.08834206 22.83219159 -34.09322912 18.80869586 -34.09765625 14.78515625 C-34.10539818 12.88987938 -34.10539818 12.88987938 -34.11329651 10.95631409 C-34.11337204 9.795186 -34.11344757 8.63405792 -34.11352539 7.43774414 C-34.11685631 5.8955294 -34.11685631 5.8955294 -34.12025452 4.32215881 C-34 2 -34 2 -33 1 C-30.81360547 0.92741054 -28.62499611 0.91626217 -26.4375 0.9375 C-24.64119141 0.95103516 -24.64119141 0.95103516 -22.80859375 0.96484375 C-21.88175781 0.97644531 -20.95492187 0.98804688 -20 1 C-19.67 3.31 -19.34 5.62 -19 8 C-18.2575 7.05125 -17.515 6.1025 -16.75 5.125 C-12.30079737 -0.56009225 -6.83728149 -0.87353281 0 0 Z " fill="#040404" transform="translate(112,12)"/>
<path d="M0 0 C6.67125949 4.04886375 10.40441256 9.78170703 12.80859375 17.09765625 C15.40001956 27.70362415 14.39761047 38.80771403 9.12109375 48.34765625 C5.45229327 54.08238322 1.68317119 57.00009032 -4.62890625 59.41015625 C-12.27678134 60.88606197 -17.01951385 60.44741615 -23.859375 56.70703125 C-30.43387675 52.16985417 -33.33060783 45.66475387 -35.19140625 38.09765625 C-35.60304364 34.7719456 -35.6697527 31.5086005 -35.62890625 28.16015625 C-35.62060791 27.28206299 -35.61230957 26.40396973 -35.60375977 25.49926758 C-35.37833732 16.86342184 -33.78757365 10.59471801 -27.81640625 4.16015625 C-19.98125846 -2.83374409 -9.78133256 -4.37211331 0 0 Z " fill="#060606" transform="translate(304.19140625,13.90234375)"/>
<path d="M0 0 C4.12785296 3.33741303 5.62670744 5.93271236 7 11 C7.18819178 13.39194966 7.28465629 15.79218422 7.30859375 18.19140625 C7.33373796 19.5618535 7.3591362 20.93229611 7.38476562 22.30273438 C7.41353389 24.43773342 7.43758897 26.57265246 7.45629883 28.70776367 C7.47801466 30.78604035 7.51743201 32.86343681 7.55859375 34.94140625 C7.57204834 36.17576416 7.58550293 37.41012207 7.59936523 38.68188477 C8.0283845 42.23508454 9.03168723 44.06683444 11 47 C10.91789956 49.91182894 10.17522463 50.81773675 8.15234375 52.921875 C7.42144531 53.52515625 6.69054687 54.1284375 5.9375 54.75 C4.83728516 55.67039062 4.83728516 55.67039062 3.71484375 56.609375 C3.14894531 57.06828125 2.58304688 57.5271875 2 58 C-1.91402949 56.73058503 -3.79072873 55.48832306 -6 52 C-7.96093574 52.95466609 -9.8663967 53.91680158 -11.71875 55.0703125 C-17.63761679 58.57490468 -23.24787199 58.7703132 -30 58 C-35.25134695 56.31206705 -37.3991596 53.81637111 -40 49 C-41.61420405 43.75383683 -41.50053644 38.67826924 -39.9375 33.4375 C-36.37041701 27.10880437 -31.56896892 23.57047178 -24.62109375 21.5234375 C-19.46695362 20.49414573 -14.24182572 20.23495046 -9 20 C-9.08708669 18.54054712 -9.19526907 17.08234132 -9.3125 15.625 C-9.37050781 14.81289063 -9.42851562 14.00078125 -9.48828125 13.1640625 C-9.82990528 10.62078662 -9.82990528 10.62078662 -13 9 C-18.03981173 8.43273736 -18.03981173 8.43273736 -22.3125 10.8125 C-23.60833476 12.4922858 -24.8231897 14.23478455 -26 16 C-30.54854894 16.2982655 -34.56151204 16.10962199 -39 15 C-38.64199655 9.15261031 -37.22909348 5.17726636 -33 1 C-23.01540242 -5.55734484 -10.25545485 -6.45168983 0 0 Z " fill="#080808" transform="translate(202,15)"/>
<path d="M0 0 C2.6035131 2.25999401 3.38374815 3.69117796 4 7.0625 C4.1029087 9.44250733 4.15486021 11.824892 4.17578125 14.20703125 C4.19898405 15.62045753 4.22310158 17.03386903 4.24804688 18.44726562 C4.28307657 20.65903577 4.31247118 22.87026219 4.32592773 25.08227539 C4.34151445 27.22868544 4.38178376 29.37353896 4.42578125 31.51953125 C4.44036377 32.79803955 4.45494629 34.07654785 4.4699707 35.39379883 C5.11417562 39.85278883 6.67411343 42.24553982 9 46.0625 C8.20977334 49.33220597 6.11191949 51.18672805 3.625 53.375 C3.03976563 53.90738281 2.45453125 54.43976563 1.8515625 54.98828125 C0 56.0625 0 56.0625 -2.0859375 55.890625 C-4.92782648 54.66107303 -6.22700464 52.53202925 -8 50.0625 C-10.529624 51.27671952 -12.59746859 52.50410722 -14.875 54.1875 C-20.37381248 57.36035059 -26.88916181 56.79521441 -33 56.0625 C-37.07439312 54.59989734 -39.75586455 51.72398415 -42 48.0625 C-43.99374888 42.08125337 -43.99908576 35.38815978 -41.3125 29.625 C-38.04897211 24.07246991 -33.78565917 21.53612083 -27.7578125 19.65625 C-22.2477958 18.46995745 -16.61859397 18.29427699 -11 18.0625 C-11.28109113 16.41482753 -11.57518526 14.76936855 -11.875 13.125 C-12.03742187 12.20847656 -12.19984375 11.29195312 -12.3671875 10.34765625 C-12.57601562 9.59355469 -12.78484375 8.83945312 -13 8.0625 C-16.18062596 6.47218702 -19.53718575 6.66431191 -23 7.0625 C-25.88073271 8.98298847 -26.37865883 10.81981767 -28 14.0625 C-32.29 13.7325 -36.58 13.4025 -41 13.0625 C-41 6.65408945 -40.57046719 5.49140175 -36.84375 0.89453125 C-27.14494423 -8.74262957 -10.30314443 -8.32258088 0 0 Z " fill="#060606" transform="translate(61,16.9375)"/>
<path d="M0 0 C4.22962874 2.05100532 6.15738322 4.82171031 8.13024902 8.98803711 C9.64531477 13.47527098 9.42409864 17.97121214 9.328125 22.66015625 C9.32246521 23.71424683 9.31680542 24.7683374 9.31097412 25.85437012 C9.28871734 29.19635879 9.23853977 32.53724572 9.1875 35.87890625 C9.16742123 38.15493235 9.14917288 40.43097538 9.1328125 42.70703125 C9.08888742 48.26474258 9.01993323 53.8216381 8.9375 59.37890625 C3.9875 59.37890625 -0.9625 59.37890625 -6.0625 59.37890625 C-6.08231934 58.12231201 -6.10213867 56.86571777 -6.12255859 55.57104492 C-6.19856997 50.91361278 -6.28729423 46.2564949 -6.37988281 41.59936523 C-6.41819104 39.58282673 -6.45304065 37.56621947 -6.484375 35.54956055 C-6.52998549 32.65258183 -6.58798639 29.75607729 -6.6484375 26.859375 C-6.65998871 25.95616013 -6.67153992 25.05294525 -6.68344116 24.12236023 C-6.70331085 23.28171524 -6.72318054 22.44107025 -6.74365234 21.57495117 C-6.75697601 20.83548752 -6.77029968 20.09602386 -6.7840271 19.33415222 C-6.96464412 17.0578646 -6.96464412 17.0578646 -9.0625 14.37890625 C-11.26975073 14.01527807 -11.26975073 14.01527807 -13.6875 14.19140625 C-14.91339844 14.23201172 -14.91339844 14.23201172 -16.1640625 14.2734375 C-16.79054688 14.30824219 -17.41703125 14.34304687 -18.0625 14.37890625 C-19.86603559 19.81798989 -20.39359144 24.6640667 -20.4765625 30.375 C-20.49592865 31.20854507 -20.5152948 32.04209015 -20.5352478 32.90089417 C-20.59458993 35.53929709 -20.64124573 38.17774473 -20.6875 40.81640625 C-20.72572164 42.61525244 -20.76477575 44.41408114 -20.8046875 46.21289062 C-20.9002536 50.60141896 -20.9844502 54.99003286 -21.0625 59.37890625 C-26.0125 59.37890625 -30.9625 59.37890625 -36.0625 59.37890625 C-36.0625 39.90890625 -36.0625 20.43890625 -36.0625 0.37890625 C-31.4425 0.37890625 -26.8225 0.37890625 -22.0625 0.37890625 C-21.7325 3.01890625 -21.4025 5.65890625 -21.0625 8.37890625 C-20.505625 7.45078125 -19.94875 6.52265625 -19.375 5.56640625 C-14.46256326 -1.20479033 -7.90795743 -2.38137355 0 0 Z " fill="#040404" transform="translate(362.0625,12.62109375)"/>
<path d="M0 0 C4.20674546 0.59217441 7.15564107 2.06098255 10.8125 4.1875 C18.27447536 8.30212596 25.9529284 11.23928024 34 14 C35.05703125 14.36996094 36.1140625 14.73992187 37.203125 15.12109375 C54.86795934 20.94143019 72.79258697 23.21656477 91.3125 23.1875 C92.37538742 23.18659363 92.37538742 23.18659363 93.45974731 23.18566895 C111.21611812 23.14463053 127.82778377 21.56859169 145 17 C146.03898438 16.74089844 147.07796875 16.48179688 148.1484375 16.21484375 C153.61008539 14.81500963 158.67336853 13.00683737 163.80859375 10.671875 C166.3074859 9.90572625 167.56945095 10.13629692 170 11 C169.64416666 13.78032492 169.22884474 14.80179168 167.07421875 16.66796875 C166.28660156 17.16941406 165.49898437 17.67085937 164.6875 18.1875 C163.51767578 18.95126953 163.51767578 18.95126953 162.32421875 19.73046875 C160.17568729 20.90403635 158.39105658 21.5458634 156 22 C156 22.66 156 23.32 156 24 C117.74660816 39.47172399 77.78292431 43.8128279 38.62109375 28.04199219 C34.3328888 26.18291191 30.14742578 24.15334856 26 22 C26 21.34 26 20.68 26 20 C24.63875 19.566875 24.63875 19.566875 23.25 19.125 C20.67797092 18.23468224 18.38653234 17.28505587 16 16 C16 15.34 16 14.68 16 14 C15.29875 13.7525 14.5975 13.505 13.875 13.25 C8.37123173 10.85705727 3.94235041 7.52210782 0 3 C0 2.01 0 1.02 0 0 Z " fill="#F79B0E" transform="translate(68,79)"/>
<path d="M0 0 C13.2 0 26.4 0 40 0 C40 11.47323488 40 11.47323488 35.0625 17.8125 C34.05710096 19.18345392 33.05189581 20.55455004 32.046875 21.92578125 C31.53833984 22.60205566 31.02980469 23.27833008 30.50585938 23.97509766 C28.18856487 27.09112239 26.00440306 30.29520935 23.8125 33.5 C22.54193995 35.33352274 21.27121878 37.16693391 20 39 C20.94101563 39.18175781 21.88203125 39.36351562 22.8515625 39.55078125 C24.09679687 39.80214844 25.34203125 40.05351563 26.625 40.3125 C27.85476562 40.55613281 29.08453125 40.79976562 30.3515625 41.05078125 C34.11633214 42.03026628 38.17106673 43.17106673 41 46 C41.07226502 47.85287502 41.0838122 49.70833878 41.0625 51.5625 C41.05347656 52.57441406 41.04445313 53.58632812 41.03515625 54.62890625 C41.02355469 55.41136719 41.01195312 56.19382813 41 57 C37.63356045 58.12214652 37.17087872 57.9256268 34.0625 56.625 C23.67332406 52.34121647 13.43799513 53.28999436 3 57 C0.78515625 57.66015625 0.78515625 57.66015625 -1 58 C-2.78107921 56.21892079 -2.62315031 54.06364214 -2.875 51.625 C-2.84241678 41.74142227 3.56348521 34.84955719 9.29785156 27.27099609 C11.73567307 24.01846947 14.0236991 20.67060821 16.3125 17.3125 C17.5411062 15.54127777 18.77002599 13.77027267 20 12 C19.14450562 12.00785522 19.14450562 12.00785522 18.27172852 12.01586914 C15.70199677 12.03658221 13.13228253 12.0496419 10.5625 12.0625 C9.21575195 12.07506836 9.21575195 12.07506836 7.84179688 12.08789062 C6.56079102 12.09272461 6.56079102 12.09272461 5.25390625 12.09765625 C4.46314697 12.10289307 3.6723877 12.10812988 2.85766602 12.11352539 C1 12 1 12 0 11 C0 7.37 0 3.74 0 0 Z " fill="#040404" transform="translate(222,13)"/>
<path d="M0 0 C1.79244141 0.01740234 1.79244141 0.01740234 3.62109375 0.03515625 C5.41740234 0.04869141 5.41740234 0.04869141 7.25 0.0625 C8.17683594 0.07410156 9.10367188 0.08570313 10.05859375 0.09765625 C10.09597656 0.71253906 10.13335937 1.32742188 10.171875 1.9609375 C10.27048828 3.17330078 10.27048828 3.17330078 10.37109375 4.41015625 C10.45810547 5.61091797 10.45810547 5.61091797 10.546875 6.8359375 C11.14589008 9.48349268 12.10731494 10.29444196 14.05859375 12.09765625 C13.80859375 14.09765625 13.80859375 14.09765625 13.05859375 16.09765625 C12.17293789 18.75462383 11.91356755 20.37955708 11.85327148 23.11010742 C11.83332626 23.91071091 11.81338104 24.71131439 11.79283142 25.53617859 C11.76776268 26.82537956 11.76776268 26.82537956 11.7421875 28.140625 C11.7214064 29.02422195 11.70062531 29.90781891 11.67921448 30.81819153 C11.61383621 33.6404341 11.55488847 36.4627696 11.49609375 39.28515625 C11.45289738 41.19857731 11.40928273 43.11198898 11.36523438 45.02539062 C11.2581668 49.71605062 11.15686623 54.40680408 11.05859375 59.09765625 C6.10859375 59.09765625 1.15859375 59.09765625 -3.94140625 59.09765625 C-3.96396174 51.55267036 -3.98232394 44.00769694 -3.99321842 36.46268559 C-3.99844614 32.9595674 -4.00554175 29.4564734 -4.0168457 25.95336914 C-4.02974831 21.92984784 -4.03463537 17.90635211 -4.0390625 13.8828125 C-4.04680443 11.98753563 -4.04680443 11.98753563 -4.05470276 10.05397034 C-4.05477829 8.89284225 -4.05485382 7.73171417 -4.05493164 6.53540039 C-4.05826256 4.99318565 -4.05826256 4.99318565 -4.06166077 3.41981506 C-3.88084026 -0.07189528 -3.55382486 0.11798887 0 0 Z " fill="#020202" transform="translate(81.94140625,12.90234375)"/>
<path d="M0 0 C3.1875 0.3125 3.1875 0.3125 5.4375 1.875 C9.41673878 7.41751116 9.52779077 13.66358694 9.5 20.25 C9.51611328 21.00990234 9.53222656 21.76980469 9.54882812 22.55273438 C9.5535698 28.10523911 8.55151786 32.2688928 6.1875 37.3125 C2.69184664 39.64293558 1.3009271 39.90013244 -2.8125 39.3125 C-8.10082433 34.16710336 -7.99169139 29.078567 -8.09570312 22.078125 C-8.10537109 21.04171875 -8.11503906 20.0053125 -8.125 18.9375 C-8.16850586 17.39449219 -8.16850586 17.39449219 -8.21289062 15.8203125 C-8.2646679 9.63890275 -7.93360055 6.02458055 -3.8125 1.3125 C-2.8125 0.3125 -2.8125 0.3125 0 0 Z " fill="#F9F9F9" transform="translate(292.8125,22.6875)"/>
<path d="M0 0 C4.20674546 0.59217441 7.15564107 2.06098255 10.8125 4.1875 C26.03696018 12.58245657 43.08864867 17.34648384 60 21 C60 21.33 60 21.66 60 22 C56.7 22 53.4 22 50 22 C50 21.34 50 20.68 50 20 C47.03 20.495 47.03 20.495 44 21 C44 21.66 44 22.32 44 23 C41.36 22.67 38.72 22.34 36 22 C36 22.99 36 23.98 36 25 C38.64 25.33 41.28 25.66 44 26 C44 26.66 44 27.32 44 28 C44.804375 28.103125 45.60875 28.20625 46.4375 28.3125 C57.43478261 30.43478261 57.43478261 30.43478261 61 34 C48.35318117 32.06018719 37.35175301 27.65997769 26 22 C26 21.34 26 20.68 26 20 C24.63875 19.566875 24.63875 19.566875 23.25 19.125 C20.67797092 18.23468224 18.38653234 17.28505587 16 16 C16 15.34 16 14.68 16 14 C15.29875 13.7525 14.5975 13.505 13.875 13.25 C8.37123173 10.85705727 3.94235041 7.52210782 0 3 C0 2.01 0 1.02 0 0 Z " fill="#F19D17" transform="translate(68,79)"/>
<path d="M0 0 C0.91521064 9.83851437 -2.94402748 20.29239861 -9 28 C-10.46484375 29.7109375 -10.46484375 29.7109375 -12 31 C-12.99 31 -13.98 31 -15 31 C-12.26277372 20.74452555 -12.26277372 20.74452555 -10.875 16.8125 C-9.75333229 13.20713949 -9.38837953 9.75433549 -9 6 C-9.66 6 -10.32 6 -11 6 C-11 5.34 -11 4.68 -11 4 C-12.09054688 4.10828125 -12.09054688 4.10828125 -13.203125 4.21875 C-20.49220248 4.89158792 -27.68214066 5.11677435 -35 5 C-33.97999713 2.02134133 -33.29447474 1.14434163 -30.41796875 -0.265625 C-20.16578868 -3.38962667 -9.76211717 -5.44862354 0 0 Z " fill="#F99804" transform="translate(255,78)"/>
<path d="M0 0 C0 0.66 0 1.32 0 2 C0.66 2 1.32 2 2 2 C2.34548714 8.33393082 1.29342747 13.10261508 -1 19 C-1.33 19 -1.66 19 -2 19 C-2 16.36 -2 13.72 -2 11 C-3.32 11.33 -4.64 11.66 -6 12 C-5.505 13.98 -5.505 13.98 -5 16 C-6.29096781 16.81360995 -7.58279875 17.62585046 -8.875 18.4375 C-9.59429687 18.88996094 -10.31359375 19.34242187 -11.0546875 19.80859375 C-14.59186236 21.97493578 -15.95637034 21.95770176 -20 21 C-20 20.34 -20 19.68 -20 19 C-19.22914063 18.59007813 -18.45828125 18.18015625 -17.6640625 17.7578125 C-16.66117188 17.21898438 -15.65828125 16.68015625 -14.625 16.125 C-13.12839844 15.32449219 -13.12839844 15.32449219 -11.6015625 14.5078125 C-8.94651605 13.1179862 -8.94651605 13.1179862 -7 11 C-7 10.01 -7 9.02 -7 8 C-12.27862603 9.06071682 -17.33020438 10.38920799 -22.41796875 12.14453125 C-44.72161262 19.53408951 -44.72161262 19.53408951 -53 19 C-53 18.34 -53 17.68 -53 17 C-50.94921875 16.77213542 -48.8984375 16.54427083 -46.84765625 16.31640625 C-44.98859771 16.18113386 -44.98859771 16.18113386 -44 15 C-41.16505808 14.46620556 -38.32007381 14.03490823 -35.46875 13.59765625 C-34.6540625 13.40042969 -33.839375 13.20320313 -33 13 C-32.67 12.34 -32.34 11.68 -32 11 C-29.49609375 10.3671875 -29.49609375 10.3671875 -26.4375 9.875 C-24.91962891 9.62363281 -24.91962891 9.62363281 -23.37109375 9.3671875 C-22.19740234 9.18542969 -22.19740234 9.18542969 -21 9 C-23.475 8.505 -23.475 8.505 -26 8 C-25.67 7.030625 -25.34 6.06125 -25 5.0625 C-23.94826637 2.37850426 -23.94826637 2.37850426 -24 1 C-15.97497656 0.20318916 -8.06350113 -0.12867289 0 0 Z " fill="#FCF3D0" transform="translate(244,82)"/>
<path d="M0 0 C0 0.66 0 1.32 0 2 C-2.5 3.625 -2.5 3.625 -5 5 C-4.34 5.66 -3.68 6.32 -3 7 C-2.37268879 12.21221812 -2.49157103 17.29669569 -5 22 C-5.66 22 -6.32 22 -7 22 C-6.67 17.38 -6.34 12.76 -6 8 C-13.39954073 5.53348642 -21.344807 4.57114761 -28.9375 7.0625 C-32.39060549 8.11957311 -34.52875733 7.84664455 -38 7 C-38 6.01 -38 5.02 -38 4 C-38.928125 4.99 -38.928125 4.99 -39.875 6 C-42 8 -42 8 -44 8 C-43.890625 5.703125 -43.890625 5.703125 -43 3 C-40.234375 1.234375 -40.234375 1.234375 -36.75 -0.25 C-35.61046875 -0.75015625 -34.4709375 -1.2503125 -33.296875 -1.765625 C-22.53099453 -5.79645229 -10.29587543 -5.14793772 0 0 Z " fill="#F8F7F7" transform="translate(260,70)"/>
<path d="M0 0 C-0.35583334 2.78032492 -0.77115526 3.80179168 -2.92578125 5.66796875 C-3.71339844 6.16941406 -4.50101563 6.67085938 -5.3125 7.1875 C-6.09238281 7.69667969 -6.87226563 8.20585938 -7.67578125 8.73046875 C-9.82431271 9.90403635 -11.60894342 10.5458634 -14 11 C-14 11.66 -14 12.32 -14 13 C-45.25419269 25.2836604 -45.25419269 25.2836604 -58 25 C-55.25455524 23.16970349 -54.08321288 22.65760543 -51 22.0625 C-45.59751684 20.94996228 -40.30927789 19.48858259 -35 18 C-35.33 17.01 -35.66 16.02 -36 15 C-35 14 -35 14 -31.75 13.875 C-28.66396211 13.97786793 -25.98575886 14.27617967 -23 15 C-22.87625 14.21625 -22.7525 13.4325 -22.625 12.625 C-22 10 -22 10 -20 8 C-20.83402344 8.2165625 -21.66804688 8.433125 -22.52734375 8.65625 C-29.20956155 10.30958224 -35.12040768 11.34980978 -42 11 C-38.32533005 8.87454823 -34.40466868 8.01941307 -30.3125 7.0625 C-23.58810472 5.43676388 -17.09304134 3.51322538 -10.6015625 1.11328125 C-9.80492187 0.82839844 -9.00828125 0.54351562 -8.1875 0.25 C-7.47980469 -0.01296875 -6.77210938 -0.2759375 -6.04296875 -0.546875 C-3.68857887 -1.06907237 -2.26537357 -0.75342762 0 0 Z " fill="#F29D1C" transform="translate(238,90)"/>
<path d="M0 0 C1.8871875 0.0309375 1.8871875 0.0309375 3.8125 0.0625 C4.35805287 6.60913442 3.6402608 11.58628747 -0.1875 17.0625 C-3.23733996 18.58741998 -5.8298369 18.29812548 -9.1875 18.0625 C-11.31490425 16.50011073 -12.07450913 15.56530938 -12.65625 12.9765625 C-12.71637991 8.5720464 -12.65398317 6.66766736 -9.875 3.0625 C-6.482662 0.5379694 -4.1194665 -0.06753224 0 0 Z " fill="#F7F7F7" transform="translate(46.1875,43.9375)"/>
<path d="M0 0 C1.22589844 0.01353516 1.22589844 0.01353516 2.4765625 0.02734375 C3.41628906 0.04474609 3.41628906 0.04474609 4.375 0.0625 C4.69797455 6.11528224 4.89833984 10.84273727 1.375 16.0625 C-2.32915293 18.53193529 -4.24644505 18.53163089 -8.625 18.0625 C-11.42030069 15.80822525 -11.59906712 14.23754692 -12.125 10.6875 C-11.46553371 5.90636936 -10.00065893 4.43815893 -6.625 1.0625 C-4.21954362 -0.14022819 -2.67503047 -0.03821472 0 0 Z " fill="#F6F6F6" transform="translate(188.625,43.9375)"/>
<path d="M0 0 C4.95 0 9.9 0 15 0 C15 0.99 15 1.98 15 3 C13.865625 3.268125 12.73125 3.53625 11.5625 3.8125 C10.386875 4.204375 9.21125 4.59625 8 5 C7.67 5.99 7.34 6.98 7 8 C3.99512649 9.17139137 1.0929272 10.11389535 -2 11 C-3.12019531 11.33257812 -4.24039063 11.66515625 -5.39453125 12.0078125 C-23.82279635 17.39852927 -23.82279635 17.39852927 -30 17 C-30 16.34 -30 15.68 -30 15 C-27.94921875 14.77213542 -25.8984375 14.54427083 -23.84765625 14.31640625 C-21.98859771 14.18113386 -21.98859771 14.18113386 -21 13 C-18.16505808 12.46620556 -15.32007381 12.03490823 -12.46875 11.59765625 C-11.6540625 11.40042969 -10.839375 11.20320313 -10 11 C-9.67 10.34 -9.34 9.68 -9 9 C-6.49609375 8.3671875 -6.49609375 8.3671875 -3.4375 7.875 C-1.91962891 7.62363281 -1.91962891 7.62363281 -0.37109375 7.3671875 C0.80259766 7.18542969 0.80259766 7.18542969 2 7 C-0.475 6.505 -0.475 6.505 -3 6 C-2.01 4.02 -1.02 2.04 0 0 Z " fill="#F9FBFC" transform="translate(221,84)"/>
<path d="M0 0 C0.33 0 0.66 0 1 0 C1 15.84 1 31.68 1 48 C-1.74505463 49.37252731 -4.00327412 49.13229255 -7.0625 49.125 C-8.68865234 49.12886719 -8.68865234 49.12886719 -10.34765625 49.1328125 C-13 49 -13 49 -14 48 C-13.71269945 45.66055264 -13.38063221 43.3260857 -13 41 C-10.525 40.505 -10.525 40.505 -8 40 C-7.67 40.99 -7.34 41.98 -7 43 C-5.02 42.34 -3.04 41.68 -1 41 C-1 41.66 -1 42.32 -1 43 C-0.67 28.81 -0.34 14.62 0 0 Z " fill="#4B4B4B" transform="translate(151,24)"/>
<path d="M0 0 C2.83363811 0.62364257 5.66690959 1.24887814 8.5 1.875 C9.68722656 2.13603516 9.68722656 2.13603516 10.8984375 2.40234375 C15.95470933 3.52135473 20.98142181 4.72233445 26 6 C26 6.33 26 6.66 26 7 C22.7 7 19.4 7 16 7 C16 6.34 16 5.68 16 5 C14.02 5.33 12.04 5.66 10 6 C10 6.66 10 7.32 10 8 C7.36 7.67 4.72 7.34 2 7 C2 7.99 2 8.98 2 10 C4.64 10.33 7.28 10.66 10 11 C10 11.66 10 12.32 10 13 C11.2065625 13.1546875 11.2065625 13.1546875 12.4375 13.3125 C23.43478261 15.43478261 23.43478261 15.43478261 27 19 C15.20290015 17.20285508 4.62784429 13.29626792 -6 8 C-3.35261084 6.5393715 -2.10551666 6 1 6 C0.67 4.02 0.34 2.04 0 0 Z " fill="#F89C1A" transform="translate(102,94)"/>
<path d="M0 0 C0.08159574 4.16138263 -0.01751476 7.9472484 -1 12 C-1.33 12 -1.66 12 -2 12 C-2.06058594 11.38511719 -2.12117188 10.77023438 -2.18359375 10.13671875 C-2.26738281 9.32847656 -2.35117188 8.52023438 -2.4375 7.6875 C-2.51871094 6.88699219 -2.59992188 6.08648437 -2.68359375 5.26171875 C-2.95265693 2.83912821 -2.95265693 2.83912821 -4 0 C-7.04192013 0.1415547 -10.08346347 0.28809901 -13.125 0.4375 C-13.9809375 0.47681641 -14.836875 0.51613281 -15.71875 0.55664062 C-16.97558594 0.61948242 -16.97558594 0.61948242 -18.2578125 0.68359375 C-19.0223877 0.72025146 -19.78696289 0.75690918 -20.57470703 0.79467773 C-23.40161906 1.03400057 -26.20157644 1.53359607 -29 2 C-23.06 2.33 -17.12 2.66 -11 3 C-11 3.33 -11 3.66 -11 4 C-19.02502344 4.79681084 -26.93649887 5.12867289 -35 5 C-33.97999713 2.02134133 -33.29447474 1.14434163 -30.41796875 -0.265625 C-20.16578868 -3.38962667 -9.76211717 -5.44862354 0 0 Z " fill="#E3A334" transform="translate(255,78)"/>
<path d="M0 0 C1.32 0.66 2.64 1.32 4 2 C3.01 3.485 3.01 3.485 2 5 C9.89486277 7.17607221 9.89486277 7.17607221 18 8 C18 7.34 18 6.68 18 6 C19.98 6 21.96 6 24 6 C24 6.99 24 7.98 24 9 C25.43750191 10.68798827 25.43750191 10.68798827 27 12 C26.67 12.66 26.34 13.32 26 14 C30.455 14.99 30.455 14.99 35 16 C30.55402844 17.11149289 28.11517101 16.43741018 23.9375 15.0625 C23.25300781 14.84376221 22.56851563 14.62502441 21.86328125 14.3996582 C13.02783157 11.48122842 4.51609932 7.73042177 -4 4 C-2.68 2.68 -1.36 1.36 0 0 Z " fill="#FCFAEC" transform="translate(84,81)"/>
<path d="M0 0 C1.16144531 0.00902344 2.32289063 0.01804687 3.51953125 0.02734375 C4.39996094 0.03894531 5.28039062 0.05054687 6.1875 0.0625 C6.1875 0.3925 6.1875 0.7225 6.1875 1.0625 C2.2275 1.0625 -1.7325 1.0625 -5.8125 1.0625 C-5.8125 1.7225 -5.8125 2.3825 -5.8125 3.0625 C-4.8225 3.0625 -3.8325 3.0625 -2.8125 3.0625 C-3.1425 4.0525 -3.4725 5.0425 -3.8125 6.0625 C-3.8125 5.4025 -3.8125 4.7425 -3.8125 4.0625 C-5.4625 4.0625 -7.1125 4.0625 -8.8125 4.0625 C-8.8125 5.3825 -8.8125 6.7025 -8.8125 8.0625 C-8.8125 8.3925 -8.8125 8.7225 -8.8125 9.0625 C-12.4425 9.7225 -16.0725 10.3825 -19.8125 11.0625 C-19.8125 10.0725 -19.8125 9.0825 -19.8125 8.0625 C-20.740625 9.0525 -20.740625 9.0525 -21.6875 10.0625 C-23.8125 12.0625 -23.8125 12.0625 -25.8125 12.0625 C-25.703125 9.765625 -25.703125 9.765625 -24.8125 7.0625 C-22.046875 5.296875 -22.046875 5.296875 -18.5625 3.8125 C-17.42296875 3.31234375 -16.2834375 2.8121875 -15.109375 2.296875 C-9.90648263 0.34887264 -5.54912083 -0.05605173 0 0 Z " fill="#F7F5F3" transform="translate(241.8125,65.9375)"/>
<path d="M0 0 C5.1531913 -0.09040686 9.89476734 0.19391063 15 1 C23.1910603 2.17601367 31.31278483 2.14488906 39.57421875 2.01367188 C45.16932915 1.93606466 50.46622395 2.15017011 56 3 C56 3.66 56 4.32 56 5 C8.79442493 5.86294995 8.79442493 5.86294995 0 0 Z " fill="#FEF3D3" transform="translate(120,98)"/>
<path d="M0 0 C1.67542976 0.28604898 3.34385343 0.61781233 5 1 C5.05410687 2.77049689 5.09284119 4.54146849 5.125 6.3125 C5.14820313 7.29863281 5.17140625 8.28476563 5.1953125 9.30078125 C5 12 5 12 3 15 C3 12.36 3 9.72 3 7 C1.68 7.33 0.36 7.66 -1 8 C-0.67 9.32 -0.34 10.64 0 12 C-1.29096781 12.81360995 -2.58279875 13.62585046 -3.875 14.4375 C-4.59429687 14.88996094 -5.31359375 15.34242187 -6.0546875 15.80859375 C-9.59186236 17.97493578 -10.95637034 17.95770176 -15 17 C-15 16.34 -15 15.68 -15 15 C-13.25048432 14.04078278 -11.50036756 13.08266183 -9.75 12.125 C-8.28820312 11.32449219 -8.28820312 11.32449219 -6.796875 10.5078125 C-4.54869592 9.29580534 -2.2927195 8.12452433 0 7 C-0.185625 6.030625 -0.37125 5.06125 -0.5625 4.0625 C-0.706875 3.051875 -0.85125 2.04125 -1 1 C-0.67 0.67 -0.34 0.34 0 0 Z " fill="#FDF6E6" transform="translate(239,86)"/>
<path d="M0 0 C2.375 0.3125 2.375 0.3125 5 1 C7.29013653 4.4352048 7.17842973 5.985331 7 10 C3.88401212 11.84651134 1.61754103 12.38079379 -2 12 C-2.66 11.34 -3.32 10.68 -4 10 C-3.72317437 5.75534029 -2.81645906 3.18382329 0 0 Z " fill="#292929" transform="translate(224,51)"/>
<path d="M0 0 C1 3 1 3 -0.07421875 5.77734375 C-0.60660156 6.82019531 -1.13898438 7.86304687 -1.6875 8.9375 C-2.20699219 9.97777344 -2.72648438 11.01804687 -3.26171875 12.08984375 C-4.94438988 14.90689992 -6.46534874 16.92528546 -9 19 C-9.99 19 -10.98 19 -12 19 C-8.92482916 7.47835991 -8.92482916 7.47835991 -7 2 C-6.34 3.32 -5.68 4.64 -5 6 C-4.34 6 -3.68 6 -3 6 C-2.87625 5.38125 -2.7525 4.7625 -2.625 4.125 C-2 2 -2 2 0 0 Z " fill="#F59912" transform="translate(252,90)"/>
<path d="M0 0 C0.66 1.32 1.32 2.64 2 4 C4.31 4 6.62 4 9 4 C9.33 4.66 9.66 5.32 10 6 C7.9170757 6.64715133 5.83364461 7.29267166 3.75 7.9375 C2.58984375 8.29714844 1.4296875 8.65679687 0.234375 9.02734375 C-5.19852941 10.66115196 -5.19852941 10.66115196 -7 11 C-8 10 -8 10 -8.09765625 7.93359375 C-8.08605469 7.10988281 -8.07445312 6.28617187 -8.0625 5.4375 C-8.05347656 4.61121094 -8.04445312 3.78492188 -8.03515625 2.93359375 C-8.02355469 2.29550781 -8.01195312 1.65742187 -8 1 C-5.69 1.33 -3.38 1.66 -1 2 C-0.67 1.34 -0.34 0.68 0 0 Z " fill="#111313" transform="translate(228,60)"/>
<path d="M0 0 C-2.31 0.66 -4.62 1.32 -7 2 C-7 2.33 -7 2.66 -7 3 C-16.07622743 3.8481817 -25.10367217 4.18636879 -34.21313477 4.18530273 C-36.32783387 4.18751605 -38.44203122 4.20583993 -40.55664062 4.22460938 C-47.32625992 4.25168904 -53.5259429 4.1189346 -60 2 C-60 1.67 -60 1.34 -60 1 C-59.22140625 1.0721875 -58.4428125 1.144375 -57.640625 1.21875 C-41.92079056 2.5226994 -26.76206511 2.49434142 -11.15820312 -0.02050781 C-9.84239258 -0.22885254 -9.84239258 -0.22885254 -8.5 -0.44140625 C-7.7265625 -0.57232666 -6.953125 -0.70324707 -6.15625 -0.83813477 C-3.86545904 -1.01009971 -2.18170149 -0.67899261 0 0 Z " fill="#FEF4C8" transform="translate(196,114)"/>
<path d="M0 0 C2.0625 0.4375 2.0625 0.4375 4 1 C3.360625 1.598125 2.72125 2.19625 2.0625 2.8125 C-0.20310389 4.90810337 -0.20310389 4.90810337 -1 8 C-16 8 -16 8 -19 6 C-15.54015617 3.69343745 -12.38037107 3.14898039 -8.375 2.4375 C-3.81747584 1.9699826 -3.81747584 1.9699826 0 0 Z " fill="#FB9902" transform="translate(216,97)"/>
<path d="M0 0 C1.7734375 1.7421875 1.7734375 1.7421875 2.234375 4.046875 C1.94611687 12.66841369 1.94611687 12.66841369 -0.2265625 16.7421875 C-0.8865625 16.7421875 -1.5465625 16.7421875 -2.2265625 16.7421875 C-1.8965625 12.1221875 -1.5665625 7.5021875 -1.2265625 2.7421875 C-10.06834995 -0.20507498 -18.40808286 -0.25984812 -27.2265625 2.7421875 C-28.5465625 2.7421875 -29.8665625 2.7421875 -31.2265625 2.7421875 C-31.2265625 2.0821875 -31.2265625 1.4221875 -31.2265625 0.7421875 C-25.45257113 -0.80441733 -19.86080106 -1.5574524 -13.9140625 -1.9453125 C-12.87378906 -2.01770142 -12.87378906 -2.01770142 -11.8125 -2.09155273 C-7.16177154 -2.35851809 -4.04567874 -2.2854536 0 0 Z " fill="#FDEDCA" transform="translate(255.2265625,75.2578125)"/>
<path d="M0 0 C0.99 0.33 1.98 0.66 3 1 C3.08131463 2.43655854 3.13933559 3.8744483 3.1875 5.3125 C3.22230469 6.11300781 3.25710937 6.91351563 3.29296875 7.73828125 C2.93167694 10.52745402 2.04367233 11.16223924 0 13 C-0.33 13.99 -0.66 14.98 -1 16 C-1.99 16.33 -2.98 16.66 -4 17 C-4 12.71 -4 8.42 -4 4 C-4.66 3.67 -5.32 3.34 -6 3 C-5.195625 2.87625 -4.39125 2.7525 -3.5625 2.625 C-2.716875 2.41875 -1.87125 2.2125 -1 2 C-0.67 1.34 -0.34 0.68 0 0 Z " fill="#F89A04" transform="translate(250,80)"/>
<path d="M0 0 C1.5625 1.25 1.5625 1.25 3 3 C2.76679833 5.79841998 2.11255438 6.8829244 0.15234375 8.921875 C-0.94400391 9.82679687 -0.94400391 9.82679687 -2.0625 10.75 C-3.16271484 11.67039062 -3.16271484 11.67039062 -4.28515625 12.609375 C-4.85105469 13.06828125 -5.41695312 13.5271875 -6 14 C-8.475 13.01 -8.475 13.01 -11 12 C-11 10.68 -11 9.36 -11 8 C-10.01 7.34 -9.02 6.68 -8 6 C-8 6.99 -8 7.98 -8 9 C-6.02463255 8.65213292 -6.02463255 8.65213292 -4 8 C-3.67 7.34 -3.34 6.68 -3 6 C-3 6.66 -3 7.32 -3 8 C-2.34 8 -1.68 8 -1 8 C-1.020625 7.05125 -1.04125 6.1025 -1.0625 5.125 C-1 2 -1 2 0 0 Z " fill="#191919" transform="translate(210,59)"/>
<path d="M0 0 C-27.81793478 9.5923913 -27.81793478 9.5923913 -37 9 C-37 8.34 -37 7.68 -37 7 C-34.94921875 6.77213542 -32.8984375 6.54427083 -30.84765625 6.31640625 C-28.98859771 6.18113386 -28.98859771 6.18113386 -28 5 C-25.16505808 4.46620556 -22.32007381 4.03490823 -19.46875 3.59765625 C-18.6540625 3.40042969 -17.839375 3.20320313 -17 3 C-16.67 2.34 -16.34 1.68 -16 1 C-13.41796875 0.33203125 -13.41796875 0.33203125 -10.1875 -0.1875 C-8.60001953 -0.45626953 -8.60001953 -0.45626953 -6.98046875 -0.73046875 C-4.26673085 -0.97587886 -2.54696188 -0.86954389 0 0 Z " fill="#FEEFC6" transform="translate(228,92)"/>
<path d="M0 0 C0.33 0 0.66 0 1 0 C1.02505615 1.08007324 1.0501123 2.16014648 1.07592773 3.27294922 C1.16995572 7.27242312 1.27018754 11.27172147 1.37231445 15.27099609 C1.4156808 17.00337626 1.45735463 18.73579963 1.49731445 20.46826172 C1.55497594 22.95553627 1.61868198 25.44259293 1.68359375 27.9296875 C1.70030624 28.70682098 1.71701874 29.48395447 1.73423767 30.28463745 C1.76473429 34.27274216 1.76473429 34.27274216 3 38 C2.0625 40.125 2.0625 40.125 1 42 C0.01 41.67 -0.98 41.34 -2 41 C-1.67 40.34 -1.34 39.68 -1 39 C-5.29 39 -9.58 39 -14 39 C-14 38.67 -14 38.34 -14 38 C-9.38 38 -4.76 38 0 38 C0 25.46 0 12.92 0 0 Z " fill="#BFBFBF" transform="translate(122,34)"/>
<path d="M0 0 C0.33 0.99 0.66 1.98 1 3 C-3.77357872 5.71391278 -7.34388537 7.56561146 -13 7 C-12.67 5.35 -12.34 3.7 -12 2 C-9.50935112 1.31292445 -7.62113708 1 -5 1 C-3.32900023 0.68911632 -1.66128463 0.35919668 0 0 Z " fill="#151515" transform="translate(191,66)"/>
<path d="M0 0 C2.475 0.99 2.475 0.99 5 2 C5 2.66 5 3.32 5 4 C6.2684375 4.4021875 6.2684375 4.4021875 7.5625 4.8125 C11.13854067 6.0478595 14.53860908 7.476988 18 9 C18 9.33 18 9.66 18 10 C16.88625 9.938125 15.7725 9.87625 14.625 9.8125 C12.830625 9.9053125 12.830625 9.9053125 11 10 C10.01 11.485 10.01 11.485 9 13 C8.34 13 7.68 13 7 13 C7.33 10.69 7.66 8.38 8 6 C5.69 5.34 3.38 4.68 1 4 C0.67 2.68 0.34 1.36 0 0 Z " fill="#FCF9E9" transform="translate(89,97)"/>
<path d="M0 0 C0.94875 0.04125 1.8975 0.0825 2.875 0.125 C2.875 1.115 2.875 2.105 2.875 3.125 C4.855 3.125 6.835 3.125 8.875 3.125 C8.875 3.455 8.875 3.785 8.875 4.125 C7.225 4.125 5.575 4.125 3.875 4.125 C3.875 4.785 3.875 5.445 3.875 6.125 C1.565 6.455 -0.745 6.785 -3.125 7.125 C-3.785 5.475 -4.445 3.825 -5.125 2.125 C-3.125 0.125 -3.125 0.125 0 0 Z " fill="#F79B04" transform="translate(99.125,93.875)"/>
<path d="M0 0 C8.57142857 1 8.57142857 1 12 2 C12 2.66 12 3.32 12 4 C12.804375 4.103125 13.60875 4.20625 14.4375 4.3125 C25.43478261 6.43478261 25.43478261 6.43478261 29 10 C18.91844449 8.48547193 9.13179484 5.54173923 0 1 C0 0.67 0 0.34 0 0 Z " fill="#E8A73C" transform="translate(100,103)"/>
<path d="M0 0 C2.6875 0.3125 2.6875 0.3125 5 2 C6.97294288 4.70366247 7.05087162 6.04215541 6.6875 9.3125 C0.16442308 6.97403846 0.16442308 6.97403846 -2.25 3.625 C-2.7759375 2.4803125 -2.7759375 2.4803125 -3.3125 1.3125 C-2.3125 0.3125 -2.3125 0.3125 0 0 Z " fill="#1B1B1B" transform="translate(166.3125,63.6875)"/>
<path d="M0 0 C4.14298667 0.59834725 7.18194377 2.00664285 10.8125 4.0625 C11.78832031 4.61035156 12.76414062 5.15820312 13.76953125 5.72265625 C14.50558594 6.14417969 15.24164063 6.56570312 16 7 C13 8 13 8 9.8125 6.5625 C8.884375 6.046875 7.95625 5.53125 7 5 C7 5.66 7 6.32 7 7 C7.66 7 8.32 7 9 7 C9 7.66 9 8.32 9 9 C4.74822077 8.52758009 2.70030797 6.15035929 0 3 C0 2.01 0 1.02 0 0 Z " fill="#E59C26" transform="translate(68,79)"/>
<path d="M0 0 C-0.35299229 2.80568007 -0.76935446 3.80381345 -2.9609375 5.66796875 C-3.75757813 6.16941406 -4.55421875 6.67085938 -5.375 7.1875 C-6.56222656 7.95126953 -6.56222656 7.95126953 -7.7734375 8.73046875 C-10 10 -10 10 -13 11 C-13 10.34 -13 9.68 -13 9 C-7.80769231 4.26923077 -7.80769231 4.26923077 -4 3 C-4.66 2.67 -5.32 2.34 -6 2 C-6 1.34 -6 0.68 -6 0 C-3.50907189 -1.24546405 -2.58919267 -0.7767578 0 0 Z " fill="#E2A02B" transform="translate(238,90)"/>
<path d="M0 0 C0 0.66 0 1.32 0 2 C0.66 2 1.32 2 2 2 C1.67 2.66 1.34 3.32 1 4 C-7.25 3.34 -15.5 2.68 -24 2 C-24 1.67 -24 1.34 -24 1 C-15.97497656 0.20318916 -8.06350113 -0.12867289 0 0 Z " fill="#FDEABA" transform="translate(244,82)"/>
<path d="M0 0 C7.75 1.875 7.75 1.875 10 3 C10 3.66 10 4.32 10 5 C7.875 6.75 7.875 6.75 5 8 C1.75 7.4375 1.75 7.4375 -1 6 C-1.875 3.875 -1.875 3.875 -2 2 C0.475 2.99 0.475 2.99 3 4 C3 3.34 3 2.68 3 2 C2.01 1.67 1.02 1.34 0 1 C0 0.67 0 0.34 0 0 Z " fill="#E7E7E8" transform="translate(250,67)"/>
<path d="M0 0 C0 0.66 0 1.32 0 2 C-0.99 2 -1.98 2 -3 2 C-3 2.66 -3 3.32 -3 4 C-3.639375 4.103125 -4.27875 4.20625 -4.9375 4.3125 C-5.618125 4.539375 -6.29875 4.76625 -7 5 C-7.33 5.99 -7.66 6.98 -8 8 C-8.33 7.67 -8.66 7.34 -9 7 C-10.51928038 6.92820036 -12.04167482 6.91607993 -13.5625 6.9375 C-14.80193359 6.95103516 -14.80193359 6.95103516 -16.06640625 6.96484375 C-17.02353516 6.98224609 -17.02353516 6.98224609 -18 7 C-14.87351251 4.91567501 -11.94269132 3.71441389 -8.4375 2.375 C-7.28121094 1.92898437 -6.12492188 1.48296875 -4.93359375 1.0234375 C-2 0 -2 0 0 0 Z " fill="#FCEBC2" transform="translate(220,104)"/>
<path d="M0 0 C0.33 0 0.66 0 1 0 C1 3.63 1 7.26 1 11 C0.01 10.34 -0.98 9.68 -2 9 C-2.99 9 -3.98 9 -5 9 C-5 9.99 -5 10.98 -5 12 C-5.66 12 -6.32 12 -7 12 C-7 11.34 -7 10.68 -7 10 C-7.99 9.67 -8.98 9.34 -10 9 C-8.35 7.35 -6.7 5.7 -5 4 C-3.35 4.99 -1.7 5.98 0 7 C0 4.69 0 2.38 0 0 Z " fill="#E6E5E7" transform="translate(219,59)"/>
<path d="M0 0 C0 0.66 0 1.32 0 2 C-2.5395837 2.67561372 -5.08118835 3.34065828 -7.625 4 C-8.33785156 4.19078125 -9.05070313 4.3815625 -9.78515625 4.578125 C-13.95848544 5.65017287 -17.65178751 6.21946814 -22 6 C-19.23210261 4.15473507 -17.94105556 3.62017385 -14.8125 3 C-11.70618162 2.36046386 -8.63272806 1.67057004 -5.5625 0.875 C-2 0 -2 0 0 0 Z " fill="#E6A032" transform="translate(202,109)"/>
<path d="M0 0 C0 0.33 0 0.66 0 1 C-3.96 1 -7.92 1 -12 1 C-12 1.66 -12 2.32 -12 3 C-11.01 3 -10.02 3 -9 3 C-9.33 3.99 -9.66 4.98 -10 6 C-10 5.34 -10 4.68 -10 4 C-11.65 4 -13.3 4 -15 4 C-15.33 4.66 -15.66 5.32 -16 6 C-16.66 5.34 -17.32 4.68 -18 4 C-18.66 4 -19.32 4 -20 4 C-20 3.34 -20 2.68 -20 2 C-13.38190423 -0.46254726 -6.99560484 -0.18935472 0 0 Z " fill="#CECBC9" transform="translate(248,66)"/>
<path d="M0 0 C6.93 0.495 6.93 0.495 14 1 C13.67 1.99 13.34 2.98 13 4 C17.455 4.99 17.455 4.99 22 6 C17.2634333 7.18414168 14.34266472 6.16206913 9.875 4.6875 C9.14667969 4.46126953 8.41835937 4.23503906 7.66796875 4.00195312 C2.27119473 2.27119473 2.27119473 2.27119473 0 0 Z " fill="#FBE6BA" transform="translate(97,91)"/>
<path d="M0 0 C0.99 0.33 1.98 0.66 3 1 C2.67 1.66 2.34 2.32 2 3 C1.01 3 0.02 3 -1 3 C0.36983503 6.16115776 0.9890638 6.9927092 4 9 C4 9.66 4 10.32 4 11 C2.68 11 1.36 11 0 11 C0 10.34 0 9.68 0 9 C-0.99 8.67 -1.98 8.34 -3 8 C-3 6.68 -3 5.36 -3 4 C-3.66 3.67 -4.32 3.34 -5 3 C-4.360625 2.690625 -3.72125 2.38125 -3.0625 2.0625 C-1.06389179 1.1654837 -1.06389179 1.1654837 0 0 Z " fill="#FBF2D0" transform="translate(69,76)"/>
<path d="M0 0 C-2.31 0.66 -4.62 1.32 -7 2 C-7 2.33 -7 2.66 -7 3 C-13.27 3 -19.54 3 -26 3 C-26 2.67 -26 2.34 -26 2 C-22.4184073 1.46669495 -18.83454729 0.95053833 -15.25 0.4375 C-14.23421875 0.28603516 -13.2184375 0.13457031 -12.171875 -0.02148438 C-11.1921875 -0.16005859 -10.2125 -0.29863281 -9.203125 -0.44140625 C-7.85202637 -0.63778687 -7.85202637 -0.63778687 -6.47363281 -0.83813477 C-4.04031365 -0.99736203 -2.30785997 -0.73710222 0 0 Z " fill="#FDECBD" transform="translate(196,114)"/>
<path d="M0 0 C0.98120464 3.05263664 0.98120464 4.94736336 0 8 C1.32 7.34 2.64 6.68 4 6 C2.71700242 8.86207152 1.469364 11.0245088 -1 13 C-1.99 13 -2.98 13 -4 13 C-3.52343588 11.20763933 -3.04366502 9.41613103 -2.5625 7.625 C-2.29566406 6.62726563 -2.02882812 5.62953125 -1.75390625 4.6015625 C-1 2 -1 2 0 0 Z " fill="#EDA547" transform="translate(244,96)"/>
<path d="M0 0 C2 3.75 2 3.75 2 6 C-0.3125 8.1875 -0.3125 8.1875 -3 10 C-3.99 9.67 -4.98 9.34 -6 9 C-6 7.68 -6 6.36 -6 5 C-5.38125 4.9175 -4.7625 4.835 -4.125 4.75 C-1.81562433 4.18741541 -1.81562433 4.18741541 -0.75 1.9375 C-0.5025 1.298125 -0.255 0.65875 0 0 Z " fill="#FCFAE5" transform="translate(222,73)"/>
<path d="M0 0 C1.3921875 0.3403125 1.3921875 0.3403125 2.8125 0.6875 C3.1425 2.0075 3.4725 3.3275 3.8125 4.6875 C-0.36337745 6.07945915 -2.32224776 4.51073219 -6.1875 2.6875 C-4.14987265 -0.14253799 -3.59070275 -0.35202968 0 0 Z " fill="#1A1819" transform="translate(257.1875,64.3125)"/>
<path d="M0 0 C0.66 0.33 1.32 0.66 2 1 C2 1.33 2 1.66 2 2 C2.33 2 2.66 2 3 2 C3.042721 3.66611905 3.04063832 5.33382885 3 7 C2 8 2 8 -0.72265625 8.09765625 C-2.37587891 8.08025391 -2.37587891 8.08025391 -4.0625 8.0625 C-5.16722656 8.05347656 -6.27195313 8.04445313 -7.41015625 8.03515625 C-8.69212891 8.01775391 -8.69212891 8.01775391 -10 8 C-10 7.67 -10 7.34 -10 7 C-7.36 7 -4.72 7 -2 7 C-2.04125 6.21625 -2.0825 5.4325 -2.125 4.625 C-2 2 -2 2 0 0 Z " fill="#3A3A3A" transform="translate(148,65)"/>
<path d="M0 0 C-0.33 0.99 -0.66 1.98 -1 3 C-0.34 3.66 0.32 4.32 1 5 C-0.32 5 -1.64 5 -3 5 C-3 4.34 -3 3.68 -3 3 C-3.66 3 -4.32 3 -5 3 C-5.2475 3.804375 -5.495 4.60875 -5.75 5.4375 C-7 8 -7 8 -9.125 8.8125 C-9.74375 8.874375 -10.3625 8.93625 -11 9 C-11 6.75 -11 6.75 -10 4 C-7.00985547 1.94304343 -3.686098 0 0 0 Z " fill="#F4F5F1" transform="translate(227,69)"/>
<path d="M0 0 C1.32 0.33 2.64 0.66 4 1 C3.34 1 2.68 1 2 1 C1.7834375 1.9590625 1.7834375 1.9590625 1.5625 2.9375 C1 5 1 5 0 6 C-2.9375 6.25 -2.9375 6.25 -6 6 C-6.66 5.01 -7.32 4.02 -8 3 C-5.36 2.67 -2.72 2.34 0 2 C0 1.34 0 0.68 0 0 Z " fill="#FDFAE6" transform="translate(196,112)"/>
<path d="M0 0 C1.32 0.66 2.64 1.32 4 2 C3.01 3.485 3.01 3.485 2 5 C4.97 5.495 4.97 5.495 8 6 C8.33 6.99 8.66 7.98 9 9 C-0.59453303 6.10933941 -0.59453303 6.10933941 -4 3 C-3.01 2.67 -2.02 2.34 -1 2 C-0.67 1.34 -0.34 0.68 0 0 Z " fill="#FBEBCE" transform="translate(84,81)"/>
<path d="M0 0 C3.63 0.33 7.26 0.66 11 1 C11 1.99 11 2.98 11 4 C10.2575 3.79375 9.515 3.5875 8.75 3.375 C5.60314245 2.94588306 4.71187889 3.55366459 2 5 C1.01 4.67 0.02 4.34 -1 4 C-0.67 2.68 -0.34 1.36 0 0 Z " fill="#E8E8E8" transform="translate(170,72)"/>
<path d="M0 0 C2.62728858 0.61642534 5.25153582 1.24267787 7.875 1.875 C8.62136719 2.04902344 9.36773437 2.22304687 10.13671875 2.40234375 C15.7734375 3.7734375 15.7734375 3.7734375 18 6 C13.65515812 5.52601725 9.35559565 4.95059532 5.0625 4.125 C4.31097656 3.98320313 3.55945313 3.84140625 2.78515625 3.6953125 C2.19605469 3.46585937 1.60695313 3.23640625 1 3 C0.67 2.01 0.34 1.02 0 0 Z " fill="#FDEFCC" transform="translate(107,107)"/>
<path d="M0 0 C1.22589844 0.01353516 1.22589844 0.01353516 2.4765625 0.02734375 C3.41628906 0.04474609 3.41628906 0.04474609 4.375 0.0625 C3.385 0.5575 3.385 0.5575 2.375 1.0625 C2.375 1.7225 2.375 2.3825 2.375 3.0625 C-1.09825181 4.2202506 -3.98567448 4.13116652 -7.625 4.0625 C-7.295 3.0725 -6.965 2.0825 -6.625 1.0625 C-4.21954362 -0.14022819 -2.67503047 -0.03821472 0 0 Z " fill="#FDFAE6" transform="translate(188.625,97.9375)"/>
<path d="M0 0 C0.99 0.495 0.99 0.495 2 1 C2 1.66 2 2.32 2 3 C2.66 3.33 3.32 3.66 4 4 C4.625 6.5625 4.625 6.5625 5 9 C3.0625 9.5625 3.0625 9.5625 1 10 C0 9 0 9 -0.09765625 6.93359375 C-0.08605469 6.10988281 -0.07445312 5.28617187 -0.0625 4.4375 C-0.05347656 3.61121094 -0.04445312 2.78492188 -0.03515625 1.93359375 C-0.02355469 1.29550781 -0.01195312 0.65742187 0 0 Z " fill="#07060A" transform="translate(220,61)"/>
<path d="M0 0 C3.63 0.33 7.26 0.66 11 1 C8.29811996 2.80125336 6.06942297 4.00243753 3 5 C2.01 4.67 1.02 4.34 0 4 C0 2.68 0 1.36 0 0 Z " fill="#FDF0D7" transform="translate(125,113)"/>
<path d="M0 0 C0.33 0.66 0.66 1.32 1 2 C0.0625 4.625 0.0625 4.625 -1 7 C0.98 6.01 2.96 5.02 5 4 C4.34 5.32 3.68 6.64 3 8 C0.69 8 -1.62 8 -4 8 C-4.33 7.01 -4.66 6.02 -5 5 C-3.35 3.35 -1.7 1.7 0 0 Z " fill="#FDF2C8" transform="translate(241,102)"/>
<path d="M0 0 C0.33 0.99 0.66 1.98 1 3 C2.97536745 2.65213292 2.97536745 2.65213292 5 2 C5.33 1.34 5.66 0.68 6 0 C6 0.99 6 1.98 6 3 C5.01 3.33 4.02 3.66 3 4 C2.67 4.99 2.34 5.98 2 7 C0.68 6.67 -0.64 6.34 -2 6 C-2 2 -2 2 0 0 Z " fill="#2A2A2A" transform="translate(201,65)"/>
<path d="M0 0 C1.32 0.66 2.64 1.32 4 2 C3.67 2.66 3.34 3.32 3 4 C2.01 4.33 1.02 4.66 0 5 C0 5.33 0 5.66 0 6 C-2.31 6 -4.62 6 -7 6 C-6.21625 5.38125 -5.4325 4.7625 -4.625 4.125 C-2.03162353 2.10141339 -2.03162353 2.10141339 0 0 Z " fill="#E2E2E2" transform="translate(194,66)"/>
<path d="M0 0 C2.62113708 0 4.50935112 0.31292445 7 1 C6.67 2.32 6.34 3.64 6 5 C4.35 5 2.7 5 1 5 C0.67 3.35 0.34 1.7 0 0 Z " fill="#0F0F0F" transform="translate(221,56)"/>
<path d="M0 0 C2.1875 0.3125 2.1875 0.3125 4 1 C3.34 2.32 2.68 3.64 2 5 C1.34 5 0.68 5 0 5 C-0.33 5.66 -0.66 6.32 -1 7 C-1 6.01 -1 5.02 -1 4 C-1.66 3.67 -2.32 3.34 -3 3 C-1.75 1.4375 -1.75 1.4375 0 0 Z " fill="#1E1E1E" transform="translate(140,64)"/>
<path d="M0 0 C2.97 0.99 5.94 1.98 9 3 C9 3.66 9 4.32 9 5 C9.66 5 10.32 5 11 5 C10.67 5.99 10.34 6.98 10 8 C9.01 7.67 8.02 7.34 7 7 C7 6.34 7 5.68 7 5 C6.21625 4.731875 5.4325 4.46375 4.625 4.1875 C2 3 2 3 0 0 Z " fill="#EBA336" transform="translate(77,88)"/>
<path d="M0 0 C2.475 0.99 2.475 0.99 5 2 C5 2.66 5 3.32 5 4 C6.98 4.66 8.96 5.32 11 6 C10.01 6.66 9.02 7.32 8 8 C8 7.34 8 6.68 8 6 C5.69 5.34 3.38 4.68 1 4 C0.67 2.68 0.34 1.36 0 0 Z " fill="#FEEDC3" transform="translate(89,97)"/>
<path d="M0 0 C4.95 0.99 9.9 1.98 15 3 C15 3.33 15 3.66 15 4 C11.7 4 8.4 4 5 4 C5 3.34 5 2.68 5 2 C3.35 1.67 1.7 1.34 0 1 C0 0.67 0 0.34 0 0 Z " fill="#E69E2D" transform="translate(113,97)"/>
<path d="M0 0 C0.99 0.33 1.98 0.66 3 1 C3.08159574 5.16138263 2.98248524 8.9472484 2 13 C1.67 13 1.34 13 1 13 C0.67 8.71 0.34 4.42 0 0 Z " fill="#E3A13F" transform="translate(252,77)"/>
<path d="M0 0 C2.31 0 4.62 0 7 0 C6.360625 0.268125 5.72125 0.53625 5.0625 0.8125 C2.66868314 1.88667752 2.66868314 1.88667752 2 5 C1.01 4.67 0.02 4.34 -1 4 C-0.67 2.68 -0.34 1.36 0 0 Z " fill="#FAFBEB" transform="translate(221,84)"/>
<path d="M0 0 C2.97 0.99 5.94 1.98 9 3 C9 3.33 9 3.66 9 4 C6.03 4 3.06 4 0 4 C0 2.68 0 1.36 0 0 Z " fill="#FAF6E8" transform="translate(240,70)"/>
<path d="M0 0 C0.66 0.33 1.32 0.66 2 1 C1.67 1.66 1.34 2.32 1 3 C1.66 3.33 2.32 3.66 3 4 C2.01 5.485 2.01 5.485 1 7 C-0.32 6.67 -1.64 6.34 -3 6 C-2 4 -1 2 0 0 Z " fill="#131313" transform="translate(228,45)"/>
<path d="M0 0 C0 0.66 0 1.32 0 2 C-0.66 2 -1.32 2 -2 2 C-2.33 2.99 -2.66 3.98 -3 5 C-4.65 5 -6.3 5 -8 5 C-8 4.34 -8 3.68 -8 3 C-2.25 0 -2.25 0 0 0 Z " fill="#FDEDBE" transform="translate(232,98)"/>
<path d="M0 0 C-0.75 6.75 -0.75 6.75 -3 9 C-3 6.69 -3 4.38 -3 2 C-3.66 1.67 -4.32 1.34 -5 1 C-1.125 0 -1.125 0 0 0 Z " fill="#EAA025" transform="translate(249,82)"/>
<path d="M0 0 C1.32 0.66 2.64 1.32 4 2 C3.34 2.66 2.68 3.32 2 4 C2.33 4.66 2.66 5.32 3 6 C1.68 6 0.36 6 -1 6 C-1.625 4.125 -1.625 4.125 -2 2 C-1.34 1.34 -0.68 0.68 0 0 Z " fill="#E5E5E5" transform="translate(162,66)"/>
<path d="M0 0 C0.95465783 2.16967689 1.14401212 3.56328793 0.3984375 5.82421875 C-0.35870385 7.5684743 -1.17609198 9.28627131 -2 11 C-2.66 11 -3.32 11 -4 11 C-2.7874262 7.27566618 -1.49140021 3.62197194 0 0 Z " fill="#FDEFBE" transform="translate(252,93)"/>
<path d="M0 0 C0.33 0.66 0.66 1.32 1 2 C1.66 2 2.32 2 3 2 C2.34 3.32 1.68 4.64 1 6 C0.01 6 -0.98 6 -2 6 C-1.34 4.02 -0.68 2.04 0 0 Z " fill="#D9A535" transform="translate(242,103)"/>
<path d="M0 0 C1.32 0 2.64 0 4 0 C4 0.66 4 1.32 4 2 C5.65 2 7.3 2 9 2 C9 2.99 9 3.98 9 5 C5.22454612 3.90931332 2.52956528 3.0916909 0 0 Z " fill="#FCE8BC" transform="translate(71,79)"/>
<path d="M0 0 C1.485 0.99 1.485 0.99 3 2 C2.67 3.32 2.34 4.64 2 6 C1.01 6 0.02 6 -1 6 C-0.67 4.02 -0.34 2.04 0 0 Z " fill="#EFEFEF" transform="translate(199,71)"/>
<path d="M0 0 C4.95 0.99 4.95 0.99 10 2 C10 2.33 10 2.66 10 3 C6.7 3 3.4 3 0 3 C0 2.01 0 1.02 0 0 Z " fill="#E69E18" transform="translate(102,94)"/>
<path d="M0 0 C1.39195915 4.17587745 -0.17676781 6.13474776 -2 10 C-3.26066301 6.21801096 -2.42292658 4.63636792 -1 1 C-0.67 0.67 -0.34 0.34 0 0 Z " fill="#E79D2E" transform="translate(252,90)"/>
<path d="M0 0 C1.98 0 3.96 0 6 0 C6 0.66 6 1.32 6 2 C4.35 2.66 2.7 3.32 1 4 C0.67 2.68 0.34 1.36 0 0 Z " fill="#F69406" transform="translate(87,90)"/>
<path d="M0 0 C2.4375 0.375 2.4375 0.375 5 1 C5.33 1.66 5.66 2.32 6 3 C5.01 3 4.02 3 3 3 C2.67 3.66 2.34 4.32 2 5 C1.34 4.34 0.68 3.68 0 3 C0 2.01 0 1.02 0 0 Z " fill="#DFA449" transform="translate(68,79)"/>
<path d="M0 0 C-0.33 0.99 -0.66 1.98 -1 3 C-0.34 3.66 0.32 4.32 1 5 C-0.32 5 -1.64 5 -3 5 C-3 4.34 -3 3.68 -3 3 C-3.99 3.33 -4.98 3.66 -6 4 C-6 3.34 -6 2.68 -6 2 C-2.25 0 -2.25 0 0 0 Z " fill="#E6E9E8" transform="translate(227,69)"/>
<path d="M0 0 C0.99 0.33 1.98 0.66 3 1 C1.47058649 4.05882701 -0.94219546 4.68951234 -4 6 C-4.66 5.67 -5.32 5.34 -6 5 C-1.60546875 0.99609375 -1.60546875 0.99609375 0 0 Z " fill="#2B2B2B" transform="translate(27,39)"/>
<path d="M0 0 C5.53846154 -0.36923077 5.53846154 -0.36923077 7.875 1.5 C8.24625 1.995 8.6175 2.49 9 3 C7.35 3.33 5.7 3.66 4 4 C4 3.01 4 2.02 4 1 C2.68 0.67 1.36 0.34 0 0 Z " fill="#D0D0D0" transform="translate(290,23)"/>
</svg>
