<?xml version="1.0" encoding="UTF-8"?>
<svg version="1.1" xmlns="http://www.w3.org/2000/svg" width="678" height="452">
<path d="M0 0 C223.74 0 447.48 0 678 0 C678 149.16 678 298.32 678 452 C454.26 452 230.52 452 0 452 C0 302.84 0 153.68 0 0 Z " fill="#F55D34" transform="translate(0,0)"/>
<path d="M0 0 C0.10546143 0.69859131 0.21092285 1.39718262 0.31958008 2.11694336 C3.02467583 20.09680113 3.02467583 20.09680113 6.13598633 38.00952148 C6.63692321 40.73114985 7 43.22343139 7 46 C5.7625 46.433125 4.525 46.86625 3.25 47.3125 C0.05909498 48.49640469 -2.33992498 49.85147787 -5 52 C-5.66 52 -6.32 52 -7 52 C-7 52.66 -7 53.32 -7 54 C-7.598125 54.556875 -8.19625 55.11375 -8.8125 55.6875 C-14.1202632 61.29856395 -14.53263125 67.480062 -14.48706055 74.92700195 C-14.23077719 82.76130352 -11.40760869 87.74264706 -6.875 93.875 C-2.65038307 96.99754295 2.01953608 98.4386987 7 100 C7.35638394 106.5931028 5.99891068 112.63505847 4.625 119.0625 C2.76586478 128.01908443 1.08916282 136.91280572 0 146 C-16.53284317 145.92535962 -31.49930317 135.04522368 -43 124 C-43.70511719 123.32582031 -44.41023438 122.65164063 -45.13671875 121.95703125 C-47.15472633 119.83748869 -48.48687021 117.59777713 -49.8671875 115.02734375 C-50.99924844 112.94177391 -50.99924844 112.94177391 -52.4453125 110.81640625 C-62.46094742 95.49097493 -63.97511301 75.26124907 -61.50390625 57.41796875 C-58.19188352 43.14071821 -50.79678225 29.89075856 -40 20 C-39.36320312 19.34644531 -38.72640625 18.69289062 -38.0703125 18.01953125 C-28.79880823 8.97544124 -13.24457955 0 0 0 Z " fill="#FDFDFD" transform="translate(87,151)"/>
<path d="M0 0 C8.21879253 0.19088301 14.25810848 1.93029413 21.4375 5.875 C22.34838379 6.36532715 23.25926758 6.8556543 24.19775391 7.36083984 C42.67985061 17.66594911 53.72835242 33.26913021 60.23828125 53.2109375 C65.16064648 71.23436709 61.79748328 91.20743218 53.65625 107.7265625 C48.90713786 116.03750874 42.8345172 124.394605 35 130 C34.34 130 33.68 130 33 130 C33 130.66 33 131.32 33 132 C12.54211175 144.14502876 12.54211175 144.14502876 1 145 C-0.95873678 138.81773704 -1.98592629 132.58487909 -3 126.1875 C-4.07127674 119.50457438 -5.17534051 112.85849149 -6.6328125 106.24731445 C-7.03307835 103.79754905 -7.06116445 101.4779793 -7 99 C-6.32453125 98.75765625 -5.6490625 98.5153125 -4.953125 98.265625 C-0.09258087 96.439409 3.5473649 95.02807429 7 91 C7.66 91 8.32 91 9 91 C9.268125 90.29875 9.53625 89.5975 9.8125 88.875 C11 86 11 86 12.546875 83.3125 C14.22146353 79.49515841 14.49950487 76.22071212 14.4375 72.125 C14.42847656 71.41609619 14.41945313 70.70719238 14.41015625 69.97680664 C14.14393633 61.94491465 11.99486509 57.6770503 6.3125 52.1875 C2.21825937 48.81032977 -1.92336593 47.31803044 -7 46 C-6.39225449 38.07369832 -5.35120847 30.27993776 -4.0625 22.4375 C-3.89298828 21.37853516 -3.72347656 20.31957031 -3.54882812 19.22851562 C-2.50517151 12.78800349 -1.33195005 6.38712368 0 0 Z " fill="#FDFDFD" transform="translate(111,152)"/>
<path d="M0 0 C43.83057851 0 43.83057851 0 55.9375 11.73828125 C63.78551439 20.34434248 64.4486792 30.07647604 64.1796875 41.22265625 C63.69211829 51.47220892 59.66343345 58.86764398 52.125 65.8125 C36.50722002 78.70764018 21.89349679 74 0 74 C0 49.58 0 25.16 0 0 Z " fill="#FCFCFB" transform="translate(362,187)"/>
<path d="M0 0 C2.875 1.625 2.875 1.625 5.875 3.625 C5.875 1.975 5.875 0.325 5.875 -1.375 C11.155 -1.375 16.435 -1.375 21.875 -1.375 C21.875 17.105 21.875 35.585 21.875 54.625 C16.265 54.625 10.655 54.625 4.875 54.625 C4.875 52.975 4.875 51.325 4.875 49.625 C4.37613281 49.91375 3.87726563 50.2025 3.36328125 50.5 C-3.36381442 53.97828286 -9.63181623 54.71659961 -17.125 53.625 C-21.79386208 51.87250449 -25.84553914 49.42387857 -29.125 45.625 C-29.125 44.965 -29.125 44.305 -29.125 43.625 C-29.785 43.625 -30.445 43.625 -31.125 43.625 C-35.20760684 34.53026424 -37.19059134 25.05622207 -34 15.3125 C-30.86270258 8.42787511 -26.60261286 2.89889747 -19.75390625 -0.53125 C-13.46070162 -2.5510601 -6.1529442 -2.52896435 0 0 Z " fill="#FCF9F6" transform="translate(297.125,207.375)"/>
<path d="M0 0 C6.01150724 4.30403712 11.77633077 9.97263953 13.375 17.4375 C14.40605613 27.98991397 13.13025585 35.72278556 6.75 44.1875 C2.04303961 49.21059952 -3.26716361 52.07893238 -10.13671875 52.8125 C-16.28118793 52.91697557 -21.86234374 52.63279762 -27.625 50.4375 C-27.625 49.7775 -27.625 49.1175 -27.625 48.4375 C-28.676875 48.1590625 -28.676875 48.1590625 -29.75 47.875 C-34.80549047 45.34725477 -38.16764054 40.99078844 -40.5 35.875 C-42.95528156 28.25771083 -42.95702591 19.3934785 -39.6875 12.0625 C-36.21456044 6.08351882 -31.23446551 0.9678731 -24.82421875 -1.75 C-16.77026804 -3.7954478 -7.37487344 -4.20300538 0 0 Z " fill="#FBFAF8" transform="translate(643.625,208.5625)"/>
<path d="M0 0 C3.749566 2.84893495 7.09196646 5.95884309 10.390625 9.31640625 C9.09045739 13.21690907 7.63058587 13.62784482 4.078125 15.56640625 C3.11261719 16.1078125 2.14710938 16.64921875 1.15234375 17.20703125 C-1.609375 18.31640625 -1.609375 18.31640625 -3.77734375 18.11328125 C-5.609375 17.31640625 -5.609375 17.31640625 -8.609375 15.31640625 C-8.609375 14.65640625 -8.609375 13.99640625 -8.609375 13.31640625 C-12.62170997 12.37589673 -16.42910895 12.12005792 -20.546875 12.06640625 C-21.73152344 12.040625 -22.91617188 12.01484375 -24.13671875 11.98828125 C-29.46085503 12.49134924 -33.53920131 14.51839479 -36.984375 18.62890625 C-40.9903951 24.34275597 -40.49444389 30.64024007 -39.609375 37.31640625 C-38.31240291 42.41062439 -36.66436088 45.43725135 -32.609375 48.81640625 C-25.62543187 52.30837782 -16.05820553 52.60835411 -8.609375 50.31640625 C-7.2924083 48.43270154 -7.2924083 48.43270154 -6.609375 46.31640625 C-5.949375 45.65640625 -5.289375 44.99640625 -4.609375 44.31640625 C-0.97274436 44.69455147 1.99623705 46.61954633 5.140625 48.37890625 C6.12546875 48.92675781 7.1103125 49.47460938 8.125 50.0390625 C8.87265625 50.46058594 9.6203125 50.88210937 10.390625 51.31640625 C8.64911027 55.09637601 6.41261253 57.44183275 3.390625 60.31640625 C2.854375 60.91453125 2.318125 61.51265625 1.765625 62.12890625 C0.390625 63.31640625 0.390625 63.31640625 -2.609375 63.31640625 C-2.609375 63.97640625 -2.609375 64.63640625 -2.609375 65.31640625 C-12.97162333 69.83811461 -24.92671844 70.00248342 -35.609375 66.37890625 C-44.78661643 62.27721782 -51.37395213 55.20149303 -55.5703125 46.09375 C-58.20894072 36.50144366 -58.82635842 23.62803067 -54.546875 14.44140625 C-53.15625 12.28125 -53.15625 12.28125 -51.609375 10.31640625 C-51.07828125 9.59582031 -50.5471875 8.87523437 -50 8.1328125 C-37.86846237 -7.03160954 -16.49630611 -10.64357475 0 0 Z " fill="#FCFAF9" transform="translate(248.609375,192.68359375)"/>
<path d="M0 0 C6.85320773 4.94372619 10.35316931 10.05950794 13 18 C13 22.29 13 26.58 13 31 C0.46 31 -12.08 31 -25 31 C-21.72171131 35.81375192 -21.72171131 35.81375192 -19 37 C-17.41907166 37.09667547 -15.83387421 37.12979962 -14.25 37.125 C-13.34765625 37.12242187 -12.4453125 37.11984375 -11.515625 37.1171875 C-8.89236365 37.07781563 -8.89236365 37.07781563 -6 36.25 C-0.60795135 35.80066261 4.25130052 38.62565026 9 41 C7.6791217 45.21388893 6.29056302 47.04869153 2.5 49.3125 C-5.95375752 53.61177589 -16.07311018 53.61843999 -25.1328125 51.14453125 C-32.20033506 47.97819469 -37.68448365 42.40814182 -40.9375 35.375 C-43.33289917 27.72177498 -43.31146699 18.89023945 -40 11.5625 C-36.48113236 5.51879513 -30.91903176 -0.08524454 -24.24609375 -2.56640625 C-16.21902039 -4.11598041 -7.05272819 -4.46193008 0 0 Z " fill="#FBF9F8" transform="translate(473,209)"/>
<path d="M0 0 C4.95 0 9.9 0 15 0 C15 7.92 15 15.84 15 24 C15.66 24 16.32 24 17 24 C17.33 23.01 17.66 22.02 18 21 C23.04213296 17.90966044 29.64040175 18.25342261 35.25 19.5 C41.124815 21.45827167 44.69395091 24.52364897 47.6184082 30.06860352 C49.46849986 34.56404859 49.37932439 38.85212137 49.29296875 43.65234375 C49.28872391 44.55247696 49.28447906 45.45261017 49.28010559 46.38002014 C49.26341816 49.23282786 49.22578497 52.08490863 49.1875 54.9375 C49.1724403 56.88084912 49.15875415 58.82420939 49.14648438 60.76757812 C49.11354726 65.51199549 49.0618344 70.25587483 49 75 C43.72 75 38.44 75 33 75 C32.97494385 73.86457764 32.9498877 72.72915527 32.92407227 71.55932617 C32.82994424 67.34924919 32.72973663 63.13933512 32.62768555 58.92944336 C32.58435713 57.10689096 32.54268053 55.28429852 32.50268555 53.46166992 C32.44493238 50.84281339 32.38125244 48.22415805 32.31640625 45.60546875 C32.29969376 44.78974899 32.28298126 43.97402924 32.26576233 43.1335907 C32.17986755 39.85820456 32.04247866 37.12743599 31 34 C29.25215533 33.86439136 27.50126074 33.76772791 25.75 33.6875 C24.28820312 33.60048828 24.28820312 33.60048828 22.796875 33.51171875 C19.86080815 33.7591081 19.86080815 33.7591081 17.86328125 36.02148438 C15.52727986 39.7556585 15.39772376 42.87029396 15.390625 47.14453125 C15.37408875 47.91431808 15.35755249 48.68410492 15.34051514 49.47721863 C15.29214714 51.92239447 15.27069035 54.36694896 15.25 56.8125 C15.22183075 58.47594253 15.19190198 60.13935626 15.16015625 61.80273438 C15.08309419 65.86877219 15.04247658 69.93286718 15 74 C10.05 74 5.1 74 0 74 C0 49.58 0 25.16 0 0 Z " fill="#FCFAF8" transform="translate(547,187)"/>
<path d="M0 0 C4.95 0 9.9 0 15 0 C15.33 12.87 15.66 25.74 16 39 C16.33 38.34 16.66 37.68 17 37 C17.66 37 18.32 37 19 37 C19.144375 36.38125 19.28875 35.7625 19.4375 35.125 C20 33 20 33 21 31 C21.66 31 22.32 31 23 31 C23.2475 30.319375 23.495 29.63875 23.75 28.9375 C25.21690363 25.49027648 27.1412887 22.25274477 29 19 C34.94 19 40.88 19 47 19 C45.40765253 22.98086868 44.09789419 25.52018053 41.671875 28.90625 C41.03765625 29.81503906 40.4034375 30.72382813 39.75 31.66015625 C38.41146606 33.56076987 37.06238646 35.45399817 35.703125 37.33984375 C35.0740625 38.24863281 34.445 39.15742188 33.796875 40.09375 C32.92047363 41.32641602 32.92047363 41.32641602 32.02636719 42.58398438 C30.69991143 44.9984098 30.69991143 44.9984098 31.76269531 47.61914062 C32.17100586 48.40482422 32.57931641 49.19050781 33 50 C33.33 50.99 33.66 51.98 34 53 C34.66 53 35.32 53 36 53 C39 58.75 39 58.75 39 61 C39.66 61 40.32 61 41 61 C43.04169485 63.90548882 44 65.40142046 44 69 C44.66 69 45.32 69 46 69 C48 72 48 72 48 75 C33.79871482 77.07582591 33.79871482 77.07582591 29.27783203 73.72265625 C26.27652519 70.4474323 24.07832302 66.70508089 21.99365234 62.79980469 C21.00282497 61.00511687 19.90712576 59.34699398 18.73828125 57.6640625 C17 55 17 55 17 53 C16.34 53 15.68 53 15 53 C15 59.93 15 66.86 15 74 C10.05 74 5.1 74 0 74 C0 49.58 0 25.16 0 0 Z " fill="#FCFBFA" transform="translate(492,187)"/>
<path d="M0 0 C1.48831242 0.00667405 2.97660807 0.01863442 4.46484375 0.03515625 C5.22345703 0.03966797 5.98207031 0.04417969 6.76367188 0.04882812 C8.64326246 0.06064945 10.52281274 0.07858547 12.40234375 0.09765625 C12.73234375 2.40765625 13.06234375 4.71765625 13.40234375 7.09765625 C14.17578125 6.20046875 14.17578125 6.20046875 14.96484375 5.28515625 C19.04736589 1.62135433 22.93973902 0.09765625 28.40234375 0.09765625 C28.40234375 6.36765625 28.40234375 12.63765625 28.40234375 19.09765625 C26.81421875 19.24203125 25.22609375 19.38640625 23.58984375 19.53515625 C20.61337749 19.80574409 18.25317171 20.14738026 15.40234375 21.09765625 C14.23567708 23.01432292 14.23567708 23.01432292 13.40234375 25.09765625 C13.07234375 25.75765625 12.74234375 26.41765625 12.40234375 27.09765625 C12.24765008 29.27440408 12.15232269 31.45549105 12.0859375 33.63671875 C12.04404297 34.93867188 12.00214844 36.240625 11.95898438 37.58203125 C11.91917076 38.9622367 11.87945853 40.34244508 11.83984375 41.72265625 C11.79664968 43.1106904 11.7530351 44.49871153 11.70898438 45.88671875 C11.60262441 49.29023754 11.50195457 52.69393325 11.40234375 56.09765625 C6.12234375 56.09765625 0.84234375 56.09765625 -4.59765625 56.09765625 C-4.62229581 48.28312411 -4.6404873 40.46861437 -4.65258789 32.65405273 C-4.65763008 29.99324144 -4.66446361 27.33243293 -4.6730957 24.67163086 C-4.68516634 20.85660109 -4.69088554 17.04160781 -4.6953125 13.2265625 C-4.70047379 12.02866592 -4.70563507 10.83076935 -4.71095276 9.59657288 C-4.71102829 8.49550705 -4.71110382 7.39444122 -4.71118164 6.26000977 C-4.71340225 5.28516129 -4.71562286 4.31031281 -4.71791077 3.30592346 C-4.51521364 -0.41626044 -3.88634589 0.10549256 0 0 Z " fill="#FDFAF8" transform="translate(328.59765625,204.90234375)"/>
<path d="M0 0 C20 0 20 0 27 5 C31.83183779 10.57519745 31.84957613 16.99413629 31.51171875 24.1015625 C30.79678488 29.54815794 29.09343129 33.31511078 25 37 C18 41 18 41 0 41 C0 27.47 0 13.94 0 0 Z " fill="#F55D36" transform="translate(379,204)"/>
<path d="M0 0 C0.79921875 0.00902344 1.5984375 0.01804688 2.421875 0.02734375 C3.02515625 0.03894531 3.6284375 0.05054688 4.25 0.0625 C4.25 0.7225 4.25 1.3825 4.25 2.0625 C4.86875 2.330625 5.4875 2.59875 6.125 2.875 C8.25 4.0625 8.25 4.0625 10.25 7.0625 C10.4453125 9.98046875 10.4453125 9.98046875 10.375 13.25 C10.35695313 14.33667969 10.33890625 15.42335937 10.3203125 16.54296875 C10.29710937 17.37441406 10.27390625 18.20585937 10.25 19.0625 C9.59 19.0625 8.93 19.0625 8.25 19.0625 C8.0025 19.68125 7.755 20.3 7.5 20.9375 C5.99041919 23.50378738 4.9767244 23.95824927 2.25 25.0625 C-2.27455337 25.75858513 -5.7196387 25.67633227 -9.6875 23.3125 C-13.66824193 18.96987244 -14.24754135 15.31426877 -14.13671875 9.54296875 C-13.49523951 5.42843017 -11.84262824 3.80369322 -8.75 1.0625 C-5.80422886 0.04375415 -3.10014561 -0.04559038 0 0 Z " fill="#F55C34" transform="translate(291.75,220.9375)"/>
<path d="M0 0 C5.08742227 0.03644285 7.50326201 0.99162585 11.3125 4.3125 C13.15580721 7.99911442 12.66870938 12.27970094 12.3125 16.3125 C10.74587356 19.99407213 8.8948279 22.47292622 5.3125 24.3125 C-1.01413279 25.03850704 -4.58963158 24.16191085 -9.6875 20.3125 C-10.625 18.125 -10.625 18.125 -10.6875 15.3125 C-10.75839844 14.60480469 -10.82929687 13.89710938 -10.90234375 13.16796875 C-11.20859201 8.66387849 -11.19666111 6.93915982 -8.25 3.3125 C-7.404375 2.6525 -6.55875 1.9925 -5.6875 1.3125 C-4.05640633 -0.31859367 -2.24562778 0.06377717 0 0 Z " fill="#F5613A" transform="translate(628.6875,221.6875)"/>
<path d="M0 0 C11.88 0 23.76 0 36 0 C36 0.33 36 0.66 36 1 C24.45 1 12.9 1 1 1 C1.33 23.77 1.66 46.54 2 70 C11.24 70 20.48 70 30 70 C32.64 70.33 35.28 70.66 38 71 C37.34 71.99 36.68 72.98 36 74 C24.12 74 12.24 74 0 74 C0 49.58 0 25.16 0 0 Z " fill="#FBE0D5" transform="translate(362,187)"/>
<path d="M0 0 C0.33 0 0.66 0 1 0 C1 24.42 1 48.84 1 74 C5.95 74 10.9 74 16 74 C16 67.07 16 60.14 16 53 C16.66 53 17.32 53 18 53 C21.36873976 58.35187963 21.23227769 62.32941391 20.6875 68.375 C20.62626953 69.20644531 20.56503906 70.03789062 20.50195312 70.89453125 C20.34981225 72.93087831 20.17699165 74.96566224 20 77 C19.113125 76.855625 18.22625 76.71125 17.3125 76.5625 C11.56688067 75.81307139 5.77722181 75.44440168 0 75 C0 50.25 0 25.5 0 0 Z " fill="#F87756" transform="translate(491,187)"/>
<path d="M0 0 C3.125 1.75 3.125 1.75 5 4 C5.33 5.32 5.66 6.64 6 8 C-1.26 8 -8.52 8 -16 8 C-12.52313639 -0.69215903 -9.00372008 -1.19786334 0 0 Z " fill="#F45C33" transform="translate(464,220)"/>
<path d="M0 0 C0.66 0 1.32 0 2 0 C4.04169485 2.90548882 5 4.40142046 5 8 C5.66 8 6.32 8 7 8 C9 11 9 11 9 14 C6.22754986 14.13487595 3.46162912 14.23400807 0.6875 14.3125 C-0.49102539 14.3753418 -0.49102539 14.3753418 -1.69335938 14.43945312 C-3.90336375 14.48647449 -5.84148911 14.48367587 -8 14 C-10.04296875 11.48046875 -10.04296875 11.48046875 -11 9 C-6.545 8.505 -6.545 8.505 -2 8 C-2 6.02 -2 4.04 -2 2 C-1.34 2 -0.68 2 0 2 C0 1.34 0 0.68 0 0 Z " fill="#F9ECE5" transform="translate(531,248)"/>
<path d="M0 0 C5.61 0 11.22 0 17 0 C17 0.33 17 0.66 17 1 C11.72 1 6.44 1 1 1 C1 14.53 1 28.06 1 42 C16.89739537 42.17154833 16.89739537 42.17154833 28.4375 34.75 C28.953125 34.1725 29.46875 33.595 30 33 C30.625 35.3125 30.625 35.3125 31 38 C30.34 38.99 29.68 39.98 29 41 C25.375 41.6875 25.375 41.6875 22 42 C22 42.66 22 43.32 22 44 C14.74 43.67 7.48 43.34 0 43 C0 28.81 0 14.62 0 0 Z " fill="#F8CDBD" transform="translate(378,203)"/>
<path d="M0 0 C0.33 0 0.66 0 1 0 C1.33 1.65 1.66 3.3 2 5 C2.66 5 3.32 5 4 5 C4.33 12.92 4.66 20.84 5 29 C5.99 29 6.98 29 8 29 C8 29.66 8 30.32 8 31 C7.34 31 6.68 31 6 31 C5.34 32.98 4.68 34.96 4 37 C3.34 37 2.68 37 2 37 C1.67 37.99 1.34 38.98 1 40 C0.67 40 0.34 40 0 40 C0 26.8 0 13.6 0 0 Z " fill="#F35D3A" transform="translate(507,187)"/>
<path d="M0 0 C6.93 0.495 6.93 0.495 14 1 C14 1.33 14 1.66 14 2 C16.1026706 2.36294314 18.20721057 2.71506972 20.3125 3.0625 C21.48425781 3.25972656 22.65601563 3.45695313 23.86328125 3.66015625 C27.02511876 4.22305698 27.02511876 4.22305698 30 3 C30 3.66 30 4.32 30 5 C30.66 5 31.32 5 32 5 C32 5.66 32 6.32 32 7 C29.01015485 7.85424147 27.48876907 8.20052064 24.5625 7 C21.25931433 5.71095194 19.47535414 6.3442728 16 7 C6.54766956 7.98686647 6.54766956 7.98686647 2.375 4.625 C0 2 0 2 0 0 Z " fill="#F65F38" transform="translate(448,240)"/>
<path d="M0 0 C4.95 0 9.9 0 15 0 C15 0.66 15 1.32 15 2 C11.37 2 7.74 2 4 2 C4.33 24.77 4.66 47.54 5 71 C4.34 70.67 3.68 70.34 3 70 C2.67 48.55 2.34 27.1 2 5 C1.34 4.67 0.68 4.34 0 4 C0 2.68 0 1.36 0 0 Z " fill="#FEFEF2" transform="translate(547,187)"/>
<path d="M0 0 C0.66 0.33 1.32 0.66 2 1 C1.25 3.4375 1.25 3.4375 0 6 C-1.32 6.33 -2.64 6.66 -4 7 C-4 16.9 -4 26.8 -4 37 C-7.18824568 38.59412284 -10.62896662 38.10174735 -14.125 38.0625 C-14.87910156 38.05798828 -15.63320313 38.05347656 -16.41015625 38.04882812 C-18.27347127 38.03703499 -20.13674555 38.01909942 -22 38 C-22 37.67 -22 37.34 -22 37 C-17.05 37 -12.1 37 -7 37 C-7.04640625 34.97617187 -7.0928125 32.95234375 -7.140625 30.8671875 C-7.16845446 28.8912961 -7.19613599 26.91539968 -7.21972656 24.93945312 C-7.23975319 23.57376632 -7.26698332 22.20816431 -7.30175781 20.84277344 C-7.35066432 18.87212898 -7.37091347 16.90084017 -7.390625 14.9296875 C-7.41157227 13.74616699 -7.43251953 12.56264648 -7.45410156 11.34326172 C-6.90239901 7.28142584 -5.549781 5.17312475 -3 2 C-2.01 1.34 -1.02 0.68 0 0 Z " fill="#F79077" transform="translate(347,224)"/>
<path d="M0 0 C0.66 0 1.32 0 2 0 C2 2.31 2 4.62 2 7 C2.99 7.33 3.98 7.66 5 8 C5.33 7.34 5.66 6.68 6 6 C6.66 6 7.32 6 8 6 C7.69365616 10.10465067 7.37887415 14.20861122 7.0625 18.3125 C6.93198242 20.06336914 6.93198242 20.06336914 6.79882812 21.84960938 C6.66831055 23.52700195 6.66831055 23.52700195 6.53515625 25.23828125 C6.456604 26.26993408 6.37805176 27.30158691 6.29711914 28.36450195 C6 31 6 31 5 34 C4.34 34 3.68 34 3 34 C3.15855469 33.50113281 3.31710937 33.00226563 3.48046875 32.48828125 C4.89025495 25.73614733 5.60843715 15.77485267 2.1875 9.625 C0.08914751 6.85425677 0.08914751 6.85425677 -3 5 C-1.125 1.125 -1.125 1.125 0 0 Z " fill="#F8EBE2" transform="translate(405,202)"/>
<path d="M0 0 C0.66 0.33 1.32 0.66 2 1 C2.02685938 3.14576637 2.04633088 5.29162645 2.0625 7.4375 C2.07410156 8.63246094 2.08570313 9.82742187 2.09765625 11.05859375 C2 14 2 14 1 15 C-1.74094208 15.01696765 -4.45347432 14.97095184 -7.19140625 14.87890625 C-8.42116432 14.84348976 -8.42116432 14.84348976 -9.67576599 14.80735779 C-12.30484539 14.73053389 -14.93364395 14.64659081 -17.5625 14.5625 C-19.34048086 14.50929803 -21.1184756 14.45655752 -22.89648438 14.40429688 C-27.26450213 14.27489358 -31.63228082 14.13910335 -36 14 C-36 13.67 -36 13.34 -36 13 C-24.45 13 -12.9 13 -1 13 C-1 10.36 -1 7.72 -1 5 C-0.5 2 -0.5 2 0 0 Z " fill="#F45624" transform="translate(487,227)"/>
<path d="M0 0 C0.33 0 0.66 0 1 0 C1.7901994 6.59923286 2.36278968 11.69922753 0 18 C-0.47440368 21.99117882 -0.75336151 25.98887933 -1 30 C-4.40343665 24.89484503 -4.33431194 19.90637268 -3.22265625 14.0625 C-2.84917817 12.37202026 -2.46226733 10.68445651 -2.0625 9 C-1.86720703 8.12988281 -1.67191406 7.25976562 -1.47070312 6.36328125 C-0.99226776 4.239495 -0.49778711 2.11933396 0 0 Z " fill="#F56441" transform="translate(93,258)"/>
<path d="M0 0 C0.33 0.66 0.66 1.32 1 2 C3.02463255 2.65213292 3.02463255 2.65213292 5 3 C2.64046906 5.35953094 1.22104383 5.49141413 -2 6 C-2.268125 6.94875 -2.53625 7.8975 -2.8125 8.875 C-4 12 -4 12 -7 14 C-7 14.99 -7 15.98 -7 17 C-7.99 17.33 -8.98 17.66 -10 18 C-9.62834433 12.05350921 -7.85341397 7.62169588 -4 3 C-3.34 3 -2.68 3 -2 3 C-2 2.34 -2 1.68 -2 1 C-1.34 0.67 -0.68 0.34 0 0 Z " fill="#F2633D" transform="translate(82,202)"/>
<path d="M0 0 C0.33 0 0.66 0 1 0 C1.16435547 1.30324219 1.16435547 1.30324219 1.33203125 2.6328125 C2.48904626 11.18305961 2.48904626 11.18305961 6 19 C6.33 19.99 6.66 20.98 7 22 C3.62537285 21.45276317 1.91765 20.9451 -1 19 C-1.25073867 16.45082354 -1.32699339 14.16578177 -1.25 11.625 C-1.24484375 10.95210937 -1.2396875 10.27921875 -1.234375 9.5859375 C-1.18202969 6.2620101 -1.01072795 3.17890241 0 0 Z " fill="#F56E46" transform="translate(601,230)"/>
<path d="M0 0 C0.33 0 0.66 0 1 0 C2.0083215 5.00959729 2.15046081 9.79132542 2.125 14.875 C2.12886719 15.63941406 2.13273438 16.40382812 2.13671875 17.19140625 C2.12819559 22.21154831 1.71315867 27.03052929 1 32 C0.67 32 0.34 32 0 32 C-1.7338343 21.5969942 -1.7338343 10.4030058 0 0 Z " fill="#FAEBE1" transform="translate(171,208)"/>
<path d="M0 0 C0.33 0 0.66 0 1 0 C1.33 1.98 1.66 3.96 2 6 C2.33 6 2.66 6 3 6 C4.58624303 13.93121517 4.19306815 20.32426147 2 28 C1.67 28 1.34 28 1 28 C0.07840421 21.78829926 -0.12177385 15.77390894 -0.0625 9.5 C-0.05798828 8.5821875 -0.05347656 7.664375 -0.04882812 6.71875 C-0.03716326 4.47909609 -0.02079614 2.23958455 0 0 Z " fill="#FBF3EC" transform="translate(25,212)"/>
<path d="M0 0 C5.28 0 10.56 0 16 0 C16.33 2.31 16.66 4.62 17 7 C17.66 6.67 18.32 6.34 19 6 C18.67 7.65 18.34 9.3 18 11 C16.68 11 15.36 11 14 11 C13.34 10.01 12.68 9.02 12 8 C11.67 8 11.34 8 11 8 C11 5.69 11 3.38 11 1 C7.37 1 3.74 1 0 1 C0 0.67 0 0.34 0 0 Z " fill="#F8D7CD" transform="translate(325,205)"/>
<path d="M0 0 C0 6.27 0 12.54 0 19 C-1.65 19 -3.3 19 -5 19 C-4.01 18.67 -3.02 18.34 -2 18 C-2 12.72 -2 7.44 -2 2 C-3.98 2.99 -5.96 3.98 -8 5 C-10.875 5.1875 -10.875 5.1875 -13 5 C-8.77614544 1.55834073 -5.49939416 0 0 0 Z " fill="#FAD0C0" transform="translate(357,205)"/>
<path d="M0 0 C0.33 3.63 0.66 7.26 1 11 C0.34 11 -0.32 11 -1 11 C-1.66 10.34 -2.32 9.68 -3 9 C-3.99 9 -4.98 9 -6 9 C-6 7.02 -6 5.04 -6 3 C-6.99 2.67 -7.98 2.34 -9 2 C-5.62902617 0.50178941 -3.79557881 0 0 0 Z " fill="#F9E8DF" transform="translate(87,151)"/>
<path d="M0 0 C0.80244141 0.04833984 1.60488281 0.09667969 2.43164062 0.14648438 C3.68170898 0.2305957 3.68170898 0.2305957 4.95703125 0.31640625 C6.22450195 0.3947168 6.22450195 0.3947168 7.51757812 0.47460938 C9.60189424 0.60414314 11.68576307 0.74083802 13.76953125 0.87890625 C13.76953125 1.20890625 13.76953125 1.53890625 13.76953125 1.87890625 C8.81953125 1.87890625 3.86953125 1.87890625 -1.23046875 1.87890625 C-1.23046875 3.52890625 -1.23046875 5.17890625 -1.23046875 6.87890625 C-1.76671875 6.59015625 -2.30296875 6.30140625 -2.85546875 6.00390625 C-8.56657002 3.29864775 -13.99998599 2.4050359 -20.23046875 1.87890625 C-20.23046875 1.54890625 -20.23046875 1.21890625 -20.23046875 0.87890625 C-19.32683594 0.89050781 -18.42320312 0.90210938 -17.4921875 0.9140625 C-15.72294922 0.92759766 -15.72294922 0.92759766 -13.91796875 0.94140625 C-12.74621094 0.95300781 -11.57445312 0.96460938 -10.3671875 0.9765625 C-6.68954813 0.86206563 -3.71110079 -0.23687877 0 0 Z " fill="#F38062" transform="translate(304.23046875,204.12109375)"/>
<path d="M0 0 C2.93453261 0.36681658 3.86437246 0.86437246 6 3 C3 4 3 4 0 3 C0 3.66 0 4.32 0 5 C-0.66 5 -1.32 5 -2 5 C-2 5.66 -2 6.32 -2 7 C-2.66 7 -3.32 7 -4 7 C-4 7.99 -4 8.98 -4 10 C-9.28 9.67 -14.56 9.34 -20 9 C-20 8.67 -20 8.34 -20 8 C-19.34773437 7.93941406 -18.69546875 7.87882813 -18.0234375 7.81640625 C-16.22055454 7.64356349 -14.418469 7.46224038 -12.6171875 7.2734375 C-10.57988131 7.06058461 -8.54027884 6.86966775 -6.5 6.6875 C-3.86373844 6.2612247 -3.86373844 6.2612247 -2.75 4.0625 C-2.5025 3.381875 -2.255 2.70125 -2 2 C-1.34 1.34 -0.68 0.68 0 0 Z " fill="#F8ECE2" transform="translate(244,237)"/>
<path d="M0 0 C1.4540625 0.0309375 1.4540625 0.0309375 2.9375 0.0625 C2.2775 0.7225 1.6175 1.3825 0.9375 2.0625 C1.4325 2.495625 1.9275 2.92875 2.4375 3.375 C3.9375 5.0625 3.9375 5.0625 3.9375 8.0625 C5.2575 8.3925 6.5775 8.7225 7.9375 9.0625 C7.6075 11.3725 7.2775 13.6825 6.9375 16.0625 C4.77679306 13.90179306 3.56348564 11.60177415 2.08984375 8.94921875 C0.3210105 6.05312906 -1.82582478 3.60982455 -4.0625 1.0625 C-3.0625 0.0625 -3.0625 0.0625 0 0 Z " fill="#F9F2EC" transform="translate(119.0625,199.9375)"/>
<path d="M0 0 C5.06803479 1.84292174 10.1552838 4.1552838 14 8 C9.87831311 9.62950412 7.29299643 10.26264601 3 9 C2 6 1 3 0 0 Z " fill="#F66D4D" transform="translate(56,285)"/>
<path d="M0 0 C0.99 0.33 1.98 0.66 3 1 C3.66 4.3 4.32 7.6 5 11 C6.65 11 8.3 11 10 11 C10 11.66 10 12.32 10 13 C7.36 13.33 4.72 13.66 2 14 C-0.28062828 10.57905758 -0.21925007 9.31812778 -0.125 5.3125 C-0.10695313 4.31863281 -0.08890625 3.32476562 -0.0703125 2.30078125 C-0.04710938 1.54152344 -0.02390625 0.78226562 0 0 Z " fill="#F25C31" transform="translate(107,285)"/>
<path d="M0 0 C0.33 0 0.66 0 1 0 C0.98839844 0.81984375 0.97679687 1.6396875 0.96484375 2.484375 C0.95582031 3.56203125 0.94679688 4.6396875 0.9375 5.75 C0.92589844 6.81734375 0.91429687 7.8846875 0.90234375 8.984375 C0.98489913 11.53368501 1.25382442 13.57933591 2 16 C0.68 15.67 -0.64 15.34 -2 15 C-2 15.66 -2 16.32 -2 17 C-5.96 17 -9.92 17 -14 17 C-14 16.67 -14 16.34 -14 16 C-12.7625 15.7525 -11.525 15.505 -10.25 15.25 C-6.44223364 14.32160467 -4.59593658 12.99531144 -2 10 C-1.34 10 -0.68 10 0 10 C0 6.7 0 3.4 0 0 Z " fill="#F8E0D4" transform="translate(302,230)"/>
<path d="M0 0 C0.33 0 0.66 0 1 0 C1 5.94 1 11.88 1 18 C1.66 18 2.32 18 3 18 C3 19.32 3 20.64 3 22 C2.38125 21.814375 1.7625 21.62875 1.125 21.4375 C-1.04160178 20.76313824 -1.04160178 20.76313824 -3 22 C-2.68905914 19.45813394 -2.37629464 16.91651402 -2.0625 14.375 C-1.97548828 13.66214844 -1.88847656 12.94929687 -1.79882812 12.21484375 C-1.29217395 8.12408039 -0.7110957 4.06157365 0 0 Z " fill="#FAE8DE" transform="translate(109,162)"/>
<path d="M0 0 C0.33 1.32 0.66 2.64 1 4 C0.01 4.33 -0.98 4.66 -2 5 C-1.9592334 5.92337158 -1.9184668 6.84674316 -1.87646484 7.7980957 C-1.7301759 11.22509768 -1.59333689 14.65220663 -1.46289062 18.07983398 C-1.40450225 19.56306078 -1.34235407 21.04614455 -1.27636719 22.52905273 C-1.18215189 24.66103065 -1.10148425 26.79315781 -1.0234375 28.92578125 C-0.97106934 30.20880127 -0.91870117 31.49182129 -0.86474609 32.8137207 C-1 36 -1 36 -3 39 C-3.07424001 34.08873797 -3.12864411 29.17780366 -3.16479492 24.26611328 C-3.17986754 22.59580799 -3.2003292 20.92554219 -3.22631836 19.25537109 C-3.26276973 16.85243987 -3.27974131 14.45003256 -3.29296875 12.046875 C-3.30845261 11.30193787 -3.32393646 10.55700073 -3.33988953 9.78948975 C-3.34125473 5.56947844 -3.02302019 3.05440102 0 0 Z " fill="#F36244" transform="translate(565,222)"/>
<path d="M0 0 C2.4375 0.8125 2.4375 0.8125 5 2 C5.33 2.99 5.66 3.98 6 5 C7.98 5 9.96 5 12 5 C11.34 6.65 10.68 8.3 10 10 C5.01987239 8.49087042 1.75740058 5.44338151 -2 2 C-1.34 1.34 -0.68 0.68 0 0 Z " fill="#F7F2EC" transform="translate(48,275)"/>
<path d="M0 0 C0.66 0 1.32 0 2 0 C4.31215678 3.46823518 3.94181876 4.59431797 3.32861328 8.5390625 C2.66688255 13.49466855 2.61962993 18.50784859 2.4375 23.5 C2.39431641 24.60859375 2.35113281 25.7171875 2.30664062 26.859375 C2.20137786 29.57281506 2.09924154 32.28633417 2 35 C1.67 35 1.34 35 1 35 C1.00523682 34.08186523 1.01047363 33.16373047 1.01586914 32.21777344 C1.03293598 28.80354177 1.04546232 25.38935559 1.05493164 21.97509766 C1.05995288 20.49885339 1.06677116 19.02261408 1.07543945 17.54638672 C1.08760189 15.42153702 1.09325046 13.29675322 1.09765625 11.171875 C1.10289307 9.8940918 1.10812988 8.61630859 1.11352539 7.29980469 C1.02194632 4.6379064 0.80108514 2.51690418 0 0 Z " fill="#EF5E39" transform="translate(576,221)"/>
<path d="M0 0 C3.78734173 0.06949251 5.44786062 0.24080195 8.8125 2.125 C10.6875 4.375 10.6875 4.375 11.6875 8.375 C7.0675 8.375 2.4475 8.375 -2.3125 8.375 C-2.3125 8.045 -2.3125 7.715 -2.3125 7.375 C1.6475 7.375 5.6075 7.375 9.6875 7.375 C9.6875 6.715 9.6875 6.055 9.6875 5.375 C8.73875 5.065625 7.79 4.75625 6.8125 4.4375 C3.6875 3.375 3.6875 3.375 1.6875 2.375 C-0.31204746 2.33245644 -2.31291636 2.33419217 -4.3125 2.375 C-5.3025 2.375 -6.2925 2.375 -7.3125 2.375 C-4.73850489 -0.19899511 -3.57680716 0.04840064 0 0 Z " fill="#F27453" transform="translate(458.3125,219.625)"/>
<path d="M0 0 C0.33 0 0.66 0 1 0 C1 4.95 1 9.9 1 15 C1.66 15 2.32 15 3 15 C3 12.69 3 10.38 3 8 C4.32 8.33 5.64 8.66 7 9 C6.01 9 5.02 9 4 9 C4 9.99 4 10.98 4 12 C7.96 12.33 11.92 12.66 16 13 C16 13.33 16 13.66 16 14 C15.34773437 14.04898438 14.69546875 14.09796875 14.0234375 14.1484375 C13.14945313 14.22320312 12.27546875 14.29796875 11.375 14.375 C10.51648438 14.44460937 9.65796875 14.51421875 8.7734375 14.5859375 C5.40084126 15.00785345 5.40084126 15.00785345 0 17 C0 11.39 0 5.78 0 0 Z " fill="#F3664A" transform="translate(564,192)"/>
<path d="M0 0 C0.33 0 0.66 0 1 0 C1.33 11.55 1.66 23.1 2 35 C2.66 35 3.32 35 4 35 C4 35.66 4 36.32 4 37 C3.34 37 2.68 37 2 37 C1.67 37.99 1.34 38.98 1 40 C0.67 40 0.34 40 0 40 C0 26.8 0 13.6 0 0 Z " fill="#F78A6F" transform="translate(507,187)"/>
<path d="M0 0 C0.66 0 1.32 0 2 0 C2 1.65 2 3.3 2 5 C3.65 5 5.3 5 7 5 C6.360625 5.28875 5.72125 5.5775 5.0625 5.875 C2.84793921 6.82823451 2.84793921 6.82823451 2 9 C3.65 8.67 5.3 8.34 7 8 C7 11 7 11 6 13 C3.69 12.34 1.38 11.68 -1 11 C-0.67 7.37 -0.34 3.74 0 0 Z " fill="#F7EDE3" transform="translate(105,187)"/>
<path d="M0 0 C0.825 0.144375 1.65 0.28875 2.5 0.4375 C4.36236041 0.73680792 6.23022068 1.02003773 8.109375 1.18359375 C10.08380785 1.36013975 12.04466131 1.67411022 14 2 C14.99 3.485 14.99 3.485 16 5 C13.91695462 5.05418326 11.83350232 5.09287551 9.75 5.125 C8.00976562 5.15980469 8.00976562 5.15980469 6.234375 5.1953125 C3.17213954 5.0103949 1.55797249 4.60823023 -1 3 C-0.67 2.01 -0.34 1.02 0 0 Z " fill="#F8F3EE" transform="translate(277,256)"/>
<path d="M0 0 C0.33 0 0.66 0 1 0 C1.36388175 3.12394934 1.71444603 6.24925082 2.0625 9.375 C2.16626953 10.26445312 2.27003906 11.15390625 2.37695312 12.0703125 C2.51713867 13.34648437 2.51713867 13.34648437 2.66015625 14.6484375 C2.74918213 15.43395996 2.83820801 16.21948242 2.92993164 17.02880859 C3 19 3 19 2 21 C-0.475 20.01 -0.475 20.01 -3 19 C-2.34 18.34 -1.68 17.68 -1 17 C-1.32041397 14.39719432 -1.32041397 14.39719432 -2 12 C-1.34 12 -0.68 12 0 12 C0 8.04 0 4.08 0 0 Z " fill="#F2653C" transform="translate(256,223)"/>
<path d="M0 0 C1.32 0 2.64 0 4 0 C3.67 11.88 3.34 23.76 3 36 C2.01 35.67 1.02 35.34 0 35 C0.66 35 1.32 35 2 35 C2 24.44 2 13.88 2 3 C1.34 3 0.68 3 0 3 C0 2.01 0 1.02 0 0 Z " fill="#F95E27" transform="translate(380,205)"/>
<path d="M0 0 C1.32 0 2.64 0 4 0 C4 0.66 4 1.32 4 2 C4.61875 2.268125 5.2375 2.53625 5.875 2.8125 C8 4 8 4 10 7 C9.6221171 10.58988752 8.41575447 13.69657291 7 17 C6.67 17 6.34 17 6 17 C6 13.04 6 9.08 6 5 C4.02 4.01 2.04 3.02 0 2 C0 1.34 0 0.68 0 0 Z " fill="#F0673C" transform="translate(292,221)"/>
<path d="M0 0 C3.64775386 3.88309282 4.58525633 6.71201818 5 12 C2.69 12 0.38 12 -2 12 C-1.01 9.36 -0.02 6.72 1 4 C0.34 3.67 -0.32 3.34 -1 3 C-0.67 2.01 -0.34 1.02 0 0 Z " fill="#F4FCF7" transform="translate(163,188)"/>
<path d="M0 0 C0.33 0.66 0.66 1.32 1 2 C1.99 2 2.98 2 4 2 C4 5.63 4 9.26 4 13 C3.67 12.34 3.34 11.68 3 11 C2.34 11 1.68 11 1 11 C1 9.68 1 8.36 1 7 C0.34 7 -0.32 7 -1 7 C-1.04254356 5.00045254 -1.04080783 2.99958364 -1 1 C-0.67 0.67 -0.34 0.34 0 0 Z " fill="#FBE8E3" transform="translate(68,217)"/>
<path d="M0 0 C0.598125 0.165 1.19625 0.33 1.8125 0.5 C4.11344336 1.1114124 4.11344336 1.1114124 7 1 C8.56406528 1.15127402 10.12659252 1.31902522 11.6875 1.5 C12.49574219 1.5928125 13.30398438 1.685625 14.13671875 1.78125 C14.75160156 1.8534375 15.36648438 1.925625 16 2 C16 2.66 16 3.32 16 4 C12.5321507 5.73392465 8.78231256 5.61299548 5 5 C1.9375 2.5 1.9375 2.5 0 0 Z " fill="#F16842" transform="translate(280,241)"/>
<path d="M0 0 C2 2 2 2 2.125 5.125 C2.08375 6.07375 2.0425 7.0225 2 8 C0.68 7.67 -0.64 7.34 -2 7 C-2.061875 7.763125 -2.12375 8.52625 -2.1875 9.3125 C-3 12 -3 12 -5.4375 13.875 C-6.7059375 14.431875 -6.7059375 14.431875 -8 15 C-8.66 14.67 -9.32 14.34 -10 14 C-8.625 12.5 -8.625 12.5 -7 11 C-6.34 11 -5.68 11 -5 11 C-4.731875 10.29875 -4.46375 9.5975 -4.1875 8.875 C-2.9318551 5.8350176 -1.49764877 2.9272226 0 0 Z " fill="#FCEBE6" transform="translate(125,232)"/>
<path d="M0 0 C1.98 0.66 3.96 1.32 6 2 C4.55746343 5.36591866 2.66735273 7.51047079 0 10 C-1.125 5.25 -1.125 5.25 0 3 C-0.66 2.67 -1.32 2.34 -2 2 C-1.34 1.34 -0.68 0.68 0 0 Z " fill="#F9ECE6" transform="translate(253,242)"/>
<path d="M0 0 C1.32 0.66 2.64 1.32 4 2 C3.01 2.495 3.01 2.495 2 3 C2.20625 4.258125 2.4125 5.51625 2.625 6.8125 C3.21335669 10.4014758 3.16617415 10.75073878 1 14 C0.32741333 11.66836622 -0.33847444 9.3347961 -1 7 C-1.2475 6.2575 -1.495 5.515 -1.75 4.75 C-2 3 -2 3 0 0 Z " fill="#F96943" transform="translate(210,213)"/>
<path d="M0 0 C4.95 0 9.9 0 15 0 C15 0.66 15 1.32 15 2 C11.37 2 7.74 2 4 2 C4 2.99 4 3.98 4 5 C2.68 4.67 1.36 4.34 0 4 C0 2.68 0 1.36 0 0 Z " fill="#FCE5E1" transform="translate(547,187)"/>
<path d="M0 0 C0.66 0 1.32 0 2 0 C2 2.97 2 5.94 2 9 C2.66 9 3.32 9 4 9 C4 7.02 4 5.04 4 3 C4.33 3 4.66 3 5 3 C4.67 8.28 4.34 13.56 4 19 C3.67 19 3.34 19 3 19 C2.49666458 16.39643759 1.99720622 13.79223349 1.5 11.1875 C1.35691406 10.44951172 1.21382813 9.71152344 1.06640625 8.95117188 C0.49073719 5.92205609 0 3.090804 0 0 Z " fill="#F8EFE4" transform="translate(104,253)"/>
<path d="M0 0 C1.65 0.33 3.3 0.66 5 1 C5.25 7.625 5.25 7.625 3 11 C3 9.02 3 7.04 3 5 C1.02 5 -0.96 5 -3 5 C-2.34 4.67 -1.68 4.34 -1 4 C-0.34786708 1.97536745 -0.34786708 1.97536745 0 0 Z " fill="#F9E4DA" transform="translate(89,250)"/>
<path d="M0 0 C2.36574234 3.5486135 2.10865265 4.5764525 1.625 8.6875 C1.51414063 9.68136719 1.40328125 10.67523438 1.2890625 11.69921875 C1.19367188 12.45847656 1.09828125 13.21773437 1 14 C1.66 14.33 2.32 14.66 3 15 C2.01 16.485 2.01 16.485 1 18 C-1.23722343 12.68659435 -1.43924559 7.67954768 -1 2 C-0.67 1.34 -0.34 0.68 0 0 Z " fill="#F26139" transform="translate(209,218)"/>
<path d="M0 0 C0.33 0 0.66 0 1 0 C1.66 5.28 2.32 10.56 3 16 C2.67 15.34 2.34 14.68 2 14 C1.01 14 0.02 14 -1 14 C-1.33 11.36 -1.66 8.72 -2 6 C-1.34 6 -0.68 6 0 6 C0 4.02 0 2.04 0 0 Z " fill="#FCECE0" transform="translate(91,181)"/>
<path d="M0 0 C2.90628214 1.45314107 3.34494081 3.72315241 4.40234375 6.65625 C5.36727422 10.44029105 5.24212919 14.12593299 5 18 C4.01 17.67 3.02 17.34 2 17 C2 13.04 2 9.08 2 5 C1.34 5 0.68 5 0 5 C0 3.35 0 1.7 0 0 Z " fill="#F8572B" transform="translate(121,211)"/>
<path d="M0 0 C0.33 0 0.66 0 1 0 C0.835 1.010625 0.67 2.02125 0.5 3.0625 C-0.34762407 9.66441708 -0.07784918 16.3568696 0 23 C-0.66 22.67 -1.32 22.34 -2 22 C-2.05790353 18.70840684 -2.09356261 15.41694397 -2.125 12.125 C-2.14175781 11.18785156 -2.15851563 10.25070313 -2.17578125 9.28515625 C-2.18544922 7.94130859 -2.18544922 7.94130859 -2.1953125 6.5703125 C-2.20578613 5.74289551 -2.21625977 4.91547852 -2.22705078 4.06298828 C-2 2 -2 2 0 0 Z " fill="#F36B4A" transform="translate(263,219)"/>
<path d="M0 0 C3.59930552 2.62652025 6.07666989 4.93963643 8 9 C7.67 9.66 7.34 10.32 7 11 C5.109375 10.74609375 5.109375 10.74609375 3 10 C1.953125 8.22265625 1.953125 8.22265625 1.25 6.0625 C1.00765625 5.35222656 0.7653125 4.64195312 0.515625 3.91015625 C0 2 0 2 0 0 Z " fill="#F9E9E3" transform="translate(648,213)"/>
<path d="M0 0 C5.28 0.33 10.56 0.66 16 1 C12.36804504 3.42130331 10.61650652 3.21022785 6.3125 3.125 C5.13300781 3.10695312 3.95351563 3.08890625 2.73828125 3.0703125 C1.83464844 3.04710937 0.93101562 3.02390625 0 3 C0 2.01 0 1.02 0 0 Z " fill="#F2592E" transform="translate(379,242)"/>
<path d="M0 0 C0 1.65 0 3.3 0 5 C-0.66 5 -1.32 5 -2 5 C-2 5.66 -2 6.32 -2 7 C-2.66 7 -3.32 7 -4 7 C-4 6.34 -4 5.68 -4 5 C-5.65 4.67 -7.3 4.34 -9 4 C-3 0 -3 0 0 0 Z " fill="#F46541" transform="translate(302,257)"/>
<path d="M0 0 C2.0625 2.125 2.0625 2.125 4 5 C3.85384044 8.72706873 3.65788293 10.34211707 1 13 C1 12.34 1 11.68 1 11 C0.34 11 -0.32 11 -1 11 C-1.33 11.66 -1.66 12.32 -2 13 C-1.47731534 10.23723823 -0.89130413 7.6739124 0 5 C0.03874921 3.33378384 0.0450286 1.66605828 0 0 Z " fill="#FA633D" transform="translate(122,224)"/>
<path d="M0 0 C1.22589844 0.15275391 1.22589844 0.15275391 2.4765625 0.30859375 C3.41628906 0.43427734 3.41628906 0.43427734 4.375 0.5625 C4.375 0.8925 4.375 1.2225 4.375 1.5625 C3.77171875 1.67207031 3.1684375 1.78164062 2.546875 1.89453125 C-3.56184987 3.07047128 -3.56184987 3.07047128 -8.625 6.5625 C-9.285 6.2325 -9.945 5.9025 -10.625 5.5625 C-10.625 4.9025 -10.625 4.2425 -10.625 3.5625 C-9.305 3.2325 -7.985 2.9025 -6.625 2.5625 C-6.625 1.9025 -6.625 1.2425 -6.625 0.5625 C-4.10446405 -0.69776798 -2.7707902 -0.35624445 0 0 Z " fill="#F5F5F0" transform="translate(571.625,217.4375)"/>
<path d="M0 0 C0 2 0 2 -1.5 3.625 C-1.995 4.07875 -2.49 4.5325 -3 5 C-2.01 5.33 -1.02 5.66 0 6 C-0.66 6 -1.32 6 -2 6 C-2 6.66 -2 7.32 -2 8 C-3.98 8.33 -5.96 8.66 -8 9 C-6.68994234 5.06982701 -4.75047804 0 0 0 Z " fill="#FAE8E0" transform="translate(274,210)"/>
<path d="M0 0 C0.721875 0.12375 1.44375 0.2475 2.1875 0.375 C2.5175 1.035 2.8475 1.695 3.1875 2.375 C-0.23596555 5.52458831 -3.25512737 5.93679109 -7.8125 6.375 C-3.50480769 0.46730769 -3.50480769 0.46730769 0 0 Z " fill="#F8F0ED" transform="translate(444.8125,209.625)"/>
<path d="M0 0 C0.33 0.99 0.66 1.98 1 3 C1.66 3 2.32 3 3 3 C3 3.99 3 4.98 3 6 C2.34 6 1.68 6 1 6 C1 6.66 1 7.32 1 8 C0.34 8 -0.32 8 -1 8 C-1.33 9.98 -1.66 11.96 -2 14 C-2.66 14 -3.32 14 -4 14 C-3.52188823 12.22888156 -3.0424722 10.45811517 -2.5625 8.6875 C-2.29566406 7.70136719 -2.02882812 6.71523437 -1.75390625 5.69921875 C-1.21920575 3.78482474 -0.62855462 1.88566385 0 0 Z " fill="#F06D46" transform="translate(171,240)"/>
<path d="M0 0 C0.268125 0.804375 0.53625 1.60875 0.8125 2.4375 C1.204375 3.283125 1.59625 4.12875 2 5 C2.99 5.33 3.98 5.66 5 6 C5.33 6.99 5.66 7.98 6 9 C5.278125 8.690625 4.55625 8.38125 3.8125 8.0625 C1.19692691 7.07439461 -1.25118982 6.4712246 -4 6 C-4.33 5.01 -4.66 4.02 -5 3 C-2.25 0 -2.25 0 0 0 Z " fill="#F26747" transform="translate(247,232)"/>
<path d="M0 0 C0.66 0 1.32 0 2 0 C2 2.31 2 4.62 2 7 C2.66 7.33 3.32 7.66 4 8 C3.34 8.66 2.68 9.32 2 10 C0.35 8.35 -1.3 6.7 -3 5 C-1.125 1.125 -1.125 1.125 0 0 Z " fill="#F5F3EA" transform="translate(405,202)"/>
<path d="M0 0 C-4.455 1.485 -4.455 1.485 -9 3 C-9.99 2.01 -10.98 1.02 -12 0 C-4.5 -2.25 -4.5 -2.25 0 0 Z " fill="#F8F5F0" transform="translate(132,291)"/>
<path d="M0 0 C0.33 0.99 0.66 1.98 1 3 C2.32 2.67 3.64 2.34 5 2 C4.814375 2.94875 4.62875 3.8975 4.4375 4.875 C3.71313368 7.89868793 3.71313368 7.89868793 5 10 C4.0625 12.125 4.0625 12.125 3 14 C-0.44419134 4.58997722 -0.44419134 4.58997722 0 0 Z " fill="#F9EDE0" transform="translate(27,240)"/>
<path d="M0 0 C0.33 0 0.66 0 1 0 C1.66 3.96 2.32 7.92 3 12 C2.34 12 1.68 12 1 12 C1 11.34 1 10.68 1 10 C0.34 10 -0.32 10 -1 10 C-1 8.68 -1 7.36 -1 6 C-1.66 6 -2.32 6 -3 6 C-3 4.68 -3 3.36 -3 2 C-2.34 2 -1.68 2 -1 2 C-0.67 1.34 -0.34 0.68 0 0 Z " fill="#FAEDE7" transform="translate(277,230)"/>
<path d="M0 0 C0.33 0 0.66 0 1 0 C0.45144652 4.571279 -0.41744803 8.67435795 -2 13 C-2.99 12.01 -3.98 11.02 -5 10 C-3.66654496 6.40992874 -2.1056769 3.20429093 0 0 Z " fill="#F26940" transform="translate(527,224)"/>
<path d="M0 0 C2.52259061 1.97420135 2.9929808 2.96745642 3.6875 6.1875 C3.790625 7.115625 3.89375 8.04375 4 9 C2.35 8.67 0.7 8.34 -1 8 C-1 6.35 -1 4.7 -1 3 C-1.66 2.67 -2.32 2.34 -3 2 C-2.01 2 -1.02 2 0 2 C0 1.34 0 0.68 0 0 Z " fill="#F8F3EC" transform="translate(421,205)"/>
<path d="M0 0 C1.74216797 0.02707031 1.74216797 0.02707031 3.51953125 0.0546875 C4.39996094 0.07789063 5.28039062 0.10109375 6.1875 0.125 C6.1875 0.455 6.1875 0.785 6.1875 1.125 C4.95773438 1.18107422 4.95773438 1.18107422 3.703125 1.23828125 C2.62546875 1.30402344 1.5478125 1.36976563 0.4375 1.4375 C-0.62984375 1.49550781 -1.6971875 1.55351562 -2.796875 1.61328125 C-6.04767742 2.16490705 -7.28746118 3.122383 -9.8125 5.125 C-13.0625 4.8125 -13.0625 4.8125 -15.8125 4.125 C-10.33315559 1.28385845 -6.2694622 -0.1266558 0 0 Z " fill="#F5D9CC" transform="translate(227.8125,186.875)"/>
<path d="M0 0 C7.26 0.33 14.52 0.66 22 1 C22 1.33 22 1.66 22 2 C16.06 2.33 10.12 2.66 4 3 C4 2.34 4 1.68 4 1 C2.68 0.67 1.36 0.34 0 0 Z " fill="#F95528" transform="translate(212,185)"/>
<path d="M0 0 C-0.99 0.495 -0.99 0.495 -2 1 C-1.67 1.66 -1.34 2.32 -1 3 C-3.76250036 4.38125018 -5.94731099 4.19079306 -9 4 C-9.66 3.34 -10.32 2.68 -11 2 C-3.57142857 -1.57142857 -3.57142857 -1.57142857 0 0 Z " fill="#F9F4EF" transform="translate(78,155)"/>
<path d="M0 0 C0.33 0 0.66 0 1 0 C1.042721 1.66611905 1.04063832 3.33382885 1 5 C0 6 0 6 -2.5625 6.0625 C-3.7690625 6.0315625 -3.7690625 6.0315625 -5 6 C-5.33 6.99 -5.66 7.98 -6 9 C-6.99 8.34 -7.98 7.68 -9 7 C-7.8125 5 -7.8125 5 -6 3 C-3.3125 2.75 -3.3125 2.75 -1 3 C-0.67 2.01 -0.34 1.02 0 0 Z " fill="#ED673D" transform="translate(165,264)"/>
<path d="M0 0 C0.66 0 1.32 0 2 0 C0.60846256 4.42761914 -1.52071486 6.9556255 -5 10 C-5.66 10 -6.32 10 -7 10 C-7 8.68 -7 7.36 -7 6 C-5.68 6 -4.36 6 -3 6 C-3 5.01 -3 4.02 -3 3 C-2.34 3 -1.68 3 -1 3 C-0.67 2.01 -0.34 1.02 0 0 Z " fill="#F7F0E5" transform="translate(652,246)"/>
<path d="M0 0 C0.66 1.98 1.32 3.96 2 6 C0.02 6.99 0.02 6.99 -2 8 C-2 7.01 -2 6.02 -2 5 C-3.32 5.33 -4.64 5.66 -6 6 C-5.34 4.68 -4.68 3.36 -4 2 C-4.66 1.67 -5.32 1.34 -6 1 C-3.92446352 0.4465236 -2.15634036 0 0 0 Z " fill="#F2704D" transform="translate(486,248)"/>
<path d="M0 0 C0.66 0 1.32 0 2 0 C1.67 1.98 1.34 3.96 1 6 C1.66 6 2.32 6 3 6 C2.25 10.75 2.25 10.75 0 13 C-1.28571429 4.57142857 -1.28571429 4.57142857 0 0 Z " fill="#FBF3EE" transform="translate(163,248)"/>
<path d="M0 0 C0.99 0 1.98 0 3 0 C3 0.99 3 1.98 3 3 C4.98 3 6.96 3 9 3 C9 3.33 9 3.66 9 4 C7.14375 4.1546875 7.14375 4.1546875 5.25 4.3125 C1.7207134 4.73801682 -0.37160966 5.48112592 -3 8 C-3.5625 6.0625 -3.5625 6.0625 -4 4 C-3 3 -3 3 -0.4375 2.9375 C0.7690625 2.9684375 0.7690625 2.9684375 2 3 C2 2.34 2 1.68 2 1 C1.34 0.67 0.68 0.34 0 0 Z " fill="#F9EFE8" transform="translate(452,216)"/>
<path d="M0 0 C-3.75 3 -3.75 3 -6 3 C-6.66 4.32 -7.32 5.64 -8 7 C-8.33 7 -8.66 7 -9 7 C-9 4.69 -9 2.38 -9 0 C-5.93109813 -1.53445094 -3.29905734 -0.54984289 0 0 Z " fill="#ED603A" transform="translate(350,206)"/>
<path d="M0 0 C1.32 0 2.64 0 4 0 C4.33 2.31 4.66 4.62 5 7 C3.68 6.67 2.36 6.34 1 6 C0.67 4.02 0.34 2.04 0 0 Z M0 6 C0.66 6.66 1.32 7.32 2 8 C1.01 7.67 0.02 7.34 -1 7 C-0.67 6.67 -0.34 6.34 0 6 Z " fill="#F4F1EE" transform="translate(524,240)"/>
<path d="M0 0 C0.33 0 0.66 0 1 0 C1.33 6.6 1.66 13.2 2 20 C1.67 19.34 1.34 18.68 1 18 C0.34 18 -0.32 18 -1 18 C-0.505 9.09 -0.505 9.09 0 0 Z " fill="#F58463" transform="translate(426,218)"/>
<path d="M0 0 C0 0.66 0 1.32 0 2 C-0.66 2 -1.32 2 -2 2 C-2.33 4.31 -2.66 6.62 -3 9 C-5.12508244 5.81237635 -5.5020163 3.73487777 -6 0 C-2.25 -1.125 -2.25 -1.125 0 0 Z " fill="#F26C49" transform="translate(173,194)"/>
<path d="M0 0 C-3 2 -3 2 -5 3 C-4.67 3.66 -4.34 4.32 -4 5 C-6.97 4.67 -9.94 4.34 -13 4 C-11.68 3.34 -10.36 2.68 -9 2 C-7.989375 1.443125 -6.97875 0.88625 -5.9375 0.3125 C-3 -1 -3 -1 0 0 Z " fill="#F56D4F" transform="translate(411,257)"/>
<path d="M0 0 C0.33 0.66 0.66 1.32 1 2 C1.66 2.33 2.32 2.66 3 3 C3.625 5.0625 3.625 5.0625 4 7 C1.57333205 8.21333397 -0.33499722 8 -3 8 C-2.45276317 4.62537285 -1.9451 2.91765 0 0 Z " fill="#F9F0EA" transform="translate(436,216)"/>
<path d="M0 0 C0.33 0.66 0.66 1.32 1 2 C3.02463255 2.65213292 3.02463255 2.65213292 5 3 C3 5 3 5 0 5.0625 C-0.99 5.041875 -1.98 5.02125 -3 5 C-3.99 5.495 -3.99 5.495 -5 6 C-4.67 5.01 -4.34 4.02 -4 3 C-3.34 3 -2.68 3 -2 3 C-2 2.34 -2 1.68 -2 1 C-1.34 0.67 -0.68 0.34 0 0 Z " fill="#F26E48" transform="translate(82,202)"/>
<path d="M0 0 C0.33 0.99 0.66 1.98 1 3 C0.34 3 -0.32 3 -1 3 C-0.67 4.32 -0.34 5.64 0 7 C-0.99 7 -1.98 7 -3 7 C-5.1875 4.5 -5.1875 4.5 -7 2 C-5.68 2.33 -4.36 2.66 -3 3 C-3 2.34 -3 1.68 -3 1 C-2.01 0.67 -1.02 0.34 0 0 Z " fill="#F6EBE3" transform="translate(47,268)"/>
<path d="M0 0 C3.3 0.33 6.6 0.66 10 1 C6.99382731 4.00617269 4.17618402 3.59585316 0 4 C-0.33 3.34 -0.66 2.68 -1 2 C-0.67 1.34 -0.34 0.68 0 0 Z " fill="#F8EFE8" transform="translate(632,257)"/>
<path d="M0 0 C0.33 0 0.66 0 1 0 C1.125 7.75 1.125 7.75 0 10 C-1.32 10 -2.64 10 -4 10 C-4 7.36 -4 4.72 -4 2 C-3.34 3.32 -2.68 4.64 -2 6 C-1.34 4.02 -0.68 2.04 0 0 Z " fill="#F9EEE3" transform="translate(645,228)"/>
<path d="M0 0 C0.66 0.33 1.32 0.66 2 1 C1.25 3.4375 1.25 3.4375 0 6 C-1.32303717 6.3721042 -2.65737935 6.70630173 -4 7 C-5.28436734 8.9837767 -5.28436734 8.9837767 -6 11 C-6.3125 8.8125 -6.3125 8.8125 -6 6 C-3.5625 3.25 -3.5625 3.25 -1 1 C-0.67 0.67 -0.34 0.34 0 0 Z " fill="#F27553" transform="translate(347,224)"/>
<path d="M0 0 C0 0.66 0 1.32 0 2 C0.66 2 1.32 2 2 2 C2 2.66 2 3.32 2 4 C-3.94 3.34 -9.88 2.68 -16 2 C-16 1.67 -16 1.34 -16 1 C-13.89594609 0.83191581 -11.79175242 0.66558052 -9.6875 0.5 C-8.51574219 0.4071875 -7.34398437 0.314375 -6.13671875 0.21875 C-4.094806 0.07635011 -2.0468721 0 0 0 Z " fill="#F8D1C3" transform="translate(238,202)"/>
<path d="M0 0 C2.475 0.99 2.475 0.99 5 2 C0.25 5.875 0.25 5.875 -2 7 C-2.33 6.01 -2.66 5.02 -3 4 C-1.5625 1.8125 -1.5625 1.8125 0 0 Z " fill="#FBEFEA" transform="translate(139,281)"/>
<path d="M0 0 C0.99 0.66 1.98 1.32 3 2 C2.34 2 1.68 2 1 2 C0.566875 2.928125 0.566875 2.928125 0.125 3.875 C-1 6 -1 6 -3 8 C-3.33 6.02 -3.66 4.04 -4 2 C-2.68 1.34 -1.36 0.68 0 0 Z " fill="#FCF3F1" transform="translate(343,224)"/>
<path d="M0 0 C1.32 0.33 2.64 0.66 4 1 C4.75 2.6875 4.75 2.6875 5 5 C3.0625 7.75 3.0625 7.75 1 10 C0.39519442 6.5979686 0 3.45631234 0 0 Z " fill="#FAF5F2" transform="translate(72,203)"/>
<path d="M0 0 C0.33 0.66 0.66 1.32 1 2 C0.01 2.495 0.01 2.495 -1 3 C-2.0409066 4.64142963 -3.04504326 6.30712215 -4 8 C-5.32 7.34 -6.64 6.68 -8 6 C-5.36 4.02 -2.72 2.04 0 0 Z " fill="#FBEAE1" transform="translate(61,160)"/>
<path d="M0 0 C0.99 0.33 1.98 0.66 3 1 C3.68132451 2.66072849 4.34742127 4.327767 5 6 C5.99 6.66 6.98 7.32 8 8 C7.67 9.32 7.34 10.64 7 12 C6.0165504 10.56542672 5.03839079 9.12722594 4.0625 7.6875 C3.51722656 6.88699219 2.97195312 6.08648437 2.41015625 5.26171875 C1 3 1 3 0 0 Z " fill="#F9F2E5" transform="translate(32,256)"/>
<path d="M0 0 C1.875 0.875 1.875 0.875 3.875 2.875 C0.875 3.875 0.875 3.875 -2.125 2.875 C-2.125 3.535 -2.125 4.195 -2.125 4.875 C-3.445 4.545 -4.765 4.215 -6.125 3.875 C-2.70224958 -0.15895586 -2.70224958 -0.15895586 0 0 Z " fill="#F8DFD2" transform="translate(246.125,237.125)"/>
<path d="M0 0 C0.99 0 1.98 0 3 0 C2.74438677 2.3431213 2.40729228 4.67843403 2 7 C1.01 7.495 1.01 7.495 0 8 C0 7.34 0 6.68 0 6 C-0.99 5.67 -1.98 5.34 -3 5 C-1.6875 2.5 -1.6875 2.5 0 0 Z " fill="#F9F1EE" transform="translate(469,218)"/>
<path d="M0 0 C7.42857143 -0.28571429 7.42857143 -0.28571429 11 2 C11.33 1.34 11.66 0.68 12 0 C11.67 1.65 11.34 3.3 11 5 C10.484375 4.71125 9.96875 4.4225 9.4375 4.125 C6.37643275 2.71219973 3.25055082 1.8751483 0 1 C0 0.67 0 0.34 0 0 Z " fill="#F1734A" transform="translate(580,206)"/>
<path d="M0 0 C3.3 0 6.6 0 10 0 C10 0.66 10 1.32 10 2 C9.01 2 8.02 2 7 2 C7.33 2.66 7.66 3.32 8 4 C5.36 3.34 2.72 2.68 0 2 C0 1.34 0 0.68 0 0 Z " fill="#F36F4A" transform="translate(234,186)"/>
<path d="M0 0 C0.33 0 0.66 0 1 0 C1.49230769 7.26153846 1.49230769 7.26153846 -1 11 C-1.66 11.66 -2.32 12.32 -3 13 C-3 10.36 -3 7.72 -3 5 C-2.34 5 -1.68 5 -1 5 C-0.67 3.35 -0.34 1.7 0 0 Z " fill="#F97253" transform="translate(660,224)"/>
<path d="M0 0 C0.66 0.33 1.32 0.66 2 1 C1.3125 3.375 1.3125 3.375 0 6 C-2.625 7.3125 -2.625 7.3125 -5 8 C-3.8141763 4.62496331 -2.72426311 2.35277269 0 0 Z " fill="#F07554" transform="translate(283,222)"/>
<path d="M0 0 C4.55384615 -0.36923077 4.55384615 -0.36923077 6.8125 1.5 C7.204375 1.995 7.59625 2.49 8 3 C5.36 3.33 2.72 3.66 0 4 C0 2.68 0 1.36 0 0 Z " fill="#F3F2E7" transform="translate(232,257)"/>
<path d="M0 0 C0.66 0.66 1.32 1.32 2 2 C0.25 5 0.25 5 -2 8 C-3.32 8 -4.64 8 -6 8 C-4.768606 4.30581799 -2.79208646 2.64890254 0 0 Z " fill="#F56440" transform="translate(257,247)"/>
<path d="M0 0 C0.886875 0.78375 1.77375 1.5675 2.6875 2.375 C5.30720519 4.57156991 7.71715601 5.93790341 11 7 C7.62848454 8.12383849 6.31972498 8.16190374 3 7 C0 2.96551724 0 2.96551724 0 0 Z " fill="#F8E9E0" transform="translate(77,242)"/>
<path d="M0 0 C6.0546875 -0.1953125 6.0546875 -0.1953125 8 0 C8.66 0.66 9.32 1.32 10 2 C7.29120665 3.35439668 4.99066732 3.06501451 2 3 C2 2.34 2 1.68 2 1 C1.34 0.67 0.68 0.34 0 0 Z " fill="#F45C36" transform="translate(456,244)"/>
<path d="M0 0 C2.76276177 0.52268466 5.3260876 1.10869587 8 2 C8 2.66 8 3.32 8 4 C5.36 4 2.72 4 0 4 C0 2.68 0 1.36 0 0 Z " fill="#F5592C" transform="translate(624,241)"/>
<path d="M0 0 C0.33 0.99 0.66 1.98 1 3 C0.34 3 -0.32 3 -1 3 C-1 3.66 -1 4.32 -1 5 C-0.34 5 0.32 5 1 5 C0.67 5.99 0.34 6.98 0 8 C-0.66 8 -1.32 8 -2 8 C-2.66 8.66 -3.32 9.32 -4 10 C-4.20086443 6.28400809 -4.1519437 5.22791555 -2 2 C-1.34 2 -0.68 2 0 2 C0 1.34 0 0.68 0 0 Z " fill="#FBEDE7" transform="translate(515,216)"/>
<path d="M0 0 C0.99 0 1.98 0 3 0 C4.2077558 3.62326739 3.54311128 4.64146369 2 8 C1.34 8 0.68 8 0 8 C0 5.36 0 2.72 0 0 Z " fill="#F3633D" transform="translate(431,216)"/>
<path d="M0 0 C-0.66 1.32 -1.32 2.64 -2 4 C-2 3.34 -2 2.68 -2 2 C-4.86724686 2.57344937 -5.8614515 2.8614515 -8 5 C-8.33 4.01 -8.66 3.02 -9 2 C-9.66 1.67 -10.32 1.34 -11 1 C-3.375 0 -3.375 0 0 0 Z " fill="#F8F8EC" transform="translate(539,206)"/>
<path d="M0 0 C-0.99 0 -1.98 0 -3 0 C-3.33 0.66 -3.66 1.32 -4 2 C-4.99 3.485 -4.99 3.485 -6 5 C-7.65 4.67 -9.3 4.34 -11 4 C-4.45754717 -1.33726415 -4.45754717 -1.33726415 0 0 Z " fill="#F37F63" transform="translate(94,198)"/>
<path d="M0 0 C2.91227269 3.28804981 4.49701212 5.59885603 5 10 C3.68 10 2.36 10 1 10 C1.33 8.02 1.66 6.04 2 4 C1.01 3.67 0.02 3.34 -1 3 C-0.67 2.01 -0.34 1.02 0 0 Z " fill="#FBE9DF" transform="translate(163,188)"/>
<path d="M0 0 C0.66 0.33 1.32 0.66 2 1 C2 2.65 2 4.3 2 6 C1.01 5.67 0.02 5.34 -1 5 C-1.66 5.66 -2.32 6.32 -3 7 C-3.66 6.67 -4.32 6.34 -5 6 C-5 5.34 -5 4.68 -5 4 C-3.37373596 2.61767557 -1.7074998 1.28062485 0 0 Z " fill="#F46D4E" transform="translate(149,278)"/>
<path d="M0 0 C0.99 0 1.98 0 3 0 C2.67 3.3 2.34 6.6 2 10 C0 8 0 8 -0.1953125 6.0546875 C-0.13020833 4.03645833 -0.06510417 2.01822917 0 0 Z " fill="#F76540" transform="translate(172,232)"/>
<path d="M0 0 C0.33 0.66 0.66 1.32 1 2 C4.02934491 2.65772428 4.02934491 2.65772428 7 3 C7 3.99 7 4.98 7 6 C4.03 5.505 4.03 5.505 1 5 C0.67 3.35 0.34 1.7 0 0 Z " fill="#EE5D2F" transform="translate(633,225)"/>
<path d="M0 0 C1.65 0 3.3 0 5 0 C5 0.66 5 1.32 5 2 C2.625 3.6875 2.625 3.6875 0 5 C-0.66 4.67 -1.32 4.34 -2 4 C-1.34 2.68 -0.68 1.36 0 0 Z " fill="#F6F3ED" transform="translate(213,204)"/>
<path d="M0 0 C0.33 0.66 0.66 1.32 1 2 C0.0625 4.625 0.0625 4.625 -1 7 C-1.99 7 -2.98 7 -4 7 C-4 7.99 -4 8.98 -4 10 C-4.66 10 -5.32 10 -6 10 C-4.6302836 6.00499382 -2.74277578 3.19990508 0 0 Z " fill="#F7DFCE" transform="translate(42,176)"/>
<path d="M0 0 C-0.33 1.98 -0.66 3.96 -1 6 C-2.98 6 -4.96 6 -7 6 C-5.52522876 2.59668175 -4.14385429 0 0 0 Z " fill="#F8E9DF" transform="translate(53,167)"/>
<path d="M0 0 C0.33 0 0.66 0 1 0 C1.33 1.98 1.66 3.96 2 6 C3.65 6 5.3 6 7 6 C7 6.66 7 7.32 7 8 C4.36 8.33 1.72 8.66 -1 9 C-0.67 6.03 -0.34 3.06 0 0 Z " fill="#EF7756" transform="translate(110,290)"/>
<path d="M0 0 C2.03833424 1.2739589 4.03852126 2.61061923 6 4 C6 4.66 6 5.32 6 6 C4.35 6 2.7 6 1 6 C0.67 4.02 0.34 2.04 0 0 Z " fill="#F6E9DF" transform="translate(586,208)"/>
<path d="M0 0 C2.875 -0.1875 2.875 -0.1875 6 0 C6.66 0.99 7.32 1.98 8 3 C5.39417629 3.93065133 4.35801776 4.14917407 1.75 3.0625 C1.1725 2.711875 0.595 2.36125 0 2 C0 1.34 0 0.68 0 0 Z " fill="#F9F1EC" transform="translate(466,208)"/>
<path d="M0 0 C0.99 0.66 1.98 1.32 3 2 C2.67 2.99 2.34 3.98 2 5 C-0.0625 5.6875 -0.0625 5.6875 -2 6 C-2.33 4.68 -2.66 3.36 -3 2 C-2.01 2 -1.02 2 0 2 C0 1.34 0 0.68 0 0 Z " fill="#F9E4D8" transform="translate(256,200)"/>
<path d="M0 0 C0.99 0 1.98 0 3 0 C2.67 2.64 2.34 5.28 2 8 C0 6 0 6 -0.125 2.875 C-0.08375 1.92625 -0.0425 0.9775 0 0 Z " fill="#FAE9E0" transform="translate(88,269)"/>
<path d="M0 0 C0.66 0 1.32 0 2 0 C1.8125 1.8125 1.8125 1.8125 1 4 C-1.4375 5.8125 -1.4375 5.8125 -4 7 C-4.66 6.67 -5.32 6.34 -6 6 C-4.625 4.5 -4.625 4.5 -3 3 C-2.34 3 -1.68 3 -1 3 C-0.67 2.01 -0.34 1.02 0 0 Z " fill="#F9DACB" transform="translate(121,240)"/>
<path d="M0 0 C0.66 0 1.32 0 2 0 C0.90931332 3.77545388 0.0916909 6.47043472 -3 9 C-3.33 8.34 -3.66 7.68 -4 7 C-3.22265625 5.2734375 -3.22265625 5.2734375 -2.0625 3.375 C-1.381875 2.26125 -0.70125 1.1475 0 0 Z " fill="#F2693F" transform="translate(424,238)"/>
<path d="M0 0 C1.99097846 2.98646769 2.94124926 5.59687262 4 9 C2.68 8.67 1.36 8.34 0 8 C0 5.36 0 2.72 0 0 Z " fill="#F75830" transform="translate(619,232)"/>
<path d="M0 0 C2.31 1.65 4.62 3.3 7 5 C5.68 5.33 4.36 5.66 3 6 C3 5.67 3 5.34 3 5 C1.35 4.67 -0.3 4.34 -2 4 C-1.34 3.67 -0.68 3.34 0 3 C0 2.01 0 1.02 0 0 Z " fill="#F7EBDF" transform="translate(142,164)"/>
<path d="M0 0 C0.99 0 1.98 0 3 0 C2.67 2.31 2.34 4.62 2 7 C1.34 7 0.68 7 0 7 C0 4.69 0 2.38 0 0 Z " fill="#F8F6F1" transform="translate(89,262)"/>
<path d="M0 0 C0.94875 0.350625 1.8975 0.70125 2.875 1.0625 C1.885 1.5575 1.885 1.5575 0.875 2.0625 C0.875 2.7225 0.875 3.3825 0.875 4.0625 C0.215 4.0625 -0.445 4.0625 -1.125 4.0625 C-1.125 3.0725 -1.125 2.0825 -1.125 1.0625 C-2.445 1.3925 -3.765 1.7225 -5.125 2.0625 C-5.125 1.4025 -5.125 0.7425 -5.125 0.0625 C-3.125 -0.9375 -3.125 -0.9375 0 0 Z " fill="#F36841" transform="translate(277.125,258.9375)"/>
<path d="M0 0 C2.475 0.99 2.475 0.99 5 2 C4.67 2.99 4.34 3.98 4 5 C3.01 5.33 2.02 5.66 1 6 C0.67 4.02 0.34 2.04 0 0 Z " fill="#F7F2EA" transform="translate(408,250)"/>
<path d="M0 0 C2.97 0.495 2.97 0.495 6 1 C1.375 5 1.375 5 -2 5 C-1.34 3.35 -0.68 1.7 0 0 Z " fill="#F8EDE7" transform="translate(217,243)"/>
<path d="M0 0 C3.96 1.98 3.96 1.98 8 4 C8 4.33 8 4.66 8 5 C6.02 5.33 4.04 5.66 2 6 C2 5.34 2 4.68 2 4 C1.34 4 0.68 4 0 4 C0 2.68 0 1.36 0 0 Z " fill="#FBF1ED" transform="translate(280,242)"/>
<path d="M0 0 C5.75 0.875 5.75 0.875 8 2 C8 2.66 8 3.32 8 4 C5.125 3.6875 5.125 3.6875 2 3 C1.34 2.01 0.68 1.02 0 0 Z " fill="#F87652" transform="translate(450,243)"/>
<path d="M0 0 C0.66 0 1.32 0 2 0 C4.78637633 4.1795645 3.79562512 6.14668677 3 11 C2.67 11 2.34 11 2 11 C1.34 7.37 0.68 3.74 0 0 Z " fill="#F4784E" transform="translate(576,221)"/>
<path d="M0 0 C4.29 0 8.58 0 13 0 C13 0.33 13 0.66 13 1 C12.31292969 1.06058594 11.62585938 1.12117187 10.91796875 1.18359375 C9.56638672 1.30927734 9.56638672 1.30927734 8.1875 1.4375 C6.84751953 1.55931641 6.84751953 1.55931641 5.48046875 1.68359375 C2.87256441 1.93489767 2.87256441 1.93489767 0 3 C0 2.01 0 1.02 0 0 Z " fill="#FAC7B6" transform="translate(621,221)"/>
<path d="M0 0 C0.99 0 1.98 0 3 0 C3 0.66 3 1.32 3 2 C4.32 2 5.64 2 7 2 C7 2.99 7 3.98 7 5 C4.03824877 4.38722388 2.61941217 3.74627478 0 2 C0 1.34 0 0.68 0 0 Z " fill="#F6EAE1" transform="translate(240,206)"/>
<path d="M0 0 C0 0.66 0 1.32 0 2 C-4.43076923 4.09230769 -4.43076923 4.09230769 -7.3125 3.625 C-7.869375 3.41875 -8.42625 3.2125 -9 3 C-3.375 0 -3.375 0 0 0 Z " fill="#F9DFD2" transform="translate(353,206)"/>
<path d="M0 0 C1.32 0.66 2.64 1.32 4 2 C-0.12168689 3.62950412 -2.70700357 4.26264601 -7 3 C-7 2.67 -7 2.34 -7 2 C-4.69 2 -2.38 2 0 2 C0 1.34 0 0.68 0 0 Z " fill="#ED6940" transform="translate(66,291)"/>
<path d="M0 0 C1.32 1.32 2.64 2.64 4 4 C3.67 4.99 3.34 5.98 3 7 C2.01 7 1.02 7 0 7 C0 4.69 0 2.38 0 0 Z " fill="#F3714F" transform="translate(36,264)"/>
<path d="M0 0 C0.66 0 1.32 0 2 0 C2 0.66 2 1.32 2 2 C2.66 2 3.32 2 4 2 C5.625 3.5 5.625 3.5 7 5 C6.67 5.99 6.34 6.98 6 8 C1.125 3.375 1.125 3.375 0 0 Z " fill="#FCE6DD" transform="translate(511,244)"/>
<path d="M0 0 C1.32 1.65 2.64 3.3 4 5 C3.67 5.66 3.34 6.32 3 7 C2.01 7 1.02 7 0 7 C-1.125 2.25 -1.125 2.25 0 0 Z " fill="#F9EAE4" transform="translate(73,235)"/>
<path d="M0 0 C0.66 0.33 1.32 0.66 2 1 C1.34 1.66 0.68 2.32 0 3 C-0.69748583 4.31747324 -1.36959957 5.64914193 -2 7 C-2 6.34 -2 5.68 -2 5 C-2.99 5.33 -3.98 5.66 -5 6 C-3.63016497 2.83884224 -3.0109362 2.0072908 0 0 Z " fill="#EF6B48" transform="translate(624,222)"/>
<path d="M0 0 C1.32 0.66 2.64 1.32 4 2 C2.35 3.32 0.7 4.64 -1 6 C-1.66 5.67 -2.32 5.34 -3 5 C-1.125 1.125 -1.125 1.125 0 0 Z " fill="#F56D50" transform="translate(243,210)"/>
<path d="M0 0 C0.99 0.33 1.98 0.66 3 1 C3 2.32 3 3.64 3 5 C1.35 5.33 -0.3 5.66 -2 6 C-1.34 4.02 -0.68 2.04 0 0 Z " fill="#FBF0EE" transform="translate(300,210)"/>
<path d="M0 0 C-0.57344937 2.86724686 -0.8614515 3.8614515 -3 6 C-3.66 4.35 -4.32 2.7 -5 1 C-3 0 -3 0 0 0 Z " fill="#F5683F" transform="translate(518,210)"/>
<path d="M0 0 C2.31 0.33 4.62 0.66 7 1 C6.34 2.32 5.68 3.64 5 5 C3.35 3.35 1.7 1.7 0 0 Z " fill="#F36C47" transform="translate(473,209)"/>
<path d="M0 0 C0 0.66 0 1.32 0 2 C-2.64 2 -5.28 2 -8 2 C-6.14210462 -1.71579076 -3.44525918 -1.06921837 0 0 Z " fill="#FA7250" transform="translate(634,204)"/>
</svg>
