<?xml version="1.0" encoding="UTF-8"?>
<svg version="1.1" xmlns="http://www.w3.org/2000/svg" width="225" height="225">
<path d="M0 0 C74.25 0 148.5 0 225 0 C225 74.25 225 148.5 225 225 C150.75 225 76.5 225 0 225 C0 150.75 0 76.5 0 0 Z " fill="#3B73B9" transform="translate(0,0)"/>
<path d="M0 0 C74.25 0 148.5 0 225 0 C225 74.25 225 148.5 225 225 C150.75 225 76.5 225 0 225 C0 150.75 0 76.5 0 0 Z M41.93359375 45.40234375 C30.91151373 60.22173993 23.67151124 80.41913007 26 99 C27.39924303 103.95346997 29.9345248 107.92819136 32.75 112.1875 C34.9473294 115.5815288 35.66941483 117.88788036 35 122 C34.34 122.99 33.68 123.98 33 125 C28.0831332 125.64483499 26.11262276 125.8465608 22.125 122.8125 C18.94434959 118.60281564 17.74805433 115.12689075 17.734375 109.8671875 C17.73050781 108.40925781 17.73050781 108.40925781 17.7265625 106.921875 C17.73429687 105.91640625 17.74203125 104.9109375 17.75 103.875 C17.74226563 102.89273438 17.73453125 101.91046875 17.7265625 100.8984375 C17.74452657 94.07208987 18.56227189 87.66955192 20 81 C17.51737232 83.48262768 17.25826263 85.23022263 16.4375 88.625 C16.18871094 89.62789063 15.93992187 90.63078125 15.68359375 91.6640625 C10.72399971 115.86688142 14.42441318 143.09231558 28 164 C30.49734069 167.49733516 33.16185099 170.77435463 36 174 C36.67804687 174.7734375 37.35609375 175.546875 38.0546875 176.34375 C51.15214542 190.35275261 70.39516696 198.59863765 89.46289062 199.45483398 C99.19024164 199.65232739 105.3974368 197.27490074 113.25 191.6875 C116.50003741 189.69315886 118.25195121 189.41697019 122 190 C124.61553937 191.62343823 124.97796437 192.93242407 125.9375 195.875 C126 199 126 199 124.5 201.6875 C118.4155322 207.31563271 112.22341923 207.45857271 104.3125 207.3125 C103.3416748 207.30412109 102.37084961 207.29574219 101.37060547 207.28710938 C94.41929268 207.17092497 87.78313985 206.60276722 81 205 C81.33 205.66 81.66 206.32 82 207 C89.43607282 209.34410139 97.22075293 210.64305749 105 211 C106.31613281 211.06445312 107.63226563 211.12890625 108.98828125 211.1953125 C131.60559772 211.93940174 156.33871088 205.1813297 173.3125 189.6875 C187.98385118 175.71410631 198.61079871 156.20979999 199.54052734 135.56982422 C199.63674702 126.50593116 197.70552107 120.44697176 192.25 113.375 C190.26044127 110.72020182 189.97140614 109.81255133 189.4375 106.3125 C190 103 190 103 191.625 100.5 C194 99 194 99 196.9375 98.9375 C201.36239245 100.47266677 203.87447009 102.95216086 206.125 107.046875 C207.40526999 111.36778622 207.2945603 115.51731333 207.25 120 C207.24613281 120.93030029 207.24226562 121.86060059 207.23828125 122.8190918 C207.14824516 130.03510948 206.47062199 136.92263166 205 144 C205.66 144 206.32 144 207 144 C207.48362696 141.83432456 207.96167317 139.66740259 208.4375 137.5 C208.70433594 136.2934375 208.97117188 135.086875 209.24609375 133.84375 C214.20617075 108.55506724 210.21252978 81.77938591 196 60 C182.51919016 41.46388646 165.30341397 31.84052174 143.4296875 26.35546875 C132.00584044 24.68413421 122.81793387 25.57431949 113.375 32.1875 C110.56389822 34.12769245 109.10403011 34.98037168 105.6875 35.625 C102.20808249 34.81583314 100.93559766 34.01953235 99 31 C98.9375 27.5 98.9375 27.5 100 24 C104.23133615 19.76866385 108.18340586 17.74944567 114.140625 17.734375 C115.12933594 17.73179688 116.11804688 17.72921875 117.13671875 17.7265625 C118.16410156 17.73429687 119.19148438 17.74203125 120.25 17.75 C121.76787109 17.73839844 121.76787109 17.73839844 123.31640625 17.7265625 C127.88024412 17.73840125 132.06917865 17.86282072 136.484375 19.078125 C139.8844401 19.96969763 140.83831191 19.99030384 144 19 C108.09015891 6.32593844 66.86966123 16.41239763 41.93359375 45.40234375 Z " fill="#FDFEFE" transform="translate(0,0)"/>
<path d="M0 0 C7.30658427 6.77454224 13.96674007 13.78936603 19.14599609 22.34863281 C19.79955078 23.39277344 20.45310547 24.43691406 21.12646484 25.51269531 C36.35624106 50.45530248 40.86627167 79.92636493 34.14599609 108.34863281 C27.43589224 135.61168072 11.2050864 159.89812907 -12.45166016 175.32519531 C-40.46571287 191.98567672 -70.28685733 197.45434763 -102.22900391 189.66113281 C-120.47921414 184.51703211 -136.23939954 175.59214064 -149.85400391 162.34863281 C-150.60037109 161.66414062 -151.34673828 160.97964844 -152.11572266 160.27441406 C-172.33450959 141.18477404 -182.81869234 113.96226238 -184.14306641 86.50097656 C-184.97911848 56.57092245 -174.03814559 28.73203063 -153.67822266 6.89550781 C-147.59842144 0.55054673 -141.38444279 -5.05501042 -133.85400391 -9.65136719 C-132.80857422 -10.30621094 -131.76314453 -10.96105469 -130.68603516 -11.63574219 C-117.96100348 -19.39236933 -104.55807295 -24.16041238 -89.85400391 -26.65136719 C-89.09216797 -26.78285156 -88.33033203 -26.91433594 -87.54541016 -27.04980469 C-56.57976826 -31.38148238 -23.2572454 -20.71530259 0 0 Z M-143.92041016 15.75097656 C-154.94249018 30.57037274 -162.18249267 50.76776288 -159.85400391 69.34863281 C-158.45476088 74.30210278 -155.91947911 78.27682417 -153.10400391 82.53613281 C-150.9066745 85.93016161 -150.18458908 88.23651317 -150.85400391 92.34863281 C-151.51400391 93.33863281 -152.17400391 94.32863281 -152.85400391 95.34863281 C-157.77087071 95.9934678 -159.74138114 96.19519361 -163.72900391 93.16113281 C-166.90965431 88.95144845 -168.10594957 85.47552356 -168.11962891 80.21582031 C-168.12349609 78.75789063 -168.12349609 78.75789063 -168.12744141 77.27050781 C-168.11970703 76.26503906 -168.11197266 75.25957031 -168.10400391 74.22363281 C-168.11173828 73.24136719 -168.11947266 72.25910156 -168.12744141 71.24707031 C-168.10947733 64.42072268 -167.29173201 58.01818473 -165.85400391 51.34863281 C-168.33663158 53.83126049 -168.59574128 55.57885544 -169.41650391 58.97363281 C-169.66529297 59.97652344 -169.91408203 60.97941406 -170.17041016 62.01269531 C-175.1300042 86.21551424 -171.42959073 113.44094839 -157.85400391 134.34863281 C-155.35666322 137.84596797 -152.69215292 141.12298744 -149.85400391 144.34863281 C-149.17595703 145.12207031 -148.49791016 145.89550781 -147.79931641 146.69238281 C-134.70185849 160.70138542 -115.45883695 168.94727047 -96.39111328 169.8034668 C-86.66376227 170.00096021 -80.45656711 167.62353355 -72.60400391 162.03613281 C-69.35396649 160.04179167 -67.6020527 159.765603 -63.85400391 160.34863281 C-61.23846453 161.97207104 -60.87603953 163.28105688 -59.91650391 166.22363281 C-59.85400391 169.34863281 -59.85400391 169.34863281 -61.35400391 172.03613281 C-67.4384717 177.66426552 -73.63058468 177.80720552 -81.54150391 177.66113281 C-82.5123291 177.65275391 -83.4831543 177.644375 -84.48339844 177.63574219 C-91.43471123 177.51955779 -98.07086406 176.95140003 -104.85400391 175.34863281 C-104.52400391 176.00863281 -104.19400391 176.66863281 -103.85400391 177.34863281 C-96.41793109 179.6927342 -88.63325098 180.9916903 -80.85400391 181.34863281 C-79.53787109 181.41308594 -78.22173828 181.47753906 -76.86572266 181.54394531 C-54.24840619 182.28803455 -29.51529303 175.52996251 -12.54150391 160.03613281 C2.12984727 146.06273912 12.7567948 126.5584328 13.68652344 105.91845703 C13.78274311 96.85456397 11.85151717 90.79560457 6.39599609 83.72363281 C4.40643737 81.06883463 4.11740223 80.16118414 3.58349609 76.66113281 C4.14599609 73.34863281 4.14599609 73.34863281 5.77099609 70.84863281 C8.14599609 69.34863281 8.14599609 69.34863281 11.08349609 69.28613281 C15.50838855 70.82129958 18.02046619 73.30079367 20.27099609 77.39550781 C21.55126608 81.71641903 21.44055639 85.86594614 21.39599609 90.34863281 C21.39212891 91.27893311 21.38826172 92.2092334 21.38427734 93.16772461 C21.29424125 100.3837423 20.61661809 107.27126447 19.14599609 114.34863281 C19.80599609 114.34863281 20.46599609 114.34863281 21.14599609 114.34863281 C21.62962305 112.18295737 22.10766927 110.0160354 22.58349609 107.84863281 C22.85033203 106.64207031 23.11716797 105.43550781 23.39208984 104.19238281 C28.35216685 78.90370005 24.35852587 52.12801872 10.14599609 30.34863281 C-3.33481375 11.81251928 -20.55058994 2.18915455 -42.42431641 -3.29589844 C-53.84816346 -4.96723297 -63.03607003 -4.0770477 -72.47900391 2.53613281 C-75.29010569 4.47632526 -76.7499738 5.32900449 -80.16650391 5.97363281 C-83.64592142 5.16446595 -84.91840624 4.36816517 -86.85400391 1.34863281 C-86.91650391 -2.15136719 -86.91650391 -2.15136719 -85.85400391 -5.65136719 C-81.62266775 -9.88270334 -77.67059805 -11.90192152 -71.71337891 -11.91699219 C-70.72466797 -11.91957031 -69.73595703 -11.92214844 -68.71728516 -11.92480469 C-67.68990234 -11.91707031 -66.66251953 -11.90933594 -65.60400391 -11.90136719 C-64.08613281 -11.91296875 -64.08613281 -11.91296875 -62.53759766 -11.92480469 C-57.97375979 -11.91296594 -53.78482526 -11.78854647 -49.36962891 -10.57324219 C-45.9695638 -9.68166956 -45.015692 -9.66106335 -41.85400391 -10.65136719 C-77.763845 -23.32542875 -118.98434268 -13.23896956 -143.92041016 15.75097656 Z " fill="#FAFBFD" transform="translate(185.85400390625,29.6513671875)"/>
<path d="M0 0 C3.58552881 1.63687185 4.79315055 2.68972583 7 6 C8.65058172 14.36400545 5.4340609 21.07006565 1 28 C-4.28349964 35.14530428 -10.11349151 39.94972633 -18 44 C-17.67 44.99 -17.34 45.98 -17 47 C-11.74177473 47.5477318 -8.2716957 46.85394251 -3.84375 43.890625 C-0.78654221 40.75569159 0.29985027 36.88488734 1.7890625 32.83203125 C3.53159513 28.75675333 5.15439677 27.16315181 9 25 C13.18604651 25.18604651 13.18604651 25.18604651 15 27 C14.88124485 32.8190025 13.03054009 35.67556881 9.43359375 40.15234375 C6.40241483 44.05901304 5.92016482 47.18593883 6 52 C9.10455656 50.04228424 12.20857746 48.0837208 15.3125 46.125 C16.63411133 45.29162109 16.63411133 45.29162109 17.98242188 44.44140625 C18.82998047 43.90644531 19.67753906 43.37148437 20.55078125 42.8203125 C21.33106689 42.32805176 22.11135254 41.83579102 22.9152832 41.32861328 C24.62362105 40.23987051 26.3144503 39.1236998 28 38 C28.28352651 35.44527691 28.41068105 33.05800323 28.4375 30.5 C28.79350112 20.89333132 31.18553707 12.14068722 38 5 C42.61687949 1.01085413 46.80945529 -0.78352845 52.94921875 -0.43359375 C56.07228054 0.22671074 57.84538561 1.71072221 60 4 C62.10328214 8.20656428 61.68248338 13.73053721 60.3515625 18.15625 C56.18420882 27.13208869 48.85651178 33.29912977 41 39 C41.99816696 41.61962165 41.99816696 41.61962165 44 44 C47.29410647 44.4936303 47.29410647 44.4936303 50.9375 44.125 C57.50408176 43.69689477 57.50408176 43.69689477 60.44140625 45.4921875 C60.95574219 45.98976562 61.47007812 46.48734375 62 47 C61.8125 49.375 61.8125 49.375 61 52 C56.93999319 54.22694403 53.24654091 54.19411799 48.6875 54.25 C42.95932587 54.49358967 38.91015821 55.26432397 34.578125 59.19140625 C28.08349514 66.63450928 25.4993811 73.95432685 25.68359375 83.828125 C26.33304295 90.3386528 28.30729498 95.91667075 32.4375 101 C33.283125 101.66 34.12875 102.32 35 103 C35.70125 103.598125 36.4025 104.19625 37.125 104.8125 C42.71023368 107.11944435 48.70487245 106.76504252 54.375 104.875 C58.44666495 101.96666789 61.38678079 98.83965762 63 94 C63.1447963 92.04524991 63.22067502 90.0848862 63.25 88.125 C63.27578125 87.09632813 63.3015625 86.06765625 63.328125 85.0078125 C62.95207858 81.5607203 62.06101514 79.76407171 60 77 C56.50875983 74.67250655 55.10777749 74.49700684 51 75 C48.43661311 76.47993156 48.43661311 76.47993156 47 79 C47.07115496 82.41543803 47.49195698 84.32938321 49.5625 87.0625 C51.3887384 89.52395176 51.32400561 91.00294806 51 94 C50 95 50 95 46.75 95.375 C43 95 43 95 40.1875 92.8125 C36.75035279 88.39331072 35.45252403 84.82358048 35.625 79.12109375 C36.59896463 73.6121063 39.84080055 69.94628526 44.0625 66.5 C49.98981957 63.57533574 57.23517364 64.1295917 63.375 66.0625 C69.78000152 70.79000112 73.41630273 76.16069852 75 84 C75.95101296 91.63452072 74.64564893 98.49795603 69.97265625 104.68359375 C64.14377459 111.36595558 58.447811 116.4657528 49.265625 117.2265625 C38.70986793 117.52126638 30.80878008 115.26513083 23 108 C15.34004238 99.9414473 13.44841659 90.9323517 13.51220703 80.04077148 C13.95246005 68.87495322 18.9321534 60.46788932 27 53 C31.93224932 49 31.93224932 49 35 49 C34.34 48.01 33.68 47.02 33 46 C28.34823369 47.58623449 24.63621171 50.1122578 20.625 52.875 C7.30304154 62 7.30304154 62 4 62 C4.04640625 62.72960937 4.0928125 63.45921875 4.140625 64.2109375 C4.62559184 78.24033527 1.97998563 92.24994241 -6 104 C-6.37769531 104.58910156 -6.75539062 105.17820312 -7.14453125 105.78515625 C-11.10704871 111.25987119 -18.32196349 115.80608778 -25 117 C-31.31228256 117.75146221 -36.08355334 117.33612509 -41.3046875 113.53125 C-45.10721617 110.09670798 -46.67493955 107.19183617 -47.41015625 102.234375 C-47.84561154 93.52526929 -45.56072092 87.45090115 -40.15625 80.6953125 C-31.01326643 70.83590111 -18.06895079 63.75681548 -6 58 C-5.34 58 -4.68 58 -4 58 C-4 56.35 -4 54.7 -4 53 C-4.969375 53.495 -5.93875 53.99 -6.9375 54.5 C-11.27868632 56.32786792 -15.34998329 56.92154877 -20 56 C-23.54409919 54.03189385 -25.75650031 51.36524954 -28 48 C-28 47.01 -28 46.02 -28 45 C-28.86625 44.9175 -29.7325 44.835 -30.625 44.75 C-35.22027978 43.72882671 -38.49360755 42.13870533 -41.265625 38.203125 C-44.34501773 32.60817201 -44.7229577 28.07257024 -43.25 21.8125 C-41.88390528 18.73878688 -40.71197643 16.99410031 -38 15 C-35.8671875 15.40234375 -35.8671875 15.40234375 -34 16 C-34.02320312 17.12019531 -34.04640625 18.24039063 -34.0703125 19.39453125 C-34.08907237 20.86718084 -34.10727234 22.33983763 -34.125 23.8125 C-34.14175781 24.55048828 -34.15851563 25.28847656 -34.17578125 26.04882812 C-34.21074628 29.91246426 -34.19397555 31.70903668 -32 35 C-31.01 35.33 -30.02 35.66 -29 36 C-28.97873047 35.12601563 -28.97873047 35.12601563 -28.95703125 34.234375 C-28.30758422 23.07090711 -23.86149559 12.99197685 -16 5 C-10.83830662 0.58457555 -6.75288898 -0.88562478 0 0 Z " fill="#F9FBFC" transform="translate(99,53)"/>
<path d="M0 0 C7.30658427 6.77454224 13.96674007 13.78936603 19.14599609 22.34863281 C19.79955078 23.39277344 20.45310547 24.43691406 21.12646484 25.51269531 C36.35624106 50.45530248 40.86627167 79.92636493 34.14599609 108.34863281 C27.43589224 135.61168072 11.2050864 159.89812907 -12.45166016 175.32519531 C-40.46571287 191.98567672 -70.28685733 197.45434763 -102.22900391 189.66113281 C-120.47921414 184.51703211 -136.23939954 175.59214064 -149.85400391 162.34863281 C-150.60037109 161.66414062 -151.34673828 160.97964844 -152.11572266 160.27441406 C-172.33450959 141.18477404 -182.81869234 113.96226238 -184.14306641 86.50097656 C-184.97911848 56.57092245 -174.03814559 28.73203063 -153.67822266 6.89550781 C-147.59842144 0.55054673 -141.38444279 -5.05501042 -133.85400391 -9.65136719 C-132.80857422 -10.30621094 -131.76314453 -10.96105469 -130.68603516 -11.63574219 C-117.96100348 -19.39236933 -104.55807295 -24.16041238 -89.85400391 -26.65136719 C-89.09216797 -26.78285156 -88.33033203 -26.91433594 -87.54541016 -27.04980469 C-56.57976826 -31.38148238 -23.2572454 -20.71530259 0 0 Z M-105.85400391 -17.65136719 C-106.94583984 -17.30074219 -108.03767578 -16.95011719 -109.16259766 -16.58886719 C-135.40836967 -7.51469871 -156.3536046 12.9826588 -168.92236328 37.390625 C-175.39162848 50.98693184 -178.21883425 64.55128558 -178.16967773 79.57861328 C-178.16653093 81.58143555 -178.19081349 83.5842394 -178.21533203 85.58691406 C-178.22820166 111.71226372 -168.1859609 135.09746423 -150.85400391 154.34863281 C-150.10763672 155.18910156 -149.36126953 156.02957031 -148.59228516 156.89550781 C-133.33957826 173.13144705 -109.15277856 186.29282149 -86.61865234 187.52563477 C-51.30571877 188.11764294 -23.73419552 181.16571312 2.70849609 156.16113281 C23.30092211 134.83457396 32.06387816 108.14495525 31.66796875 78.99243164 C31.05247373 50.92804355 19.00711971 27.01416654 -0.16650391 6.72363281 C-23.88790889 -15.97110544 -52.34612736 -22.50997633 -84.23883057 -21.89289856 C-91.95578547 -21.66763581 -98.60484042 -20.27800092 -105.85400391 -17.65136719 Z " fill="#4077BB" transform="translate(185.85400390625,29.6513671875)"/>
<path d="M0 0 C0.2556823 5.55926378 -0.57224935 10.12855118 -2.1875 15.4375 C-2.41308594 16.18741211 -2.63867188 16.93732422 -2.87109375 17.70996094 C-5.43138524 25.86377814 -9.21901676 33.56527356 -16.8671875 38.109375 C-20.51935298 39.63445509 -24.11897071 39.57333387 -28 39 C-30.0625 37.5 -30.0625 37.5 -31 35 C-31.99193223 28.60754786 -30.40275416 24.79889819 -26.8828125 19.4453125 C-22.1864322 13.34586423 -8.41438121 0 0 0 Z " fill="#3B73B9" transform="translate(93,121)"/>
<path d="M0 0 C0.8353125 0.37125 0.8353125 0.37125 1.6875 0.75 C1.6875 9.40402885 -1.70674892 14.3207492 -7.3125 20.75 C-13.37019231 26.75 -13.37019231 26.75 -15.3125 26.75 C-15.77896337 20.70178851 -14.4096085 16.88675144 -11.625 11.5625 C-11.28533203 10.86447266 -10.94566406 10.16644531 -10.59570312 9.44726562 C-5.48483887 -0.59295555 -5.48483887 -0.59295555 0 0 Z " fill="#3E75BA" transform="translate(95.3125,61.25)"/>
<path d="M0 0 C0.7425 0.2475 1.485 0.495 2.25 0.75 C1.41914256 9.47400311 -4.65954019 15.81773395 -10.75 21.75 C-11.41 21.75 -12.07 21.75 -12.75 21.75 C-12.30589567 13.756122 -9.52379796 7.477291 -4.75 1.0625 C-2.75 -0.25 -2.75 -0.25 0 0 Z " fill="#4278BB" transform="translate(149.75,61.25)"/>
<path d="M0 0 C14.39765752 -0.31720665 28.25325044 0.14820604 42 5 C38.33029244 6.14728549 36.13859205 5.50527297 32.45703125 4.48925781 C27.37410978 3.47711804 22.16063915 3.79815199 17 3.875 C15.26556641 3.88853516 15.26556641 3.88853516 13.49609375 3.90234375 C10.66384353 3.92575078 7.83203381 3.95854005 5 4 C5 3.34 5 2.68 5 2 C3.02 2 1.04 2 -1 2 C-0.67 1.34 -0.34 0.68 0 0 Z " fill="#6692C8" transform="translate(102,14)"/>
<path d="M0 0 C0.66 0.33 1.32 0.66 2 1 C2.36795425 13.41504908 1.58779379 24.85211828 -1 37 C-1.33459491 38.66641386 -1.66852354 40.33296303 -2 42 C-2.66 42 -3.32 42 -4 42 C-3.86722656 41.30519531 -3.73445312 40.61039063 -3.59765625 39.89453125 C-2.18518933 31.75995899 -1.63626239 23.75640533 -1.34204102 15.51293945 C-1.14867323 10.28315258 -0.7284743 5.18360635 0 0 Z " fill="#6994C9" transform="translate(209,102)"/>
<path d="M0 0 C1.1616838 3.48505139 0.4574675 5.0998693 -0.47949219 8.5390625 C-1.51946257 13.45599565 -1.48120247 18.4910527 -1.625 23.5 C-1.66367187 24.60859375 -1.70234375 25.7171875 -1.7421875 26.859375 C-1.83575243 29.57275797 -1.92149483 32.28614661 -2 35 C-2.66 35 -3.32 35 -4 35 C-4 37.31 -4 39.62 -4 42 C-4.33 42 -4.66 42 -5 42 C-5.80683774 13.10325561 -5.80683774 13.10325561 0 0 Z " fill="#6D96CA" transform="translate(19,81)"/>
<path d="M0 0 C0.63421875 0.13277344 1.2684375 0.26554688 1.921875 0.40234375 C11.89392168 2.28931943 21.87723636 2.61989623 32 3 C32 3.66 32 4.32 32 5 C35.3 5 38.6 5 42 5 C42 5.33 42 5.66 42 6 C12.26086957 6.61956522 12.26086957 6.61956522 0 1 C0 0.67 0 0.34 0 0 Z " fill="#6E97CA" transform="translate(81,205)"/>
<path d="M0 0 C0.66 0.33 1.32 0.66 2 1 C-0.97 3.97 -3.94 6.94 -7 10 C-7.66 9.67 -8.32 9.34 -9 9 C-8.06725891 7.87105124 -7.12859878 6.74699124 -6.1875 5.625 C-5.66542969 4.99851563 -5.14335938 4.37203125 -4.60546875 3.7265625 C-3 2 -3 2 0 0 Z " fill="#437ABC" transform="translate(75,132)"/>
</svg>
