<?xml version="1.0" encoding="UTF-8"?>
<svg version="1.1" xmlns="http://www.w3.org/2000/svg" width="160" height="160">
<path d="M0 0 C52.8 0 105.6 0 160 0 C160 52.8 160 105.6 160 160 C107.2 160 54.4 160 0 160 C0 107.2 0 54.4 0 0 Z " fill="#FEFDFD" transform="translate(0,0)"/>
<path d="M0 0 C1.26521484 0.02255859 2.53042969 0.04511719 3.83398438 0.06835938 C6.95232979 0.12719608 10.07006589 0.21687319 13.1875 0.3125 C13.1875 7.2425 13.1875 14.1725 13.1875 21.3125 C4.2775 21.3125 -4.6325 21.3125 -13.8125 21.3125 C-13.8125 20.6525 -13.8125 19.9925 -13.8125 19.3125 C-14.43125 19.23 -15.05 19.1475 -15.6875 19.0625 C-17.8125 18.3125 -17.8125 18.3125 -18.94921875 16.54296875 C-19.9110355 14.0579128 -20.00161479 12.51466792 -19.75 9.875 C-19.69714844 9.13378906 -19.64429687 8.39257812 -19.58984375 7.62890625 C-16.44054553 -1.75568593 -8.28775723 -0.27868816 0 0 Z " fill="#EE5F67" transform="translate(141.8125,68.6875)"/>
<path d="M0 0 C0.99322266 0.00580078 1.98644531 0.01160156 3.00976562 0.01757812 C11.3934167 0.15871703 11.3934167 0.15871703 14.9375 2.4375 C17.01150485 5.54850727 17.191976 6.22462691 17.125 9.75 C17.11855469 10.48863281 17.11210938 11.22726563 17.10546875 11.98828125 C16.9094046 14.84717015 16.42284698 17.61474134 15.9375 20.4375 C11.72988536 20.64147024 7.52354543 20.76536067 3.3125 20.875 C2.12269531 20.93365234 0.93289062 20.99230469 -0.29296875 21.05273438 C-8.89593468 21.22094879 -8.89593468 21.22094879 -12.21313477 18.99316406 C-14.94801754 15.95377301 -16.42612152 13.4326033 -16.75 9.3125 C-15.02607819 -0.4041502 -8.3048318 -0.27592601 0 0 Z " fill="#EB323D" transform="translate(61.0625,69.5625)"/>
<path d="M0 0 C0.97130859 0.00322266 1.94261719 0.00644531 2.94335938 0.00976562 C3.91080078 -0.00634766 4.87824219 -0.02246094 5.875 -0.0390625 C6.80376953 -0.03970703 7.73253906 -0.04035156 8.68945312 -0.04101562 C9.54079834 -0.04399658 10.39214355 -0.04697754 11.26928711 -0.05004883 C13.99172749 0.40314641 14.88470587 1.11920988 16.50585938 3.32226562 C16.69335938 6.00976562 16.69335938 6.00976562 16.50585938 8.32226562 C15.18585938 8.32226562 13.86585937 8.32226562 12.50585938 8.32226562 C12.50585938 9.64226562 12.50585938 10.96226563 12.50585938 12.32226562 C9.40177131 12.38033606 6.29782297 12.41588477 3.19335938 12.44726562 C1.87174805 12.47240234 1.87174805 12.47240234 0.5234375 12.49804688 C-0.32412109 12.50449219 -1.17167969 12.5109375 -2.04492188 12.51757812 C-2.82520752 12.52805176 -3.60549316 12.53852539 -4.40942383 12.54931641 C-6.49414062 12.32226562 -6.49414062 12.32226562 -9.49414062 10.32226562 C-9.85742188 8.44726562 -9.85742188 8.44726562 -9.80664062 6.32226562 C-9.80083984 5.27039063 -9.80083984 5.27039063 -9.79492188 4.19726562 C-8.95373193 -1.04651583 -4.14938557 0.03171872 0 0 Z " fill="#FDF3F3" transform="translate(58.494140625,73.677734375)"/>
<path d="M0 0 C1.02802734 0.00966797 2.05605469 0.01933594 3.11523438 0.02929688 C4.72301758 0.06700195 4.72301758 0.06700195 6.36328125 0.10546875 C7.44673828 0.11900391 8.53019531 0.13253906 9.64648438 0.14648438 C12.32312829 0.18185852 14.999517 0.23566571 17.67578125 0.29296875 C17.67578125 3.92296875 17.67578125 7.55296875 17.67578125 11.29296875 C13.90452172 11.37371737 10.13498132 11.43335055 6.36328125 11.48046875 C5.29142578 11.50560547 4.21957031 11.53074219 3.11523438 11.55664062 C2.08720703 11.56630859 1.05917969 11.57597656 0 11.5859375 C-0.94786377 11.60164795 -1.89572754 11.6173584 -2.87231445 11.63354492 C-5.32421875 11.29296875 -5.32421875 11.29296875 -7.13354492 9.9309082 C-8.83217144 7.59420833 -8.74716389 6.112603 -8.32421875 3.29296875 C-5.92644089 -0.00551221 -3.94607941 -0.06540463 0 0 Z " fill="#FDFAFA" transform="translate(133.32421875,73.70703125)"/>
<path d="M0 0 C2.52197266 -0.34057617 2.52197266 -0.34057617 5.6640625 -0.29296875 C6.78554687 -0.28330078 7.90703125 -0.27363281 9.0625 -0.26367188 C10.238125 -0.23853516 11.41375 -0.21339844 12.625 -0.1875 C13.80835938 -0.17396484 14.99171875 -0.16042969 16.2109375 -0.14648438 C19.14081751 -0.11104228 22.07046466 -0.05723405 25 0 C25 6.27 25 12.54 25 19 C20.70829205 19.02686048 16.41675055 19.04677107 12.125 19.0625 C10.90167969 19.07087891 9.67835938 19.07925781 8.41796875 19.08789062 C6.66806641 19.09272461 6.66806641 19.09272461 4.8828125 19.09765625 C3.26463623 19.10551147 3.26463623 19.10551147 1.61376953 19.11352539 C-1 19 -1 19 -3 18 C-3 17.34 -3 16.68 -3 16 C5.58 16 14.16 16 23 16 C23 11.71 23 7.42 23 3 C14.75 3 6.5 3 -2 3 C-1.34 2.01 -0.68 1.02 0 0 Z " fill="#E7000C" transform="translate(129,70)"/>
<path d="M0 0 C2.7000835 0.07297523 4.43740716 0.41868797 6.35009766 2.39501953 C7.73968169 4.24523916 9.03814612 6.1311459 10.3125 8.0625 C10.76689453 8.72572266 11.22128906 9.38894531 11.68945312 10.07226562 C12.80602967 11.70599341 13.90479181 13.35187117 15 15 C19.18816708 11.01297988 22.17997692 6.87463235 25.25390625 2.01171875 C26.11822266 1.01591797 26.11822266 1.01591797 27 0 C28.32 0 29.64 0 31 0 C29.472721 4.64292815 26.93409202 7.97776959 23.9375 11.75 C23.47794922 12.33910156 23.01839844 12.92820312 22.54492188 13.53515625 C18.32216756 18.92986441 18.32216756 18.92986441 15.79296875 19.48046875 C11.42125052 18.72841093 9.84419245 15.760424 7.3125 12.3125 C6.82716797 11.68666016 6.34183594 11.06082031 5.84179688 10.41601562 C3.31140943 7.08288457 1.31483113 4.0213841 0 0 Z " fill="#E9121E" transform="translate(79,70)"/>
<path d="M0 0 C0.99 0 1.98 0 3 0 C3.03738281 0.83144531 3.07476562 1.66289063 3.11328125 2.51953125 C3.17902344 3.60621094 3.24476562 4.69289063 3.3125 5.8125 C3.37050781 6.89144531 3.42851562 7.97039062 3.48828125 9.08203125 C4.0581699 12.33170163 4.42875271 13.05821653 7 15 C9.41063442 15.50330762 9.41063442 15.50330762 12.10546875 15.51171875 C13.08837891 15.54716797 14.07128906 15.58261719 15.08398438 15.61914062 C16.62022461 15.65297852 16.62022461 15.65297852 18.1875 15.6875 C19.22326172 15.72166016 20.25902344 15.75582031 21.32617188 15.79101562 C23.8840066 15.87352642 26.44149723 15.94266572 29 16 C29 17.32 29 18.64 29 20 C25.27124612 20.14560195 21.54322566 20.23417043 17.8125 20.3125 C16.75740234 20.35439453 15.70230469 20.39628906 14.61523438 20.43945312 C6.92706315 20.56071766 6.92706315 20.56071766 4.18115234 18.89990234 C2.82421875 17.54296875 2.82421875 17.54296875 1 15 C0.67 14.67 0.34 14.34 0 14 C-0.07271741 11.64686445 -0.08370868 9.29166332 -0.0625 6.9375 C-0.05347656 5.64714844 -0.04445313 4.35679688 -0.03515625 3.02734375 C-0.02355469 2.02832031 -0.01195312 1.02929688 0 0 Z " fill="#E91E2C" transform="translate(5,70)"/>
<path d="M0 0 C0.33 0.66 0.66 1.32 1 2 C0.0625 4.125 0.0625 4.125 -1 6 C-4.62493334 6.05787784 -8.24974857 6.0935542 -11.875 6.125 C-12.90753906 6.14175781 -13.94007812 6.15851563 -15.00390625 6.17578125 C-15.99003906 6.18222656 -16.97617187 6.18867187 -17.9921875 6.1953125 C-19.35899658 6.21102295 -19.35899658 6.21102295 -20.75341797 6.22705078 C-23 6 -23 6 -25 4 C-25 3.01 -25 2.02 -25 1 C-24.15743652 1.23771118 -24.15743652 1.23771118 -23.29785156 1.48022461 C-20.90325571 2.02188362 -18.68561447 2.20641474 -16.234375 2.31640625 C-15.34492187 2.35830078 -14.45546875 2.40019531 -13.5390625 2.44335938 C-12.61867188 2.48267578 -11.69828125 2.52199219 -10.75 2.5625 C-9.81414063 2.60568359 -8.87828125 2.64886719 -7.9140625 2.69335938 C-5.60951359 2.7991805 -3.30486161 2.90126557 -1 3 C-0.67 2.01 -0.34 1.02 0 0 Z " fill="#E80311" transform="translate(73,83)"/>
<path d="M0 0 C0.66 0.33 1.32 0.66 2 1 C1.67 1.66 1.34 2.32 1 3 C7.6 3 14.2 3 21 3 C21 3.33 21 3.66 21 4 C20.39937744 4.02505615 19.79875488 4.0501123 19.17993164 4.07592773 C16.47388563 4.1915528 13.76821717 4.31442936 11.0625 4.4375 C9.64420898 4.49647461 9.64420898 4.49647461 8.19726562 4.55664062 C7.29814453 4.59853516 6.39902344 4.64042969 5.47265625 4.68359375 C4.64000244 4.72025146 3.80734863 4.75690918 2.94946289 4.79467773 C0.99661142 4.79367103 0.99661142 4.79367103 0 6 C-0.3931648 7.67884238 -0.74085452 9.36850045 -1.0625 11.0625 C-1.32740234 12.44115234 -1.32740234 12.44115234 -1.59765625 13.84765625 C-1.73042969 14.55792969 -1.86320312 15.26820312 -2 16 C-4.82295068 13.58247309 -4.98618369 13.10707639 -5.5 9.125 C-5.39301879 5.50101135 -4.99975486 4.99970583 -2.5 2 C-1.675 1.34 -0.85 0.68 0 0 Z " fill="#EB3740" transform="translate(50,70)"/>
<path d="M0 0 C3.27066566 -0.08706892 6.54103365 -0.14041241 9.8125 -0.1875 C10.74126953 -0.21263672 11.67003906 -0.23777344 12.62695312 -0.26367188 C13.9659668 -0.27817383 13.9659668 -0.27817383 15.33203125 -0.29296875 C16.56530151 -0.31653442 16.56530151 -0.31653442 17.82348633 -0.34057617 C20.47502434 0.07433079 21.33263592 0.95529751 23 3 C19.95157135 3.90901939 17.40338364 4.06173367 14.234375 3.87890625 C13.34492187 3.83056641 12.45546875 3.78222656 11.5390625 3.73242188 C10.61867188 3.67634766 9.69828125 3.62027344 8.75 3.5625 C7.81414063 3.51029297 6.87828125 3.45808594 5.9140625 3.40429688 C3.60901113 3.27493175 1.30442711 3.13997966 -1 3 C-0.67 2.01 -0.34 1.02 0 0 Z " fill="#E7020D" transform="translate(52,70)"/>
<path d="M0 0 C0.99 0 1.98 0 3 0 C3 6.27 3 12.54 3 19 C2.01 19 1.02 19 0 19 C0 12.73 0 6.46 0 0 Z " fill="#E7111A" transform="translate(115,70)"/>
<path d="M0 0 C0.99 0 1.98 0 3 0 C3 6.27 3 12.54 3 19 C2.01 19 1.02 19 0 19 C0 12.73 0 6.46 0 0 Z " fill="#E70A18" transform="translate(38,70)"/>
<path d="M0 0 C0.99 0 1.98 0 3 0 C3 4.62 3 9.24 3 14 C2.01 14 1.02 14 0 14 C0 9.38 0 4.76 0 0 Z " fill="#E8040C" transform="translate(5,70)"/>
<path d="M0 0 C1.32 0 2.64 0 4 0 C2.76344399 3.42430894 1.59887381 6.40112619 -1 9 C-3.60546875 9.10546875 -3.60546875 9.10546875 -6 9 C-5.10085301 7.48943306 -4.18003899 5.99174571 -3.25 4.5 C-2.73953125 3.6646875 -2.2290625 2.829375 -1.703125 1.96875 C-0.86007813 0.99421875 -0.86007813 0.99421875 0 0 Z " fill="#EA1924" transform="translate(106,70)"/>
<path d="M0 0 C2.10633718 1.70828921 2.93801608 2.52148416 3.29296875 5.26171875 C3.25816406 6.06222656 3.22335938 6.86273438 3.1875 7.6875 C3.16042969 8.49574219 3.13335937 9.30398437 3.10546875 10.13671875 C3.07066406 10.75160156 3.03585938 11.36648437 3 12 C2.67 12 2.34 12 2 12 C2 9.36 2 6.72 2 4 C1.01 4.33 0.02 4.66 -1 5 C-1.66 3.68 -2.32 2.36 -3 1 C-2.01 0.67 -1.02 0.34 0 0 Z " fill="#E92734" transform="translate(75,72)"/>
<path d="M0 0 C0.66 0 1.32 0 2 0 C1.67 1.65 1.34 3.3 1 5 C-0.65 5 -2.3 5 -4 5 C-4.33 4.34 -4.66 3.68 -5 3 C-3.35 3 -1.7 3 0 3 C0 2.01 0 1.02 0 0 Z " fill="#E80612" transform="translate(96,84)"/>
</svg>
