<?xml version="1.0" encoding="UTF-8"?>
<svg version="1.1" xmlns="http://www.w3.org/2000/svg" width="315" height="417">
<path d="M0 0 C103.95 0 207.9 0 315 0 C315 137.61 315 275.22 315 417 C211.05 417 107.1 417 0 417 C0 279.39 0 141.78 0 0 Z " fill="#FDFDFD" transform="translate(0,0)"/>
<path d="M0 0 C46.86 0 93.72 0 142 0 C142.04125 15.96375 142.0825 31.9275 142.125 48.375 C142.14320801 53.40024902 142.16141602 58.42549805 142.18017578 63.60302734 C142.18920898 69.77856445 142.18920898 69.77856445 142.19088745 72.67715454 C142.19394202 74.68505746 142.20094147 76.6929569 142.21115112 78.70083618 C142.22590238 81.75683892 142.22780825 84.81261906 142.22705078 87.86865234 C142.234247 88.75077078 142.24144321 89.63288921 142.2488575 90.54173851 C142.17547318 112.82704962 130.9056388 137.63761465 116 154 C114.69095703 155.44826172 114.69095703 155.44826172 113.35546875 156.92578125 C102.96712894 168.03361371 88.13335048 179.63703323 73 183 C67.41946511 182.57754193 63.2576067 181.02913733 58.375 178.5 C57.33230957 177.96487793 57.33230957 177.96487793 56.26855469 177.41894531 C31.98771525 164.66234517 12.41553277 142.41044858 4 116 C3.4271271 113.7746091 2.92171871 111.5580116 2.4921875 109.30078125 C2.01397673 106.85225791 2.01397673 106.85225791 0.98342896 103.979599 C-0.34323395 99.34137507 -0.26488749 94.81896113 -0.22705078 90.02563477 C-0.22729185 89.03357245 -0.22753292 88.04151014 -0.2277813 87.01938534 C-0.22629545 83.82663256 -0.21109609 80.63411694 -0.1953125 77.44140625 C-0.19236981 75.46285108 -0.19033076 73.48429435 -0.18920898 71.5057373 C-0.17874787 64.19130104 -0.15082534 56.87689816 -0.125 49.5625 C-0.08375 33.206875 -0.0425 16.85125 0 0 Z " fill="#FAFAFA" transform="translate(84,27)"/>
<path d="M0 0 C46.86 0 93.72 0 142 0 C142.04125 15.96375 142.0825 31.9275 142.125 48.375 C142.14320801 53.40024902 142.16141602 58.42549805 142.18017578 63.60302734 C142.18920898 69.77856445 142.18920898 69.77856445 142.19088745 72.67715454 C142.19394202 74.68505746 142.20094147 76.6929569 142.21115112 78.70083618 C142.22590238 81.75683892 142.22780825 84.81261906 142.22705078 87.86865234 C142.234247 88.75077078 142.24144321 89.63288921 142.2488575 90.54173851 C142.17547318 112.82704962 130.9056388 137.63761465 116 154 C114.69095703 155.44826172 114.69095703 155.44826172 113.35546875 156.92578125 C102.96712894 168.03361371 88.13335048 179.63703323 73 183 C67.41946511 182.57754193 63.2576067 181.02913733 58.375 178.5 C57.33230957 177.96487793 57.33230957 177.96487793 56.26855469 177.41894531 C31.98771525 164.66234517 12.41553277 142.41044858 4 116 C3.4271271 113.7746091 2.92171871 111.5580116 2.4921875 109.30078125 C2.01397673 106.85225791 2.01397673 106.85225791 0.98342896 103.979599 C-0.34323395 99.34137507 -0.26488749 94.81896113 -0.22705078 90.02563477 C-0.22729185 89.03357245 -0.22753292 88.04151014 -0.2277813 87.01938534 C-0.22629545 83.82663256 -0.21109609 80.63411694 -0.1953125 77.44140625 C-0.19236981 75.46285108 -0.19033076 73.48429435 -0.18920898 71.5057373 C-0.17874787 64.19130104 -0.15082534 56.87689816 -0.125 49.5625 C-0.08375 33.206875 -0.0425 16.85125 0 0 Z M3 57 C3 96.39815873 5.27876869 128.31602868 33.25 156.75 C39.34895444 162.77926076 45.56952129 167.67271254 53 172 C53.78890625 172.48855469 54.5778125 172.97710937 55.390625 173.48046875 C57.55269563 174.76939547 59.73818704 175.89746752 62 177 C62.71929687 177.4125 63.43859375 177.825 64.1796875 178.25 C68.48575181 180.22180049 71.55288063 180.34751563 75.95703125 178.71484375 C100.67670615 168.14036298 119.79241801 149.25580098 130.46875 124.609375 C131.70634119 121.42484157 132.86254029 118.22144839 134 115 C134.57234375 113.54400391 134.57234375 113.54400391 135.15625 112.05859375 C135.69765625 110.66833984 135.69765625 110.66833984 136.25 109.25 C136.56453125 108.45078125 136.8790625 107.6515625 137.203125 106.828125 C141.36745587 92.04883308 139 68.6917442 139 57 C94.12 57 49.24 57 3 57 Z " fill="#1C1C1A" transform="translate(84,27)"/>
<path d="M0 0 C0.53625 0.33 1.0725 0.66 1.625 1 C2.285 0.34 2.945 -0.32 3.625 -1 C5.7890625 -0.9765625 5.7890625 -0.9765625 8.25 -0.625 C9.06726563 -0.51414062 9.88453125 -0.40328125 10.7265625 -0.2890625 C11.35304687 -0.19367188 11.97953125 -0.09828125 12.625 0 C12.625 0.66 12.625 1.32 12.625 2 C13.553125 1.938125 14.48125 1.87625 15.4375 1.8125 C18.625 2 18.625 2 20.5 3.3125 C21.625 5 21.625 5 21.625 8 C22.285 8.99 22.945 9.98 23.625 11 C23.33200977 12.67422986 22.99809899 14.34178227 22.625 16 C23.12 17.485 23.12 17.485 23.625 19 C22.635 19.495 22.635 19.495 21.625 20 C21.625 20.66 21.625 21.32 21.625 22 C30.68005339 24.21921476 39.56464593 24.30833136 48.82348633 24.26074219 C51.31811573 24.24997576 53.81203237 24.26071365 56.30664062 24.2734375 C57.91666823 24.27211647 59.5266954 24.26955524 61.13671875 24.265625 C62.23701668 24.27169769 62.23701668 24.27169769 63.35954285 24.27789307 C68.40311636 24.23277009 72.76984187 23.37615769 77.625 22 C78.21570014 20.05396726 78.21570014 20.05396726 78.625 18 C77.51241409 16.67254834 77.51241409 16.67254834 74.6875 16.75 C70.56515023 16.79249845 66.94388794 17.96004824 63.0546875 19.24609375 C57.37985547 21.00693391 52.02731182 21.21384495 46.125 21.25 C45.28324219 21.270625 44.44148438 21.29125 43.57421875 21.3125 C38.8421279 21.34230845 35.36043269 21.27615818 31.625 18 C31.625 17.01 31.625 16.02 31.625 15 C32.0375 15.474375 32.45 15.94875 32.875 16.4375 C37.63083141 20.68377805 45.63381939 19.38502367 51.64892578 19.15820312 C56.44786104 18.77400371 61.04802595 17.4319025 65.625 16 C64.944375 16.144375 64.26375 16.28875 63.5625 16.4375 C57.38787505 17.61987499 51.39820599 18.21546859 45.125 18.25 C44.44308594 18.25902344 43.76117188 18.26804687 43.05859375 18.27734375 C39.45140728 18.25582972 36.61436309 18.13001302 33.625 16 C32.6875 13.625 32.6875 13.625 32.625 11 C33.609375 8.8515625 33.609375 8.8515625 35.625 7 C38.49538052 6.70438924 40.96254745 6.62056984 43.8125 6.75 C44.56208984 6.76804687 45.31167969 6.78609375 46.08398438 6.8046875 C47.9315371 6.85175891 49.77843159 6.92350234 51.625 7 C51.625 6.34 51.625 5.68 51.625 5 C46.675 5 41.725 5 36.625 5 C36.625 4.67 36.625 4.34 36.625 4 C37.73359375 3.95101562 38.8421875 3.90203125 39.984375 3.8515625 C41.44794065 3.77650785 42.91148112 3.70096119 44.375 3.625 C45.10460937 3.5940625 45.83421875 3.563125 46.5859375 3.53125 C50.44528943 3.32073989 53.26674375 2.89615829 56.625 1 C61.78288689 0.74633343 66.54173409 1.15278902 71.625 2 C71.625 2.66 71.625 3.32 71.625 4 C73.935 4.33 76.245 4.66 78.625 5 C75.11961443 6.96301592 71.49148272 7.95902388 67.625 9 C67.625 9.66 67.625 10.32 67.625 11 C65.70864783 11.05423638 63.79185075 11.09289963 61.875 11.125 C60.80765625 11.14820312 59.7403125 11.17140625 58.640625 11.1953125 C55.625 11 55.625 11 53.6796875 10.00390625 C50.62427934 8.51105474 47.87180893 8.77378403 44.5 8.8125 C42.63988281 8.82216797 42.63988281 8.82216797 40.7421875 8.83203125 C37.71821888 8.78737405 37.71821888 8.78737405 35.625 10 C36.12 12.475 36.12 12.475 36.625 15 C45.91375991 18.0962533 58.42093074 15.51614522 67.29296875 11.91796875 C71.04821521 10.43977291 74.65212065 10.51778457 78.625 11 C83.16554054 13.08108108 83.16554054 13.08108108 84.625 16 C85.1899303 22.10124725 85.1899303 22.10124725 83.25 25.1875 C77.6968553 29.0218142 71.46832492 31.72034999 64.625 31 C64.955 31.99 65.285 32.98 65.625 34 C65.8205096 37.55537832 65.96964789 41.1045476 66.0546875 44.6640625 C66.24586406 49.22043725 66.7019267 52.29183267 69.625 56 C71.27105826 57.03357147 72.93463442 58.04060332 74.625 59 C74.625 59.66 74.625 60.32 74.625 61 C73.14 61.495 73.14 61.495 71.625 62 C71.625 62.99 71.625 63.98 71.625 65 C70.8825 65.53625 70.14 66.0725 69.375 66.625 C65.64250428 69.84851903 64.48708657 73.52604864 62.625 78 C61.31299128 80.558417 60.5292929 81.6334492 57.87109375 82.7109375 C53.50761944 83.98603246 50.1008974 84.11897435 45.625 83 C45.625 82.34 45.625 81.68 45.625 81 C44.635 81 43.645 81 42.625 81 C42.295 79.35 41.965 77.7 41.625 76 C40.635 76.66 39.645 77.32 38.625 78 C32.73386418 79.63642662 27.17101161 79.68897533 21.625 77 C22.12 75.515 22.12 75.515 22.625 74 C21.635 73.505 21.635 73.505 20.625 73 C23.42763355 70.19736645 25.32787003 69.90627784 29.125 69.875 C31.48657126 69.79426437 31.48657126 69.79426437 33.625 69 C35.82592425 66.26416757 37.08267364 63.46972242 37.625 60 C36.6067256 57.27953556 35.1488049 55.29971308 33.5 52.875 C31.625 50 31.625 50 31.625 48 C30.635 48 29.645 48 28.625 48 C29.12 49.98 29.12 49.98 29.625 52 C26.16 52.495 26.16 52.495 22.625 53 C22.58375 53.61875 22.5425 54.2375 22.5 54.875 C22.21125 55.57625 21.9225 56.2775 21.625 57 C18.5625 58.25 18.5625 58.25 15.625 59 C16.12 60.98 16.12 60.98 16.625 63 C15.61179687 63.45826172 15.61179687 63.45826172 14.578125 63.92578125 C9.09733 66.73746076 6.16009388 68.79343676 4.125 74.75 C3.8671875 75.69359375 3.609375 76.6371875 3.34375 77.609375 C2.625 80 2.625 80 0.625 82 C-3.82916138 83.3143427 -7.70323315 84.29198543 -12.375 84 C-13.035 82.68 -13.695 81.36 -14.375 80 C-15.035 80 -15.695 80 -16.375 80 C-16.375 79.34 -16.375 78.68 -16.375 78 C-17.035 78 -17.695 78 -18.375 78 C-18.375 77.34 -18.375 76.68 -18.375 76 C-15.41321227 74.32889958 -13.00428808 73.67317248 -9.625 73.375 C-8.42617187 73.26285156 -8.42617187 73.26285156 -7.203125 73.1484375 C-6.59984375 73.09945312 -5.9965625 73.05046875 -5.375 73 C-4.67548937 70.586238 -3.99016081 68.16989766 -3.3125 65.75 C-3.11333984 65.06808594 -2.91417969 64.38617188 -2.70898438 63.68359375 C-1.40406999 58.96758739 -1.10604717 56.3139728 -3.4375 52.0625 C-4.56563924 49.58059367 -4.52477637 47.69597461 -4.375 45 C-5.035 45 -5.695 45 -6.375 45 C-6.705 45.99 -7.035 46.98 -7.375 48 C-8.24125 47.79375 -9.1075 47.5875 -10 47.375 C-15.04450912 46.81449899 -18.21360105 48.22573403 -22.375 51 C-22.375 48.36 -22.375 45.72 -22.375 43 C-23.86 43.495 -23.86 43.495 -25.375 44 C-26.035 39.38 -26.695 34.76 -27.375 30 C-24.42365262 32.95134738 -22.74188972 35.58262747 -20.6875 39.1875 C-20.06488281 40.27417969 -19.44226563 41.36085937 -18.80078125 42.48046875 C-18.09501953 43.72763672 -18.09501953 43.72763672 -17.375 45 C-14.405 44.505 -14.405 44.505 -11.375 44 C-11.045 41.69 -10.715 39.38 -10.375 37 C-12.85 37.495 -12.85 37.495 -15.375 38 C-15.643125 36.948125 -15.91125 35.89625 -16.1875 34.8125 C-17.82863641 29.54358835 -19.44485645 26.64585659 -23.875 23.4375 C-28.78398315 19.50408644 -29.36639422 13.93636546 -30.375 8 C-31.695 8 -33.015 8 -34.375 8 C-34.705 7.01 -35.035 6.02 -35.375 5 C-32.5625 5.5 -32.5625 5.5 -29.375 7 C-27.94793878 9.52926298 -27.22030506 12.23214134 -26.375 15 C-24.58870242 19.11625094 -23.2222213 21.61206954 -19.375 24 C-19.375 22.68 -19.375 21.36 -19.375 20 C-20.365 19.67 -21.355 19.34 -22.375 19 C-22.375 18.34 -22.375 17.68 -22.375 17 C-21.715 17 -21.055 17 -20.375 17 C-21.035 16.01 -21.695 15.02 -22.375 14 C-22.02584845 10.50848452 -20.23601593 7.9128945 -18.375 5 C-19.035 4.67 -19.695 4.34 -20.375 4 C-18.375 2 -18.375 2 -14.75 1.875 C-13.079375 1.936875 -13.079375 1.936875 -11.375 2 C-11.375 1.34 -11.375 0.68 -11.375 0 C-7.34577453 -1.34307516 -3.97171095 -1.67229935 0 0 Z " fill="#F9F9F9" transform="translate(132.375,92)"/>
<path d="M0 0 C17 0 17 0 23 4 C24.65234375 5.88085938 24.65234375 5.88085938 25.9375 7.84375 C26.43258057 8.58512207 26.92766113 9.32649414 27.43774414 10.09033203 C27.95328857 10.88552246 28.46883301 11.68071289 29 12.5 C30.14335152 14.21693203 31.28792348 15.93305185 32.43359375 17.6484375 C33.01995605 18.53241211 33.60631836 19.41638672 34.21044922 20.32714844 C37.09684062 24.63822798 40.07821668 28.88135582 43.0625 33.125 C43.57876953 33.86169922 44.09503906 34.59839844 44.62695312 35.35742188 C50.39754739 43.58599264 56.20415163 51.78921481 62 60 C62.33 40.2 62.66 20.4 63 0 C66.96 0 70.92 0 75 0 C75 28.05 75 56.1 75 85 C58 85 58 85 53.88671875 82.64453125 C52.40771484 80.97509766 52.40771484 80.97509766 51 79 C50.43104004 78.24638184 49.86208008 77.49276367 49.27587891 76.71630859 C47.37549727 74.08638448 45.58837022 71.4029022 43.8125 68.6875 C42.49208174 66.70883655 41.17045359 64.73098 39.84765625 62.75390625 C38.8733667 61.29041748 38.8733667 61.29041748 37.87939453 59.79736328 C34.82527557 55.25149487 31.65372516 50.79166983 28.47192383 46.3347168 C23.21854026 38.95235638 18.13663371 31.47146722 13 24 C12.67 44.13 12.34 64.26 12 85 C8.04 85 4.08 85 0 85 C0 56.95 0 28.9 0 0 Z " fill="#21211F" transform="translate(33,231)"/>
<path d="M0 0 C5.61 0 11.22 0 17 0 C17.0093457 1.80073975 17.01869141 3.60147949 17.02832031 5.45678711 C17.06397869 11.43605576 17.11785892 17.41493283 17.18390274 23.39392757 C17.22325196 27.01564669 17.2555012 30.63712725 17.27099609 34.2590332 C17.28624655 37.76067303 17.32083721 41.26165647 17.36830902 44.7630024 C17.39015817 46.73520513 17.3924665 48.70759352 17.39434814 50.67991638 C17.51939923 58.42059796 18.01597314 65.66608913 23.48223877 71.6124115 C28.74035143 76.22943084 33.35463478 76.29166103 40.0546875 76.2109375 C45.32687759 75.83335359 48.37722655 73.8956441 51.8125 70.0625 C55.02602702 65.56356217 55.12875621 62.23169905 55.20532227 56.76269531 C55.22526749 55.50169006 55.24521271 54.24068481 55.26576233 52.94146729 C55.28274401 51.57035443 55.29962291 50.1992403 55.31640625 48.828125 C55.33698835 47.42136033 55.35798515 46.01460167 55.37937927 44.60784912 C55.43447035 40.91226073 55.48393655 37.21661774 55.53222656 33.52093506 C55.58253649 29.74698041 55.63817293 25.97310468 55.69335938 22.19921875 C55.80078231 14.79954425 55.90176973 7.39980329 56 0 C61.94 0 67.88 0 74 0 C74.06812774 7.76341754 74.12301719 15.52666785 74.15543652 23.29030323 C74.17100636 26.89636775 74.1920828 30.50221485 74.22631836 34.1081543 C74.25922567 37.59654017 74.27691805 41.08471864 74.28463173 44.57324791 C74.29276668 46.53334273 74.31613435 48.49335562 74.33988953 50.45332336 C74.34194622 61.53074558 73.25364385 70.89818919 65.31640625 79.0546875 C56.79306457 86.21256972 47.91177282 87.17949083 37.1875 87.1875 C36.33607422 87.19974609 35.48464844 87.21199219 34.60742188 87.22460938 C26.66132662 87.24276496 19.4496674 86.40245839 12.625 82.0625 C11.81289062 81.55847656 11.00078125 81.05445313 10.1640625 80.53515625 C6.81995181 78.16289 4.73266483 75.90682052 2.875 72.25 C2.37613281 71.29867187 2.37613281 71.29867187 1.8671875 70.328125 C-0.88329466 62.94394767 -0.12844122 54.71572187 -0.09765625 46.97265625 C-0.0957884 45.61502637 -0.09436623 44.25739581 -0.09336853 42.89976501 C-0.08957222 39.34717916 -0.07976696 35.79463496 -0.06866455 32.24206543 C-0.05838801 28.60864831 -0.0538576 24.97522438 -0.04882812 21.34179688 C-0.03814177 14.22784603 -0.02056872 7.11393014 0 0 Z " fill="#1C1C1A" transform="translate(125,231)"/>
<path d="M0 0 C0 3.96 0 7.92 0 12 C-10 8 -10 8 -12.2421875 6.88671875 C-16.30207911 5.58134283 -20.19944916 5.67118726 -24.4375 5.6875 C-25.27087891 5.67138672 -26.10425781 5.65527344 -26.96289062 5.63867188 C-32.06960747 5.63463494 -35.57136021 6.18675277 -40 9 C-42.44214222 10.99369369 -42.44214222 10.99369369 -42.1875 14.9375 C-42.16190316 17.67636155 -41.88664156 19.34007532 -41 22 C-39.21765508 23.11614802 -39.21765508 23.11614802 -37 24 C-36.19304687 24.37898438 -35.38609375 24.75796875 -34.5546875 25.1484375 C-30.07479864 27.19899887 -25.60350165 29.17993308 -21 30.9375 C-10.47871062 35.11925253 -0.11117467 40.35919192 5 51 C5.28946472 53.74423908 5.42067967 56.20433303 5.375 58.9375 C5.38660156 59.62779297 5.39820313 60.31808594 5.41015625 61.02929688 C5.37289622 67.58085186 2.98457906 72.61526583 -1.28515625 77.546875 C-12.72231795 87.23850177 -30.01206323 85.93419192 -44 85 C-58.00128287 82.99871713 -58.00128287 82.99871713 -61 80 C-61.07271741 77.64686445 -61.08370868 75.29166332 -61.0625 72.9375 C-61.05347656 71.64714844 -61.04445312 70.35679687 -61.03515625 69.02734375 C-61.02355469 68.02832031 -61.01195312 67.02929688 -61 66 C-60.47792969 66.32613281 -59.95585937 66.65226562 -59.41796875 66.98828125 C-48.17177875 73.66509107 -34.97822872 76.48453888 -22.08203125 73.2734375 C-18.55983942 71.85996411 -16.43510628 70.50103147 -13.9375 67.625 C-12.79899126 64.43717553 -12.50972107 62.36191264 -13 59 C-16.85634689 51.81317171 -25.61093969 49.4626656 -32.86132812 46.86889648 C-53.33481407 39.53320602 -53.33481407 39.53320602 -58 30 C-60.77382737 24.03627115 -61.10067052 17.06133488 -59.3828125 10.72265625 C-56.6088389 4.3277879 -51.47012211 0.73506106 -45.375 -2.3125 C-31.37069423 -6.36637799 -13.28545632 -5.9878113 0 0 Z " fill="#1D1D1B" transform="translate(271,233)"/>
<path d="M0 0 C0.77794922 -0.00386719 1.55589844 -0.00773437 2.35742188 -0.01171875 C6.17809484 -0.00534565 9.8605583 0.14985916 13.64453125 0.6953125 C16.97735857 1.08573956 18.24667289 0.93682569 21.3125 0.125 C22.64498961 0.03734709 23.98103867 -0.00557168 25.31640625 -0.0078125 C26.42725586 -0.00974609 26.42725586 -0.00974609 27.56054688 -0.01171875 C28.70620117 -0.00591797 28.70620117 -0.00591797 29.875 0 C30.64263672 -0.00386719 31.41027344 -0.00773437 32.20117188 -0.01171875 C35.49177139 -0.005981 38.17008907 0.07752969 41.3125 1.125 C41.3125 13.335 41.3125 25.545 41.3125 38.125 C38.404375 38.104375 35.49625 38.08375 32.5 38.0625 C26.02550496 38.03485012 19.68010058 38.19087263 13.24609375 39.00390625 C11.3125 39.125 11.3125 39.125 9.3125 38.125 C7.71802536 38.04099471 6.12009455 38.01772533 4.5234375 38.02734375 C3.67571777 38.02984131 2.82799805 38.03233887 1.95458984 38.03491211 C0.8764502 38.04401611 -0.20168945 38.05312012 -1.3125 38.0625 C-6.448125 38.0934375 -6.448125 38.0934375 -11.6875 38.125 C-11.6875 25.915 -11.6875 13.705 -11.6875 1.125 C-7.78211576 -0.17679475 -4.06832789 -0.0197332 0 0 Z " fill="#F3F3F3" transform="translate(109.6875,35.875)"/>
<path d="M0 0 C0.53625 0.33 1.0725 0.66 1.625 1 C2.285 0.34 2.945 -0.32 3.625 -1 C5.7890625 -0.9765625 5.7890625 -0.9765625 8.25 -0.625 C9.06726563 -0.51414062 9.88453125 -0.40328125 10.7265625 -0.2890625 C11.35304687 -0.19367188 11.97953125 -0.09828125 12.625 0 C12.625 0.66 12.625 1.32 12.625 2 C13.553125 1.938125 14.48125 1.87625 15.4375 1.8125 C18.625 2 18.625 2 20.5 3.3125 C21.625 5 21.625 5 21.625 8 C22.285 8.99 22.945 9.98 23.625 11 C23.33200977 12.67422986 22.99809899 14.34178227 22.625 16 C23.12 17.485 23.12 17.485 23.625 19 C22.635 19.495 22.635 19.495 21.625 20 C21.625 20.66 21.625 21.32 21.625 22 C32.47760994 24.89033629 43.68686033 24.22142039 54.8125 24.125 C56.83397995 24.11495176 58.85546472 24.10582916 60.87695312 24.09765625 C65.79308936 24.07578514 70.70899065 24.04135645 75.625 24 C72.44444176 26.12037216 71.6730622 26.24927421 68.03344727 26.24291992 C67.10560928 26.24599655 66.1777713 26.24907318 65.22181702 26.25224304 C64.22178146 26.24505753 63.22174591 26.23787201 62.19140625 26.23046875 C61.16192368 26.23001053 60.1324411 26.22955231 59.07176208 26.2290802 C56.89377694 26.22605819 54.71579395 26.21817342 52.5378418 26.20581055 C49.20418636 26.1875912 45.87080933 26.18530065 42.53710938 26.18554688 C40.4218726 26.18063012 38.30663771 26.17480111 36.19140625 26.16796875 C34.69438927 26.16629951 34.69438927 26.16629951 33.16712952 26.16459656 C32.23613937 26.15821671 31.30514923 26.15183685 30.34594727 26.14526367 C29.52892838 26.14145187 28.71190948 26.13764008 27.87013245 26.13371277 C25.66762512 26.00253861 23.74072113 25.6092012 21.625 25 C18.29252182 31.1999082 18.29252182 31.1999082 16.625 38 C15.635 38 14.645 38 13.625 38 C12.635 40.97 11.645 43.94 10.625 47 C9.635 47 8.645 47 7.625 47 C2.63184542 52.14919066 0.68341163 58.33231286 -0.734375 65.203125 C-1.36512536 67.95688878 -2.25935588 70.40943654 -3.375 73 C-4.84581579 68.58755262 -3.22669344 65.28584743 -1.96875 60.91015625 C-1.21742144 57.22765769 -1.66417272 55.29621444 -3.4375 52.0625 C-4.56563924 49.58059367 -4.52477637 47.69597461 -4.375 45 C-5.035 45 -5.695 45 -6.375 45 C-6.705 45.99 -7.035 46.98 -7.375 48 C-8.24125 47.79375 -9.1075 47.5875 -10 47.375 C-15.04450912 46.81449899 -18.21360105 48.22573403 -22.375 51 C-22.375 48.36 -22.375 45.72 -22.375 43 C-23.86 43.495 -23.86 43.495 -25.375 44 C-26.035 39.38 -26.695 34.76 -27.375 30 C-24.42365262 32.95134738 -22.74188972 35.58262747 -20.6875 39.1875 C-20.06488281 40.27417969 -19.44226563 41.36085937 -18.80078125 42.48046875 C-18.09501953 43.72763672 -18.09501953 43.72763672 -17.375 45 C-14.405 44.505 -14.405 44.505 -11.375 44 C-11.045 41.69 -10.715 39.38 -10.375 37 C-12.85 37.495 -12.85 37.495 -15.375 38 C-15.643125 36.948125 -15.91125 35.89625 -16.1875 34.8125 C-17.82863641 29.54358835 -19.44485645 26.64585659 -23.875 23.4375 C-28.78398315 19.50408644 -29.36639422 13.93636546 -30.375 8 C-31.695 8 -33.015 8 -34.375 8 C-34.705 7.01 -35.035 6.02 -35.375 5 C-32.5625 5.5 -32.5625 5.5 -29.375 7 C-27.94793878 9.52926298 -27.22030506 12.23214134 -26.375 15 C-24.58870242 19.11625094 -23.2222213 21.61206954 -19.375 24 C-19.375 22.68 -19.375 21.36 -19.375 20 C-20.365 19.67 -21.355 19.34 -22.375 19 C-22.375 18.34 -22.375 17.68 -22.375 17 C-21.715 17 -21.055 17 -20.375 17 C-21.035 16.01 -21.695 15.02 -22.375 14 C-22.02584845 10.50848452 -20.23601593 7.9128945 -18.375 5 C-19.035 4.67 -19.695 4.34 -20.375 4 C-18.375 2 -18.375 2 -14.75 1.875 C-13.079375 1.936875 -13.079375 1.936875 -11.375 2 C-11.375 1.34 -11.375 0.68 -11.375 0 C-7.34577453 -1.34307516 -3.97171095 -1.67229935 0 0 Z " fill="#242422" transform="translate(132.375,92)"/>
<path d="M0 0 C4.03344727 2.64908613 6.52348741 5.38883407 7.96875 10.0859375 C7.87966084 12.51969139 7.60536963 14.83042847 7.1953125 17.23046875 C7.12054688 17.84277344 7.04578125 18.45507812 6.96875 19.0859375 C7.29875 19.4159375 7.62875 19.7459375 7.96875 20.0859375 C7.96875 18.7659375 7.96875 17.4459375 7.96875 16.0859375 C10.71512817 16.46474828 11.76924058 16.86426037 13.65625 18.9609375 C16.16182477 23.01758237 16.35944687 26.39757502 15.96875 31.0859375 C14.049217 36.33997355 11.05703453 39.63964686 5.96875 42.0859375 C1.56270779 42.94070969 -1.28777475 42.47197273 -5.28125 40.3984375 C-10.08149671 36.3618664 -12.25878674 32.76349525 -14.23828125 26.9453125 C-15.31106836 24.42981169 -17.05190621 22.92877482 -19.03125 21.0859375 C-19.03125 20.0959375 -19.03125 19.1059375 -19.03125 18.0859375 C-21.62499579 19.68208876 -23.61893179 20.9972321 -24.7265625 23.921875 C-25.46265115 28.00951625 -25.2118076 29.74350068 -23.21875 33.5234375 C-20.1896981 37.07175544 -18.40933689 37.24431432 -13.90625 37.6484375 C-12.99617188 37.73222656 -12.08609375 37.81601563 -11.1484375 37.90234375 C-10.44976562 37.96292969 -9.75109375 38.02351563 -9.03125 38.0859375 C-9.03125 39.0759375 -9.03125 40.0659375 -9.03125 41.0859375 C-12.27631466 42.70846983 -15.52426904 42.64933336 -19.03125 42.0859375 C-23.55142681 39.93304696 -27.20812498 36.80461401 -29.03125 32.0859375 C-29.86031819 27.14878988 -29.62652368 23.35487606 -26.78125 19.1484375 C-24.81307967 16.72607402 -23.05692691 15.09449647 -20.03125 14.0859375 C-20.34449219 13.22162109 -20.34449219 13.22162109 -20.6640625 12.33984375 C-21.25125091 8.73550639 -19.45384995 6.82688333 -17.4765625 3.92578125 C-13.16393906 -1.56407183 -6.35579184 -2.86010633 0 0 Z " fill="#1E1E1D" transform="translate(196.03125,35.9140625)"/>
<path d="M0 0 C4.25807275 1.5305515 6.32271545 4.72191406 8.875 8.25 C11.59714096 11.95019789 14.15124048 15.33939188 17.6875 18.3125 C20 21 20 21 20.125 24.875 C19.19247825 29.30661713 17.18150228 33.05922169 15 37 C12.03 37 9.06 37 6 37 C6.495 39.475 6.495 39.475 7 42 C7.66 42 8.32 42 9 42 C9 42.66 9 43.32 9 44 C12.6430399 43.51858233 15.74143064 42.72661057 19 41 C21.62172898 37.56415517 23.08326487 33.82859364 24.625 29.8125 C25.05683594 28.77673828 25.48867187 27.74097656 25.93359375 26.67382812 C26.98966211 24.12752996 28.00952723 21.57236288 29 19 C31.475 19.99 31.475 19.99 34 21 C34 21.66 34 22.32 34 23 C32.515 23.495 32.515 23.495 31 24 C31 24.99 31 25.98 31 27 C30.2575 27.53625 29.515 28.0725 28.75 28.625 C25.01750428 31.84851903 23.86208657 35.52604864 22 40 C20.68799128 42.558417 19.9042929 43.6334492 17.24609375 44.7109375 C12.88261944 45.98603246 9.4758974 46.11897435 5 45 C5 44.34 5 43.68 5 43 C4.01 43 3.02 43 2 43 C1.67 41.35 1.34 39.7 1 38 C0.01 38.66 -0.98 39.32 -2 40 C-7.89113582 41.63642662 -13.45398839 41.68897533 -19 39 C-18.67 38.01 -18.34 37.02 -18 36 C-18.66 35.67 -19.32 35.34 -20 35 C-17.19736645 32.19736645 -15.29712997 31.90627784 -11.5 31.875 C-9.13842874 31.79426437 -9.13842874 31.79426437 -7 31 C-4.79907575 28.26416757 -3.54232636 25.46972242 -3 22 C-4.0182744 19.27953556 -5.4761951 17.29971308 -7.125 14.875 C-9 12 -9 12 -9 10 C-9.99 10 -10.98 10 -12 10 C-11.67 11.32 -11.34 12.64 -11 14 C-13.31 14.33 -15.62 14.66 -18 15 C-18.04125 15.61875 -18.0825 16.2375 -18.125 16.875 C-18.41375 17.57625 -18.7025 18.2775 -19 19 C-22.0625 20.25 -22.0625 20.25 -25 21 C-24.67 22.32 -24.34 23.64 -24 25 C-28.455 27.475 -28.455 27.475 -33 30 C-31.50746792 25.79377323 -29.3892524 22.10414055 -27.12109375 18.28125 C-25.84616987 16.02926292 -25.84616987 16.02926292 -25.7578125 13.38671875 C-25 11 -25 11 -22.12109375 9.48828125 C-20.90550781 9.10027344 -19.68992188 8.71226562 -18.4375 8.3125 C-17.80287842 8.10463867 -17.16825684 7.89677734 -16.5144043 7.68261719 C-12.05410909 6.24575885 -7.5680016 5.03426451 -3 4 C-2.01 3.67 -1.02 3.34 0 3 C0 2.01 0 1.02 0 0 Z " fill="#F3F3F3" transform="translate(173,130)"/>
<path d="M0 0 C0.33 0 0.66 0 1 0 C1.01981934 1.05276123 1.03963867 2.10552246 1.06005859 3.19018555 C1.13708892 7.15833386 1.22564101 11.12616099 1.31738281 15.09399414 C1.35527575 16.79965803 1.39019155 18.50539111 1.421875 20.21118164 C2.0019324 51.07204783 11.21816266 78.9710652 33.57348633 101.05102539 C38.94198085 106.16438922 44.59727366 110.23691405 51 114 C51.79019531 114.48984375 52.58039063 114.9796875 53.39453125 115.484375 C55.55545957 116.77109239 57.74006237 117.89838166 60 119 C60.71929687 119.4125 61.43859375 119.825 62.1796875 120.25 C66.48575181 122.22180049 69.55288063 122.34751563 73.95703125 120.71484375 C98.32317094 110.29001239 116.93327713 91.93062619 127.46875 67.609375 C128.70634119 64.42484157 129.86254029 61.22144839 131 58 C131.57234375 56.54400391 131.57234375 56.54400391 132.15625 55.05859375 C134.1556544 49.92440888 135.45616669 45.40266582 135.62890625 39.875 C136.10553614 37.46676474 137.16070119 36.56120854 139 35 C143.22351156 51.04934391 130.755655 71.71969258 123.046875 85.25195312 C120.466341 89.56086718 117.37403063 93.29622118 114 97 C113.12730469 97.96550781 112.25460938 98.93101562 111.35546875 99.92578125 C100.96712894 111.03361371 86.13335048 122.63703323 71 126 C65.41946511 125.57754193 61.2576067 124.02913733 56.375 121.5 C55.33230957 120.96487793 55.33230957 120.96487793 54.26855469 120.41894531 C29.98771525 107.66234517 10.41553277 85.41044858 2 59 C1.4095356 56.70627292 0.89567145 54.41733379 0.4375 52.09375 C0.02919668 50.13972699 -0.54248804 48.22184475 -1.125 46.3125 C-1.99125155 43.03311912 -2.24095512 40.37337173 -2 37 C-1.505 36.505 -1.505 36.505 -1 36 C-0.83996512 33.33573315 -0.74057111 30.69439572 -0.68359375 28.02734375 C-0.66281265 27.22970108 -0.64203156 26.43205841 -0.62062073 25.61024475 C-0.55503842 23.05275389 -0.49620033 20.4951572 -0.4375 17.9375 C-0.39432301 16.20767118 -0.35070899 14.47785321 -0.30664062 12.74804688 C-0.19934828 8.4988074 -0.09810574 4.2494611 0 0 Z " fill="#1F1F1D" transform="translate(86,84)"/>
<path d="M0 0 C1.63001953 -0.02126953 1.63001953 -0.02126953 3.29296875 -0.04296875 C6.8125 0.1875 6.8125 0.1875 14.8125 2.1875 C14.8125 11.4275 14.8125 20.6675 14.8125 30.1875 C12.8325 29.8575 10.8525 29.5275 8.8125 29.1875 C7.3061178 29.11421399 5.79718675 29.07891531 4.2890625 29.08984375 C3.57314941 29.09234131 2.85723633 29.09483887 2.11962891 29.09741211 C1.23452637 29.10651611 0.34942383 29.11562012 -0.5625 29.125 C-3.40875 29.145625 -6.255 29.16625 -9.1875 29.1875 C-9.1875 19.9475 -9.1875 10.7075 -9.1875 1.1875 C-5.91999965 0.09833322 -3.43732485 0.02014845 0 0 Z " fill="#292927" transform="translate(109.1875,37.8125)"/>
<path d="M0 0 C1.00160156 0.00644531 2.00320312 0.01289062 3.03515625 0.01953125 C5.9375 0.1875 5.9375 0.1875 10.9375 1.1875 C10.9375 10.4275 10.9375 19.6675 10.9375 29.1875 C4.9975 28.8575 -0.9425 28.5275 -7.0625 28.1875 C-6.7325 26.5375 -6.4025 24.8875 -6.0625 23.1875 C-2.1025 22.8575 1.8575 22.5275 5.9375 22.1875 C4.43896484 22.11402344 4.43896484 22.11402344 2.91015625 22.0390625 C1.61980469 21.96429688 0.32945312 21.88953125 -1 21.8125 C-2.28777344 21.74289063 -3.57554687 21.67328125 -4.90234375 21.6015625 C-5.94519531 21.46492188 -6.98804688 21.32828125 -8.0625 21.1875 C-8.3925 20.5275 -8.7225 19.8675 -9.0625 19.1875 C-5.64017028 18.04672343 -2.97576783 18.08934883 0.625 18.125 C2.39423828 18.13853516 2.39423828 18.13853516 4.19921875 18.15234375 C5.10285156 18.16394531 6.00648438 18.17554687 6.9375 18.1875 C6.6075 17.5275 6.2775 16.8675 5.9375 16.1875 C0.3275 16.1875 -5.2825 16.1875 -11.0625 16.1875 C-11.0625 20.1475 -11.0625 24.1075 -11.0625 28.1875 C-10.0725 28.5175 -9.0825 28.8475 -8.0625 29.1875 C-9.3825 29.1875 -10.7025 29.1875 -12.0625 29.1875 C-12.0625 20.2775 -12.0625 11.3675 -12.0625 2.1875 C-7.20519513 0.56839838 -4.82947206 -0.06854735 0 0 Z " fill="#1E1E1D" transform="translate(138.0625,37.8125)"/>
<path d="M0 0 C4.03344727 2.64908613 6.52348741 5.38883407 7.96875 10.0859375 C8.2429773 14.85063684 7.65643033 18.72444755 4.65625 22.5234375 C1.13581147 25.8801347 -0.41260133 27.02368178 -5.28125 27.2109375 C-6.18875 27.1696875 -7.09625 27.1284375 -8.03125 27.0859375 C-7.70125 26.0959375 -7.37125 25.1059375 -7.03125 24.0859375 C-5.9175 23.7971875 -4.80375 23.5084375 -3.65625 23.2109375 C0.1124147 22.43373344 0.1124147 22.43373344 1.90625 19.4609375 C2.256875 18.6771875 2.6075 17.8934375 2.96875 17.0859375 C0.65875 17.0859375 -1.65125 17.0859375 -4.03125 17.0859375 C-4.03125 16.0959375 -4.03125 15.1059375 -4.03125 14.0859375 C-1.39125 13.7559375 1.24875 13.4259375 3.96875 13.0859375 C3.09440227 9.23880747 2.26708959 7.36296712 -0.65625 4.6484375 C-4.34617521 2.94013879 -6.281368 2.67212118 -10.19921875 3.40625 C-13.22317054 4.52814256 -14.44731919 6.36157651 -16.03125 9.0859375 C-16.80958534 11.26808318 -16.80958534 11.26808318 -17.03125 13.0859375 C-15.4534375 13.240625 -15.4534375 13.240625 -13.84375 13.3984375 C-8.73198271 14.3202316 -5.4948187 16.25778263 -2.03125 20.0859375 C-2.36125 21.0759375 -2.69125 22.0659375 -3.03125 23.0859375 C-3.69125 23.0859375 -4.35125 23.0859375 -5.03125 23.0859375 C-5.77375 22.2609375 -6.51625 21.4359375 -7.28125 20.5859375 C-9.82489102 17.77109462 -9.82489102 17.77109462 -13.34375 17.7734375 C-14.230625 17.8765625 -15.1175 17.9796875 -16.03125 18.0859375 C-15.53625 18.6840625 -15.04125 19.2821875 -14.53125 19.8984375 C-13.03125 22.0859375 -13.03125 22.0859375 -13.03125 25.0859375 C-15.49925047 23.93420395 -17.07908565 23.03810185 -19.03125 21.0859375 C-19.03125 20.0959375 -19.03125 19.1059375 -19.03125 18.0859375 C-21.62499579 19.68208876 -23.61893179 20.9972321 -24.7265625 23.921875 C-25.46265115 28.00951625 -25.2118076 29.74350068 -23.21875 33.5234375 C-20.1896981 37.07175544 -18.40933689 37.24431432 -13.90625 37.6484375 C-12.99617188 37.73222656 -12.08609375 37.81601563 -11.1484375 37.90234375 C-10.44976562 37.96292969 -9.75109375 38.02351563 -9.03125 38.0859375 C-9.03125 39.0759375 -9.03125 40.0659375 -9.03125 41.0859375 C-12.27631466 42.70846983 -15.52426904 42.64933336 -19.03125 42.0859375 C-23.55142681 39.93304696 -27.20812498 36.80461401 -29.03125 32.0859375 C-29.86031819 27.14878988 -29.62652368 23.35487606 -26.78125 19.1484375 C-24.81307967 16.72607402 -23.05692691 15.09449647 -20.03125 14.0859375 C-20.34449219 13.22162109 -20.34449219 13.22162109 -20.6640625 12.33984375 C-21.25125091 8.73550639 -19.45384995 6.82688333 -17.4765625 3.92578125 C-13.16393906 -1.56407183 -6.35579184 -2.86010633 0 0 Z " fill="#E0E0E0" transform="translate(196.03125,35.9140625)"/>
<path d="M0 0 C-0.25620684 1.6065676 -0.53055871 3.2102483 -0.8125 4.8125 C-0.96332031 5.70582031 -1.11414063 6.59914063 -1.26953125 7.51953125 C-2.07144431 10.24260499 -2.95207232 11.12273296 -5 13 C-6.20049407 16.10007201 -6.20049407 16.10007201 -7 19 C-8.65 19 -10.3 19 -12 19 C-12.33 17.68 -12.66 16.36 -13 15 C-12.34 14.67 -11.68 14.34 -11 14 C-10.62599214 11.67284 -10.29235267 9.33882138 -10 7 C-9.67 6.67 -9.34 6.34 -9 6 C-9.66 5.67 -10.32 5.34 -11 5 C-11 7.64 -11 10.28 -11 13 C-12.65 13.33 -14.3 13.66 -16 14 C-15.34 14.33 -14.68 14.66 -14 15 C-14.33 16.32 -14.66 17.64 -15 19 C-16.65 19 -18.3 19 -20 19 C-20.26554687 18.39671875 -20.53109375 17.7934375 -20.8046875 17.171875 C-21.33449219 15.97304687 -21.33449219 15.97304687 -21.875 14.75 C-22.22304687 13.96109375 -22.57109375 13.1721875 -22.9296875 12.359375 C-23.90413905 10.21131392 -24.92986429 8.10170798 -26 6 C-25.34 5.01 -24.68 4.02 -24 3 C-24.66 3 -25.32 3 -26 3 C-26 1.68 -26 0.36 -26 -1 C-16.84790717 -4.18333664 -8.94241339 -3.62880543 0 0 Z " fill="#EDEDED" transform="translate(146,101)"/>
<path d="M0 0 C0.33 0 0.66 0 1 0 C1.01981934 1.05276123 1.03963867 2.10552246 1.06005859 3.19018555 C1.13708892 7.15833386 1.22564101 11.12616099 1.31738281 15.09399414 C1.35527575 16.79965803 1.39019155 18.50539111 1.421875 20.21118164 C2.00207859 51.07982576 11.22297285 78.95190906 33.56689453 101.04663086 C40.58763482 107.73936066 48.27290132 112.75195638 57 117 C56.01 117.99 55.02 118.98 54 120 C30.48348486 109.59846446 13.39900153 86.98641141 3.625 63.6875 C2.20249946 59.88168714 1.22287707 56.07673372 0.4375 52.09375 C0.02919668 50.13972699 -0.54248804 48.22184475 -1.125 46.3125 C-1.99125155 43.03311912 -2.24095512 40.37337173 -2 37 C-1.505 36.505 -1.505 36.505 -1 36 C-0.83996512 33.33573315 -0.74057111 30.69439572 -0.68359375 28.02734375 C-0.66281265 27.22970108 -0.64203156 26.43205841 -0.62062073 25.61024475 C-0.55503842 23.05275389 -0.49620033 20.4951572 -0.4375 17.9375 C-0.39432301 16.20767118 -0.35070899 14.47785321 -0.30664062 12.74804688 C-0.19934828 8.4988074 -0.09810574 4.2494611 0 0 Z " fill="#222221" transform="translate(86,84)"/>
<path d="M0 0 C0 0.66 0 1.32 0 2 C2.31 2.33 4.62 2.66 7 3 C3.49461443 4.96301592 -0.13351728 5.95902388 -4 7 C-4 7.66 -4 8.32 -4 9 C-5.91635217 9.05423638 -7.83314925 9.09289963 -9.75 9.125 C-11.35101563 9.15980469 -11.35101563 9.15980469 -12.984375 9.1953125 C-16 9 -16 9 -17.9453125 8.00390625 C-21.00072066 6.51105474 -23.75319107 6.77378403 -27.125 6.8125 C-28.36507812 6.81894531 -29.60515625 6.82539062 -30.8828125 6.83203125 C-33.90678112 6.78737405 -33.90678112 6.78737405 -36 8 C-35.67 9.65 -35.34 11.3 -35 13 C-25.72644826 16.09118391 -13.19432127 13.53238428 -4.34375 9.9140625 C-1.83896622 8.93719683 0.01190391 8.73182957 2.6875 8.75 C3.83798828 8.74226563 3.83798828 8.74226563 5.01171875 8.734375 C7 9 7 9 9 11 C7.01432292 10.96744792 5.02864583 10.93489583 3.04296875 10.90234375 C0.79694539 10.91736783 0.79694539 10.91736783 -2 12 C1.3 12.33 4.6 12.66 8 13 C9.125 19.75 9.125 19.75 8 22 C6.68 21.67 5.36 21.34 4 21 C4.99 20.34 5.98 19.68 7 19 C6.505 17.02 6.505 17.02 6 15 C0.66100144 14.65180444 -3.4977452 15.56874322 -8.5703125 17.24609375 C-14.24514453 19.00693391 -19.59768818 19.21384495 -25.5 19.25 C-26.34175781 19.270625 -27.18351563 19.29125 -28.05078125 19.3125 C-32.7828721 19.34230845 -36.26456731 19.27615818 -40 16 C-40 15.01 -40 14.02 -40 13 C-39.5875 13.474375 -39.175 13.94875 -38.75 14.4375 C-33.99416859 18.68377805 -25.99118061 17.38502367 -19.97607422 17.15820312 C-15.17713896 16.77400371 -10.57697405 15.4319025 -6 14 C-6.680625 14.144375 -7.36125 14.28875 -8.0625 14.4375 C-14.23712495 15.61987499 -20.22679401 16.21546859 -26.5 16.25 C-27.18191406 16.25902344 -27.86382812 16.26804687 -28.56640625 16.27734375 C-32.17359272 16.25582972 -35.01063691 16.13001302 -38 14 C-38.9375 11.625 -38.9375 11.625 -39 9 C-38.015625 6.8515625 -38.015625 6.8515625 -36 5 C-33.12961948 4.70438924 -30.66245255 4.62056984 -27.8125 4.75 C-27.06291016 4.76804687 -26.31332031 4.78609375 -25.54101562 4.8046875 C-23.6934629 4.85175891 -21.84656841 4.92350234 -20 5 C-20 4.34 -20 3.68 -20 3 C-24.95 3 -29.9 3 -35 3 C-35 2.67 -35 2.34 -35 2 C-33.89140625 1.95101562 -32.7828125 1.90203125 -31.640625 1.8515625 C-30.17705935 1.77650785 -28.71351888 1.70096119 -27.25 1.625 C-26.15558594 1.57859375 -26.15558594 1.57859375 -25.0390625 1.53125 C-15.95082485 1.03552795 -9.44243297 -1.57373883 0 0 Z " fill="#1D1D1B" transform="translate(204,94)"/>
<path d="M0 0 C2.31 0 4.62 0 7 0 C7.1959375 0.78503906 7.391875 1.57007812 7.59375 2.37890625 C9.55774966 9.2783016 11.46715137 13.11655747 17.16015625 17.484375 C19.76857952 19.63313982 20.899821 21.83698537 22 25 C22.1875 27.875 22.1875 27.875 22 30 C23.65 29.67 25.3 29.34 27 29 C27 31.31 27 33.62 27 36 C24.9530163 37.24281153 23.52603285 38.00542302 21.10546875 37.98046875 C17.78122738 36.43244541 16.66477344 33.38474486 15.0625 30.25 C12.54065411 25.37813741 10.04776991 21.81552082 6 18 C4.63988391 16.01811655 3.30208796 14.02048131 2 12 C1.34 11.34 0.68 10.68 0 10 C-0.87401862 6.34501304 -1.2393919 3.5804655 0 0 Z " fill="#D9D9D9" transform="translate(95,100)"/>
<path d="M0 0 C3.67056937 1.47797262 5.41085783 3.47615477 7.75 6.625 C8.67039062 7.85089844 8.67039062 7.85089844 9.609375 9.1015625 C10.29773438 10.04128906 10.29773438 10.04128906 11 11 C10.67 11.66 10.34 12.32 10 13 C9.67 13 9.34 13 9 13 C8.67 15.64 8.34 18.28 8 21 C9.32 21.33 10.64 21.66 12 22 C12 22.66 12 23.32 12 24 C11.01 24.33 10.02 24.66 9 25 C8.71125 25.61875 8.4225 26.2375 8.125 26.875 C6.64041877 29.67920898 4.76025753 30.54723288 2 32 C3.05875074 28.59687262 4.00902154 25.98646769 6 23 C6.20418278 20.84779972 6.20418278 20.84779972 6.0625 18.5625 C5.96661269 16.09861305 5.93725646 14.21822125 6.62109375 11.83984375 C6.74613281 11.23269531 6.87117188 10.62554687 7 10 C3.99382731 6.99382731 1.17618402 7.40414684 -3 7 C-2.67 7.99 -2.34 8.98 -2 10 C-3.65 10.33 -5.3 10.66 -7 11 C-6.566875 11.50789062 -6.13375 12.01578125 -5.6875 12.5390625 C-1.08233276 18.23156089 -1.08233276 18.23156089 -0.625 22.5 C-0.810625 23.7375 -0.810625 23.7375 -1 25 C-1.66 25 -2.32 25 -3 25 C-2.9071875 23.89205078 -2.9071875 23.89205078 -2.8125 22.76171875 C-3.0371238 19.45319737 -3.90034035 18.32528713 -6 15.8125 C-9 12.18055556 -9 12.18055556 -9 10 C-9.99 10 -10.98 10 -12 10 C-11.67 11.32 -11.34 12.64 -11 14 C-13.31 14.33 -15.62 14.66 -18 15 C-18.04125 15.61875 -18.0825 16.2375 -18.125 16.875 C-18.41375 17.57625 -18.7025 18.2775 -19 19 C-22.0625 20.25 -22.0625 20.25 -25 21 C-24.67 22.32 -24.34 23.64 -24 25 C-28.455 27.475 -28.455 27.475 -33 30 C-31.50746792 25.79377323 -29.3892524 22.10414055 -27.12109375 18.28125 C-25.84616987 16.02926292 -25.84616987 16.02926292 -25.7578125 13.38671875 C-25 11 -25 11 -22.12109375 9.48828125 C-20.90550781 9.10027344 -19.68992188 8.71226562 -18.4375 8.3125 C-17.80287842 8.10463867 -17.16825684 7.89677734 -16.5144043 7.68261719 C-12.05410909 6.24575885 -7.5680016 5.03426451 -3 4 C-2.01 3.67 -1.02 3.34 0 3 C0 2.01 0 1.02 0 0 Z " fill="#2C2C2B" transform="translate(173,130)"/>
<path d="M0 0 C7.47251473 -0.36750072 7.47251473 -0.36750072 9.77734375 1.23828125 C11.37723287 3.54355279 11.18013909 4.63520102 10.75 7.375 C10.64171875 8.12523437 10.5334375 8.87546875 10.421875 9.6484375 C10.28265625 10.42445313 10.1434375 11.20046875 10 12 C9.89558594 12.77214844 9.79117188 13.54429687 9.68359375 14.33984375 C8.76252232 17.92412742 7.11010425 20.98394829 5.3125 24.1875 C4.98572266 24.81591797 4.65894531 25.44433594 4.32226562 26.09179688 C2.54222512 29.27408727 1.30782598 30.8546488 -2.01953125 32.42578125 C-5 33 -5 33 -9 33 C-9 32.34 -9 31.68 -9 31 C-9.99 30.67 -10.98 30.34 -12 30 C-12 28.68 -12 27.36 -12 26 C-9.03 25.67 -6.06 25.34 -3 25 C-2.01 22.69 -1.02 20.38 0 18 C0.66 18 1.32 18 2 18 C0.70327008 12.22365761 -1.42069099 8.70961712 -5 4 C-5 3.67 -5 3.34 -5 3 C-3.35 2.67 -1.7 2.34 0 2 C0 1.34 0 0.68 0 0 Z " fill="#F7F7F6" transform="translate(170,137)"/>
<path d="M0 0 C2.74637817 0.37881078 3.80049058 0.77832287 5.6875 2.875 C8.19307477 6.93164487 8.39069687 10.31163752 8 15 C6.080467 20.25403605 3.08828453 23.55370936 -2 26 C-6.40604221 26.85477219 -9.25652475 26.38603523 -13.25 24.3125 C-19.76485957 18.83409536 -19.76485957 18.83409536 -20.3125 14.5625 C-20.47191011 7.70786517 -20.47191011 7.70786517 -18 4 C-17.34 4 -16.68 4 -16 4 C-16 6.97 -16 9.94 -16 13 C-12.535 12.505 -12.535 12.505 -9 12 C-9.875 19.875 -9.875 19.875 -11 21 C-4.69860105 21.51597094 -4.69860105 21.51597094 1 19.125 C3.54563862 16.44528828 3.54563862 16.44528828 3.984375 12.94140625 C3.90703125 12.15636719 3.8296875 11.37132812 3.75 10.5625 C3.64945313 9.38880859 3.64945313 9.38880859 3.546875 8.19140625 C2.90299949 5.61130508 1.8749293 4.80940758 0 3 C0 2.01 0 1.02 0 0 Z " fill="#DFDFDE" transform="translate(204,52)"/>
<path d="M0 0 C2.56226558 1.44337231 3.93560754 2.78455443 6 5 C6.375 7.8125 6.375 7.8125 6 10 C3.36 10.66 0.72 11.32 -2 12 C-2 12.33 -2 12.66 -2 13 C0.31 13.33 2.62 13.66 5 14 C4.67 15.32 4.34 16.64 4 18 C2.68 18.33 1.36 18.66 0 19 C-0.61875 18.071875 -1.2375 17.14375 -1.875 16.1875 C-5.31273353 11.97253976 -9.87059953 11.1354401 -15 10 C-14.68031467 6.48346139 -14.37757864 4.46568032 -12.125 1.6875 C-8.02963345 -1.56470285 -4.91977214 -1.16740356 0 0 Z " fill="#1C1C1B" transform="translate(194,39)"/>
<path d="M0 0 C2.0622048 -0.054348 4.12482816 -0.09294961 6.1875 -0.125 C7.33605469 -0.14820313 8.48460938 -0.17140625 9.66796875 -0.1953125 C13 0 13 0 18 2 C18 7.61 18 13.22 18 19 C17.34 19.33 16.68 19.66 16 20 C16 19.34 16 18.68 16 18 C12.37 17.67 8.74 17.34 5 17 C6.32 16.34 7.64 15.68 9 15 C5.7 14.67 2.4 14.34 -1 14 C-1 13.34 -1 12.68 -1 12 C1.76452033 10.61773984 4.0461363 10.90474613 7.125 10.9375 C8.22070312 10.94652344 9.31640625 10.95554687 10.4453125 10.96484375 C11.28835937 10.97644531 12.13140625 10.98804688 13 11 C13 10.34 13 9.68 13 9 C8.71 8.67 4.42 8.34 0 8 C0 7.34 0 6.68 0 6 C2.76452033 4.61773984 5.0461363 4.90474613 8.125 4.9375 C9.22070312 4.94652344 10.31640625 4.95554687 11.4453125 4.96484375 C12.28835937 4.97644531 13.13140625 4.98804688 14 5 C12.05909174 3.05909174 8.52706098 3.60080565 5.9375 3.4375 C4.64714844 3.35371094 3.35679688 3.26992188 2.02734375 3.18359375 C0.52880859 3.09271484 0.52880859 3.09271484 -1 3 C-0.67 2.01 -0.34 1.02 0 0 Z " fill="#222220" transform="translate(105,42)"/>
<path d="M0 0 C1.23492187 -0.01417969 2.46984375 -0.02835937 3.7421875 -0.04296875 C7.00341829 0.17921672 8.34080991 0.70145989 11.125 2.1875 C14.00655527 2.546166 16.86269955 2.69015958 19.76171875 2.84375 C20.54160156 2.9571875 21.32148438 3.070625 22.125 3.1875 C22.62 4.1775 22.62 4.1775 23.125 5.1875 C0.40254217 11.72072024 0.40254217 11.72072024 -8 7.6875 C-8.61875 7.1925 -9.2375 6.6975 -9.875 6.1875 C-9.5 3.75 -9.5 3.75 -8.875 1.1875 C-5.9336446 -0.2831777 -3.27272595 0.01701001 0 0 Z " fill="#F3F3F3" transform="translate(176.875,99.8125)"/>
<path d="M0 0 C0.87785156 0.06703125 1.75570312 0.1340625 2.66015625 0.203125 C4.9375 0.75 4.9375 0.75 6.9375 3.75 C7.33690109 7.41117666 7.55395505 9.76927606 5.5625 12.9375 C0.0093553 16.7718142 -6.21917508 19.47034999 -13.0625 18.75 C-12.7325 19.74 -12.4025 20.73 -12.0625 21.75 C-11.86680826 25.2760752 -11.71809893 28.79592282 -11.6328125 32.32617188 C-11.4289218 37.16432831 -10.59460923 40.49145267 -8.0625 44.75 C-10.42689386 43.80424246 -11.79061246 43.18055857 -13.16943359 40.99707031 C-14.20057116 38.40259514 -14.37933136 36.33416762 -14.4765625 33.546875 C-14.51523438 32.5671875 -14.55390625 31.5875 -14.59375 30.578125 C-14.6246875 29.56234375 -14.655625 28.5465625 -14.6875 27.5 C-14.72617188 26.46875 -14.76484375 25.4375 -14.8046875 24.375 C-14.89881674 21.8335106 -14.98444979 19.29202567 -15.0625 16.75 C-13.0825 16.75 -11.1025 16.75 -9.0625 16.75 C-9.0625 16.09 -9.0625 15.43 -9.0625 14.75 C-12.3625 14.75 -15.6625 14.75 -19.0625 14.75 C-19.0625 14.42 -19.0625 14.09 -19.0625 13.75 C-18.13308594 13.68941406 -17.20367187 13.62882812 -16.24609375 13.56640625 C-7.12103115 12.95428448 -7.12103115 12.95428448 1.9375 11.75 C1.9375 8.78 1.9375 5.81 1.9375 2.75 C-1.6925 2.75 -5.3225 2.75 -9.0625 2.75 C-7.16503935 -1.04492131 -3.71434735 -0.32821921 0 0 Z " fill="#5C5C5C" transform="translate(210.0625,104.25)"/>
<path d="M0 0 C1.32 0 2.64 0 4 0 C4.08089542 2.77141717 4.14044062 5.54047819 4.1875 8.3125 C4.22520508 9.49102539 4.22520508 9.49102539 4.26367188 10.69335938 C4.27817383 11.8293457 4.27817383 11.8293457 4.29296875 12.98828125 C4.31653442 14.03302612 4.31653442 14.03302612 4.34057617 15.09887695 C3.89548875 17.58339006 2.95700321 18.45862247 1 20 C-1.72507798 20.39078556 -4.23121956 20.13616953 -7 20 C-7.33 19.01 -7.66 18.02 -8 17 C-5.36 17 -2.72 17 0 17 C0 16.01 0 15.02 0 14 C-0.928125 14.061875 -1.85625 14.12375 -2.8125 14.1875 C-6 14 -6 14 -7.875 12.9375 C-9.64796631 9.88405803 -9.36343372 7.45262038 -9 4 C-6.91277547 -0.52231983 -4.69809857 -0.38351825 0 0 Z " fill="#313130" transform="translate(154,374)"/>
<path d="M0 0 C2.91547264 4.37320896 1.63654191 7.4302809 0.765625 12.44921875 C-2.31758597 26.74839615 -9.0891102 39.26853069 -16 52 C-17.32 51.34 -18.64 50.68 -20 50 C-19.48050781 49.14019531 -18.96101562 48.28039062 -18.42578125 47.39453125 C-13.7363708 39.49888843 -10.0659816 31.68329788 -7 23 C-6.6184375 22.02933594 -6.236875 21.05867188 -5.84375 20.05859375 C-3.85165901 14.94318868 -2.53631148 10.37513254 -2.2734375 4.875 C-2 3 -2 3 0 0 Z " fill="#222221" transform="translate(224,119)"/>
<path d="M0 0 C1.32 0 2.64 0 4 0 C5.010625 -0.061875 6.02125 -0.12375 7.0625 -0.1875 C10 0 10 0 11.875 1.0625 C13.64796631 4.11594197 13.36343372 6.54737962 13 10 C11.875 12.4375 11.875 12.4375 10 14 C6.875 14.3125 6.875 14.3125 4 14 C3.67 13.67 3.34 13.34 3 13 C2.67 14.98 2.34 16.96 2 19 C1.34 19 0.68 19 0 19 C0 12.73 0 6.46 0 0 Z " fill="#040404" transform="translate(178,374)"/>
<path d="M0 0 C0.66 0 1.32 0 2 0 C2 0.66 2 1.32 2 2 C1.01 2.495 1.01 2.495 0 3 C0.33 4.65 0.66 6.3 1 8 C10.27355174 11.09118391 22.80567873 8.53238428 31.65625 4.9140625 C34.16103378 3.93719683 36.01190391 3.73182957 38.6875 3.75 C39.83798828 3.74226563 39.83798828 3.74226563 41.01171875 3.734375 C43 4 43 4 45 6 C43.01432292 5.96744792 41.02864583 5.93489583 39.04296875 5.90234375 C36.79694539 5.91736783 36.79694539 5.91736783 34 7 C37.3 7.33 40.6 7.66 44 8 C45.125 14.75 45.125 14.75 44 17 C42.68 16.67 41.36 16.34 40 16 C40.99 15.34 41.98 14.68 43 14 C42.505 12.02 42.505 12.02 42 10 C36.66100144 9.65180444 32.5022548 10.56874322 27.4296875 12.24609375 C21.75485547 14.00693391 16.40231182 14.21384495 10.5 14.25 C9.23736328 14.2809375 9.23736328 14.2809375 7.94921875 14.3125 C3.2171279 14.34230845 -0.26456731 14.27615818 -4 11 C-4 10.01 -4 9.02 -4 8 C-3.5875 8.474375 -3.175 8.94875 -2.75 9.4375 C2.00583141 13.68377805 10.00881939 12.38502367 16.02392578 12.15820312 C20.82286104 11.77400371 25.42302595 10.4319025 30 9 C29.319375 9.144375 28.63875 9.28875 27.9375 9.4375 C21.76287505 10.61987499 15.77320599 11.21546859 9.5 11.25 C8.81808594 11.25902344 8.13617188 11.26804687 7.43359375 11.27734375 C3.82640728 11.25582972 0.98936309 11.13001302 -2 9 C-2.9375 6.625 -2.9375 6.625 -3 4 C-1.6875 1.6875 -1.6875 1.6875 0 0 Z " fill="#4A4A49" transform="translate(168,99)"/>
<path d="M0 0 C2.375 1.0625 2.375 1.0625 4 3 C4.57491549 6.95254396 4.61372366 9.07941451 2.375 12.4375 C-0.68118452 14.44814771 -2.40649325 14.53520313 -6 14 C-8.89006581 12.30582349 -9.04476264 10.83587031 -9.9375 7.5625 C-10 4 -10 4 -8.4375 1.5625 C-5.32360394 -0.43358722 -3.64004022 -0.5308392 0 0 Z " fill="#121211" transform="translate(83,374)"/>
<path d="M0 0 C2.4375 1.0625 2.4375 1.0625 4 3 C4.5625 6.4375 4.5625 6.4375 4 10 C1.58140437 12.69500656 -0.00763965 13.80636871 -3.5625 14.5 C-6.9249123 13.8102744 -8.0486167 12.81866476 -10 10 C-10.42519574 6.53769185 -10.63902633 4.1652833 -8.9375 1.0625 C-5.87116726 -0.61903731 -3.42486249 -0.36051184 0 0 Z " fill="#1C1C1C" transform="translate(96,342)"/>
<path d="M0 0 C2.4375 1.5625 2.4375 1.5625 4 4 C3.93913078 7.46954545 3.6274029 9.91947278 1.875 12.9375 C-1.17468171 14.66565297 -3.58518389 14.42685201 -7 14 C-9.87915173 11.67810344 -9.98552483 10.11786923 -10.4375 6.4375 C-10 3 -10 3 -8.375 1.0625 C-5.29442492 -0.31565201 -3.34262452 -0.48746608 0 0 Z " fill="#242423" transform="translate(204,374)"/>
<path d="M0 0 C1.12588014 0.95729916 2.2506715 1.91587895 3.375 2.875 C4.00148437 3.40867188 4.62796875 3.94234375 5.2734375 4.4921875 C6.55836651 5.61432007 7.79371975 6.79371975 9 8 C8.78252656 14.30672982 7.03998167 18.5084202 4 24 C1.03 24 -1.94 24 -5 24 C-4.67 25.65 -4.34 27.3 -4 29 C-3.34 29 -2.68 29 -2 29 C-2 29.66 -2 30.32 -2 31 C1.6430399 30.51858233 4.74143064 29.72661057 8 28 C10.62172898 24.56415517 12.08326487 20.82859364 13.625 16.8125 C14.05683594 15.77673828 14.48867187 14.74097656 14.93359375 13.67382812 C15.98966211 11.12752996 17.00952723 8.57236288 18 6 C19.65 6.66 21.3 7.32 23 8 C23 8.66 23 9.32 23 10 C22.01 10.33 21.02 10.66 20 11 C20 11.99 20 12.98 20 14 C19.2575 14.53625 18.515 15.0725 17.75 15.625 C14.01750428 18.84851903 12.86208657 22.52604864 11 27 C9.68799128 29.558417 8.9042929 30.6334492 6.24609375 31.7109375 C1.88261944 32.98603246 -1.5241026 33.11897435 -6 32 C-6 31.01 -6 30.02 -6 29 C-6.66 29 -7.32 29 -8 29 C-8.33 27.68 -8.66 26.36 -9 25 C-5.96474514 22.97649676 -4.80573798 22.67875982 -1.3125 22.375 C-0.50425781 22.30023438 0.30398437 22.22546875 1.13671875 22.1484375 C2.05904297 22.07496094 2.05904297 22.07496094 3 22 C5.97380333 15.21969677 5.97380333 15.21969677 6 8 C4.55428464 6.24837965 3.03294113 4.77836597 1.3125 3.296875 C0.879375 2.86890625 0.44625 2.4409375 0 2 C0 1.34 0 0.68 0 0 Z " fill="#464645" transform="translate(184,143)"/>
<path d="M0 0 C0.33 0 0.66 0 1 0 C1.01981934 1.05276123 1.03963867 2.10552246 1.06005859 3.19018555 C1.13708892 7.15833386 1.22564101 11.12616099 1.31738281 15.09399414 C1.35527575 16.79965803 1.39019155 18.50539111 1.421875 20.21118164 C1.75454688 39.14759515 1.75454688 39.14759515 6.5 57.375 C8.23364007 61.88880678 9.72615221 66.34101964 11 71 C6.37632192 69.60143291 6.37632192 69.60143291 4.70703125 66.93359375 C4.41183594 66.10988281 4.11664063 65.28617187 3.8125 64.4375 C3.33103516 63.09558594 3.33103516 63.09558594 2.83984375 61.7265625 C1.85826849 58.53986701 1.08232583 55.36393816 0.4375 52.09375 C0.02919668 50.13972699 -0.54248804 48.22184475 -1.125 46.3125 C-1.99125155 43.03311912 -2.24095512 40.37337173 -2 37 C-1.505 36.505 -1.505 36.505 -1 36 C-0.83996512 33.33573315 -0.74057111 30.69439572 -0.68359375 28.02734375 C-0.66281265 27.22970108 -0.64203156 26.43205841 -0.62062073 25.61024475 C-0.55503842 23.05275389 -0.49620033 20.4951572 -0.4375 17.9375 C-0.39432301 16.20767118 -0.35070899 14.47785321 -0.30664062 12.74804688 C-0.19934828 8.4988074 -0.09810574 4.2494611 0 0 Z " fill="#414141" transform="translate(86,84)"/>
<path d="M0 0 C0.99 0 1.98 0 3 0 C3.08090971 1.62418745 3.13914995 3.24951745 3.1875 4.875 C3.23970703 6.23238281 3.23970703 6.23238281 3.29296875 7.6171875 C3.19628906 8.40351562 3.09960938 9.18984375 3 10 C2.01 10.66 1.02 11.32 0 12 C-0.99 11.67 -1.98 11.34 -3 11 C-5.22818441 10.93062938 -7.45834524 10.91542916 -9.6875 10.9375 C-10.86699219 10.94652344 -12.04648438 10.95554687 -13.26171875 10.96484375 C-14.61716797 10.98224609 -14.61716797 10.98224609 -16 11 C-16 9 -16 9 -14.5 7.375 C-14.005 6.92125 -13.51 6.4675 -13 6 C-13.99 5.67 -14.98 5.34 -16 5 C-16 4.34 -16 3.68 -16 3 C-12.53777385 1.93276039 -9.35960734 1.89826514 -5.75 1.9375 C-4.67234375 1.94652344 -3.5946875 1.95554688 -2.484375 1.96484375 C-1.66453125 1.97644531 -0.8446875 1.98804688 0 2 C0 1.34 0 0.68 0 0 Z " fill="#2A2A28" transform="translate(145,40)"/>
<path d="M0 0 C0.33 0 0.66 0 1 0 C1 9.24 1 18.48 1 28 C-0.98 27.67 -2.96 27.34 -5 27 C-5 26.34 -5 25.68 -5 25 C-10.28 25 -15.56 25 -21 25 C-20.67 23.35 -20.34 21.7 -20 20 C-17.04412889 18.52206445 -14.35002355 18.82946349 -11.0625 18.8125 C-9.81597656 18.79832031 -8.56945312 18.78414062 -7.28515625 18.76953125 C-4 19 -4 19 -1 21 C-0.67 14.07 -0.34 7.14 0 0 Z " fill="#30302E" transform="translate(123,40)"/>
<path d="M0 0 C1.32 0 2.64 0 4 0 C4.42152344 0.78246094 4.84304687 1.56492187 5.27734375 2.37109375 C5.82519531 3.38300781 6.37304688 4.39492188 6.9375 5.4375 C7.48277344 6.44683594 8.02804688 7.45617187 8.58984375 8.49609375 C9.77699468 10.86670493 9.77699468 10.86670493 11 12 C11.33 8.04 11.66 4.08 12 0 C12.99 0 13.98 0 15 0 C15 6.27 15 12.54 15 19 C13.35 19 11.7 19 10 19 C7.74138003 14.06612142 5.59890486 9.19644079 4 4 C3.34 4 2.68 4 2 4 C2 8.62 2 13.24 2 18 C1.34 18 0.68 18 0 18 C0 12.06 0 6.12 0 0 Z " fill="#272725" transform="translate(34,337)"/>
<path d="M0 0 C1.75 1.21875 1.75 1.21875 2.5 3.34375 C2.62375 4.271875 2.62375 4.271875 2.75 5.21875 C0.44 5.54875 -1.87 5.87875 -4.25 6.21875 C-4.29125 6.8375 -4.3325 7.45625 -4.375 8.09375 C-4.808125 9.145625 -4.808125 9.145625 -5.25 10.21875 C-8.3125 11.46875 -8.3125 11.46875 -11.25 12.21875 C-10.92 13.53875 -10.59 14.85875 -10.25 16.21875 C-14.705 18.69375 -14.705 18.69375 -19.25 21.21875 C-17.75746792 17.01252323 -15.6392524 13.32289055 -13.37109375 9.5 C-12.17667706 7.06954932 -11.66768433 4.8844208 -11.25 2.21875 C-9.84054634 1.65858252 -8.4219969 1.12126498 -7 0.59375 C-6.21109375 0.29210937 -5.4221875 -0.00953125 -4.609375 -0.3203125 C-2.25 -0.78125 -2.25 -0.78125 0 0 Z " fill="#1F1F1D" transform="translate(159.25,138.78125)"/>
<path d="M0 0 C1.10408203 0.10538086 1.10408203 0.10538086 2.23046875 0.21289062 C4.0311978 0.38828631 5.82862661 0.59702053 7.625 0.8125 C7.625 1.4725 7.625 2.1325 7.625 2.8125 C6.49320313 2.84988281 5.36140625 2.88726562 4.1953125 2.92578125 C2.71350795 2.99143082 1.23173861 3.05787851 -0.25 3.125 C-1.36955078 3.15883789 -1.36955078 3.15883789 -2.51171875 3.19335938 C-4.474604 3.29061945 -6.42828322 3.54292294 -8.375 3.8125 C-10.70891203 6.59364056 -10.70891203 6.59364056 -10 9.5 C-9.690625 10.6446875 -9.690625 10.6446875 -9.375 11.8125 C-5.78518836 13.00910388 -2.48778856 13.00343034 1.25 13 C1.96841064 13.00064453 2.68682129 13.00128906 3.42700195 13.00195312 C8.75994623 12.94897885 13.45549701 12.16843521 18.625 10.8125 C21.6875 10.6875 21.6875 10.6875 23.625 10.8125 C18.35577235 16.08172765 8.70760744 16.03552804 1.6875 16.125 C-3.95531594 16.10719932 -7.76126916 15.22532748 -12.6875 12.5625 C-14.375 10.8125 -14.375 10.8125 -15 7.9375 C-14.28456084 4.36030422 -13.0441557 3.04147013 -10.21533203 0.80664062 C-6.87081778 -1.00005373 -3.66294199 -0.46035166 0 0 Z " fill="#CBCBCB" transform="translate(176.375,96.1875)"/>
<path d="M0 0 C2.375 1.75 2.375 1.75 4 4 C4 5.32 4 6.64 4 8 C0.7 8 -2.6 8 -6 8 C-4.29107501 11.31460705 -4.29107501 11.31460705 -0.875 11.6875 C0.07375 11.790625 1.0225 11.89375 2 12 C2 12.66 2 13.32 2 14 C-5.28358209 14.35820896 -5.28358209 14.35820896 -8 13 C-9.62761708 9.74476583 -9.5336379 6.55758602 -9 3 C-6.89524812 -0.74178112 -4.00297686 -0.57185384 0 0 Z " fill="#171716" transform="translate(230,374)"/>
<path d="M0 0 C3.375 -0.125 3.375 -0.125 7 0 C9 2 9 2 9.1953125 4.8203125 C9.16050781 6.45613281 9.16050781 6.45613281 9.125 8.125 C9.10695312 9.22070312 9.08890625 10.31640625 9.0703125 11.4453125 C9.04710937 12.28835938 9.02390625 13.13140625 9 14 C7.37581255 14.08090971 5.75048255 14.13914995 4.125 14.1875 C2.76761719 14.23970703 2.76761719 14.23970703 1.3828125 14.29296875 C0.20332031 14.14794922 0.20332031 14.14794922 -1 14 C-3 11 -3 11 -2.75 8.9375 C-2 7 -2 7 0 5 C3.125 4.875 3.125 4.875 6 5 C5.67 4.01 5.34 3.02 5 2 C3.02 2 1.04 2 -1 2 C-0.67 1.34 -0.34 0.68 0 0 Z " fill="#464646" transform="translate(122,342)"/>
<path d="M0 0 C1.60294922 0.01353516 1.60294922 0.01353516 3.23828125 0.02734375 C4.04652344 0.03894531 4.85476562 0.05054688 5.6875 0.0625 C6.0175 1.0525 6.3475 2.0425 6.6875 3.0625 C5.77226562 3.12308594 4.85703125 3.18367188 3.9140625 3.24609375 C2.72554687 3.32988281 1.53703125 3.41367187 0.3125 3.5 C-0.87085938 3.58121094 -2.05421875 3.66242187 -3.2734375 3.74609375 C-6.22768901 3.87334936 -6.22768901 3.87334936 -8.3125 5.0625 C-6.81396484 5.13597656 -6.81396484 5.13597656 -5.28515625 5.2109375 C-3.34962891 5.32308594 -3.34962891 5.32308594 -1.375 5.4375 C0.55666016 5.54191406 0.55666016 5.54191406 2.52734375 5.6484375 C4.09162109 5.85339844 4.09162109 5.85339844 5.6875 6.0625 C6.0175 6.7225 6.3475 7.3825 6.6875 8.0625 C2.3975 8.0625 -1.8925 8.0625 -6.3125 8.0625 C-6.3125 10.0425 -6.3125 12.0225 -6.3125 14.0625 C-7.9625 13.7325 -9.6125 13.4025 -11.3125 13.0625 C-11.3125 9.1025 -11.3125 5.1425 -11.3125 1.0625 C-7.25072627 0.25014525 -4.07899908 -0.04482417 0 0 Z " fill="#979796" transform="translate(138.3125,52.9375)"/>
<path d="M0 0 C0.81984375 -0.01224609 1.6396875 -0.02449219 2.484375 -0.03710938 C3.27328125 -0.03904297 4.0621875 -0.04097656 4.875 -0.04296875 C5.59429687 -0.04707764 6.31359375 -0.05118652 7.0546875 -0.05541992 C9 0.1875 9 0.1875 12 2.1875 C12 2.8475 12 3.5075 12 4.1875 C11.18273437 4.02378906 10.36546875 3.86007813 9.5234375 3.69140625 C5.51231824 3.11775394 1.66751879 3.07748396 -2.375 3.125 C-3.47908203 3.13176758 -3.47908203 3.13176758 -4.60546875 3.13867188 C-6.40368158 3.15034858 -8.20185197 3.16827989 -10 3.1875 C-9.99476318 4.00428223 -9.98952637 4.82106445 -9.98413086 5.66259766 C-9.96328651 9.37922388 -9.95031608 13.09583778 -9.9375 16.8125 C-9.92912109 18.09769531 -9.92074219 19.38289063 -9.91210938 20.70703125 C-9.90888672 21.95097656 -9.90566406 23.19492187 -9.90234375 24.4765625 C-9.89710693 25.61818848 -9.89187012 26.75981445 -9.88647461 27.93603516 C-9.99716555 31.10631886 -10.40433244 34.07518854 -11 37.1875 C-11.33 37.1875 -11.66 37.1875 -12 37.1875 C-12 25.3075 -12 13.4275 -12 1.1875 C-7.96103843 -0.15882052 -4.2287853 0.00332452 0 0 Z " fill="#EFEFEF" transform="translate(110,35.8125)"/>
<path d="M0 0 C0.99 0 1.98 0 3 0 C3.33 5.28 3.66 10.56 4 16 C5.98 16 7.96 16 10 16 C11.94090826 14.05909174 11.39919435 10.52706098 11.5625 7.9375 C11.64628906 6.64714844 11.73007813 5.35679687 11.81640625 4.02734375 C11.87699219 3.02832031 11.93757812 2.02929688 12 1 C12.66 1 13.32 1 14 1 C14.10826289 3.4178712 14.18739789 5.83087556 14.25 8.25 C14.30027344 9.27287109 14.30027344 9.27287109 14.3515625 10.31640625 C14.41834512 13.75571098 14.26123254 15.6425838 12.20703125 18.453125 C9.00170763 20.69968811 6.81282602 20.55459288 3 20 C0.15187208 17.46542745 -0.00309277 15.95892804 -0.29296875 12.109375 C-0.27314945 10.65595991 -0.23754845 9.20268833 -0.1875 7.75 C-0.17396484 7.00492187 -0.16042969 6.25984375 -0.14648438 5.4921875 C-0.11127204 3.66114584 -0.05746851 1.83047831 0 0 Z " fill="#3C3C3C" transform="translate(150,336)"/>
<path d="M0 0 C3.5625 0.3125 3.5625 0.3125 5.5 1.5625 C6.5625 3.3125 6.5625 3.3125 6.5625 7.3125 C3.2625 7.3125 -0.0375 7.3125 -3.4375 7.3125 C-2.7775 8.6325 -2.1175 9.9525 -1.4375 11.3125 C0.8725 11.3125 3.1825 11.3125 5.5625 11.3125 C5.5625 12.3025 5.5625 13.2925 5.5625 14.3125 C-1.68692792 14.91661899 -1.68692792 14.91661899 -5 12.25 C-6.85855712 8.45207894 -6.50431329 6.35115032 -5.4375 2.3125 C-3.4375 0.3125 -3.4375 0.3125 0 0 Z " fill="#161616" transform="translate(212.4375,341.6875)"/>
<path d="M0 0 C1.76171875 0.09375 1.76171875 0.09375 4 1 C5.4391042 3.16013992 6.63348368 5.20568996 7.8125 7.5 C10.67056266 12.79558374 13.71968095 17.56603055 17.5546875 22.23046875 C19 24 19 24 21 27 C20.34 27.99 19.68 28.98 19 30 C13.91862678 24.89093537 9.82345014 19.46849787 6.125 13.3125 C5.5537439 12.3687854 5.5537439 12.3687854 4.97094727 11.40600586 C2.80003922 7.70469776 1.21001502 4.14589357 0 0 Z " fill="#1D1D1C" transform="translate(94,154)"/>
<path d="M0 0 C1.32 0.33 2.64 0.66 4 1 C4 2.32 4 3.64 4 5 C4.66 5.33 5.32 5.66 6 6 C5.67 6.99 5.34 7.98 5 9 C4.34 9 3.68 9 3 9 C3 9.66 3 10.32 3 11 C3.56589844 10.83886719 4.13179687 10.67773438 4.71484375 10.51171875 C7.06192223 9.98613365 9.1601634 9.83282434 11.5625 9.8125 C12.32691406 9.79832031 13.09132812 9.78414062 13.87890625 9.76953125 C16 10 16 10 19 12 C16.88074396 14.11925604 12.3803907 13.41831017 9.4375 13.5625 C8.63119141 13.60568359 7.82488281 13.64886719 6.99414062 13.69335938 C4.99631195 13.79975262 2.9981793 13.90040888 1 14 C1 17.96 1 21.92 1 26 C1.99 26.33 2.98 26.66 4 27 C2.68 27 1.36 27 0 27 C0 18.09 0 9.18 0 0 Z " fill="#161615" transform="translate(126,40)"/>
<path d="M0 0 C3.375 -0.125 3.375 -0.125 7 0 C9 2 9 2 9.1953125 4.6015625 C9.13020833 7.40104167 9.06510417 10.20052083 9 13 C5.37 13 1.74 13 -2 13 C-3 8 -3 8 -1.9375 6.1875 C0.75551955 4.53693963 2.90570428 4.79371362 6 5 C5.67 4.01 5.34 3.02 5 2 C3.02 2 1.04 2 -1 2 C-0.67 1.34 -0.34 0.68 0 0 Z " fill="#161616" transform="translate(55,342)"/>
<path d="M0 0 C2.875 -0.125 2.875 -0.125 6 0 C8 2 8 2 8.1953125 4.8203125 C8.16050781 6.45613281 8.16050781 6.45613281 8.125 8.125 C8.10695312 9.22070312 8.08890625 10.31640625 8.0703125 11.4453125 C8.04710937 12.28835938 8.02390625 13.13140625 8 14 C6.54207116 14.05399736 5.08357288 14.09279177 3.625 14.125 C2.81289062 14.14820313 2.00078125 14.17140625 1.1640625 14.1953125 C-1 14 -1 14 -3 12 C-2.44444444 7.44444444 -2.44444444 7.44444444 -1 6 C1.33297433 5.95907063 3.66705225 5.95758277 6 6 C5.67 5.01 5.34 4.02 5 3 C2.03 2.505 2.03 2.505 -1 2 C-0.67 1.34 -0.34 0.68 0 0 Z " fill="#222221" transform="translate(165,374)"/>
<path d="M0 0 C1.588125 -0.061875 3.17625 -0.12375 4.8125 -0.1875 C6.15248047 -0.23970703 6.15248047 -0.23970703 7.51953125 -0.29296875 C10 0 10 0 11.8125 1.15625 C13.47611355 3.73922894 13.29488288 5.64498508 13.1875 8.6875 C13.16042969 9.68136719 13.13335937 10.67523438 13.10546875 11.69921875 C13.07066406 12.45847656 13.03585938 13.21773438 13 14 C12.01 14 11.02 14 10 14 C9.67 10.37 9.34 6.74 9 3 C7.35 3.33 5.7 3.66 4 4 C3.67 7.3 3.34 10.6 3 14 C2.01 14 1.02 14 0 14 C0 9.38 0 4.76 0 0 Z " fill="#393938" transform="translate(129,374)"/>
<path d="M0 0 C8.3984375 -0.29296875 8.3984375 -0.29296875 11 0 C13.28062828 3.42094242 13.21925007 4.68187222 13.125 8.6875 C13.10695312 9.68136719 13.08890625 10.67523438 13.0703125 11.69921875 C13.03550781 12.83810547 13.03550781 12.83810547 13 14 C12.01 14 11.02 14 10 14 C9.67 10.37 9.34 6.74 9 3 C7.68 2.67 6.36 2.34 5 2 C3.26043342 3.73956658 3.62809614 6.1936622 3.4375 8.5625 C3.35371094 9.57441406 3.26992187 10.58632813 3.18359375 11.62890625 C3.12300781 12.41136719 3.06242188 13.19382812 3 14 C2.01 14 1.02 14 0 14 C0 9.38 0 4.76 0 0 Z " fill="#383838" transform="translate(169,342)"/>
<path d="M0 0 C2.74637817 0.37881078 3.80049058 0.77832287 5.6875 2.875 C8.19307477 6.93164487 8.39069687 10.31163752 8 15 C6.32737627 19.22922476 4.01993069 22.72203927 0 25 C-0.66 25 -1.32 25 -2 25 C-2 23.68 -2 22.36 -2 21 C0.4375 18.875 0.4375 18.875 3 17 C4.2238892 14.55222161 4.016364 13.26609459 3.75 10.5625 C3.68296875 9.78003906 3.6159375 8.99757813 3.546875 8.19140625 C2.90299949 5.61130508 1.8749293 4.80940758 0 3 C0 2.01 0 1.02 0 0 Z " fill="#E6E6E6" transform="translate(204,52)"/>
<path d="M0 0 C1.588125 -0.061875 3.17625 -0.12375 4.8125 -0.1875 C6.15248047 -0.23970703 6.15248047 -0.23970703 7.51953125 -0.29296875 C10 0 10 0 11.8125 1.15625 C13.47611355 3.73922894 13.29488288 5.64498508 13.1875 8.6875 C13.16042969 9.68136719 13.13335937 10.67523438 13.10546875 11.69921875 C13.07066406 12.45847656 13.03585938 13.21773438 13 14 C12.01 14 11.02 14 10 14 C9.67 9.71 9.34 5.42 9 1 C7.35 1.66 5.7 2.32 4 3 C3.67 6.63 3.34 10.26 3 14 C2.01 14 1.02 14 0 14 C0 9.38 0 4.76 0 0 Z " fill="#3B3B3B" transform="translate(103,342)"/>
<path d="M0 0 C0 0.66 0 1.32 0 2 C-1.98 2.33 -3.96 2.66 -6 3 C-5.87822312 4.91466367 -5.87822312 4.91466367 -5 7 C-2.55503957 8.71711243 -2.55503957 8.71711243 0 10 C0.33 10.33 0.66 10.66 1 11 C0.6875 14.5 0.6875 14.5 0 18 C-2.95664519 19.4783226 -5.74229737 19.06032783 -9 19 C-9 18.34 -9 17.68 -9 17 C-7.02 16.67 -5.04 16.34 -3 16 C-3 14.68 -3 13.36 -3 12 C-4.51234366 10.4363243 -4.51234366 10.4363243 -6.5 9.25 C-7.1496875 8.82203125 -7.799375 8.3940625 -8.46875 7.953125 C-8.9740625 7.63859375 -9.479375 7.3240625 -10 7 C-9.625 4.0625 -9.625 4.0625 -9 1 C-6.04335481 -0.4783226 -3.25770263 -0.06032783 0 0 Z " fill="#1F1F1E" transform="translate(117,369)"/>
<path d="M0 0 C0.75410156 -0.00773437 1.50820312 -0.01546875 2.28515625 -0.0234375 C6.12917457 -0.00978202 7.98120282 0.07080188 11.25 2.25 C11.4987793 5.13916016 11.4987793 5.13916016 11.32421875 8.7890625 C11.26943359 10.09101562 11.21464844 11.39296875 11.15820312 12.734375 C11.08496465 14.11460084 11.01139261 15.49480902 10.9375 16.875 C10.87424925 18.26295766 10.8123829 19.65097916 10.75195312 21.0390625 C10.59827688 24.44358245 10.43036232 27.84680622 10.25 31.25 C9.92 31.25 9.59 31.25 9.25 31.25 C9.25 22.01 9.25 12.77 9.25 3.25 C5.228125 3.2190625 5.228125 3.2190625 1.125 3.1875 C0.29210449 3.178396 -0.54079102 3.16929199 -1.39892578 3.15991211 C-4.79127378 3.14736585 -7.82554932 3.26385358 -11.1796875 3.87890625 C-12.45199219 4.06259766 -12.45199219 4.06259766 -13.75 4.25 C-14.41 3.59 -15.07 2.93 -15.75 2.25 C-10.36397283 0.45465761 -5.65959165 -0.05926274 0 0 Z " fill="#BFBFBF" transform="translate(139.75,35.75)"/>
<path d="M0 0 C1.2065625 0.0309375 1.2065625 0.0309375 2.4375 0.0625 C2.4375 0.7225 2.4375 1.3825 2.4375 2.0625 C1.4475 2.3925 0.4575 2.7225 -0.5625 3.0625 C-1.29573796 5.07758358 -1.29573796 5.07758358 -1.5625 7.0625 C-0.5725 7.0625 0.4175 7.0625 1.4375 7.0625 C1.4375 7.7225 1.4375 8.3825 1.4375 9.0625 C0.4475 9.0625 -0.5425 9.0625 -1.5625 9.0625 C-1.5625 13.0225 -1.5625 16.9825 -1.5625 21.0625 C-2.5525 21.0625 -3.5425 21.0625 -4.5625 21.0625 C-4.5625 17.1025 -4.5625 13.1425 -4.5625 9.0625 C-5.5525 9.0625 -6.5425 9.0625 -7.5625 9.0625 C-7.5625 8.4025 -7.5625 7.7425 -7.5625 7.0625 C-6.5725 7.0625 -5.5825 7.0625 -4.5625 7.0625 C-4.418125 6.093125 -4.27375 5.12375 -4.125 4.125 C-3.3825 0.0825 -3.3825 0.0825 0 0 Z " fill="#373736" transform="translate(96.5625,366.9375)"/>
<path d="M0 0 C2.375 0.75 2.375 0.75 3.375 1.75 C3.5625 5.1875 3.5625 5.1875 3.375 8.75 C2.715 9.41 2.055 10.07 1.375 10.75 C-1.92214793 10.42028521 -3.2476839 10.1273161 -5.625 7.75 C-5.99296448 4.87987704 -6.00009409 3.34225382 -4.4375 0.875 C-2.625 -0.25 -2.625 -0.25 0 0 Z " fill="#E9E9E9" transform="translate(93.625,343.25)"/>
<path d="M0 0 C0.99 0 1.98 0 3 0 C4.32 2.97 5.64 5.94 7 9 C7.99 6.03 8.98 3.06 10 0 C10.66 0 11.32 0 12 0 C11.68394889 6.95312448 8.86973912 13.25429835 5 19 C2.80078125 19.8515625 2.80078125 19.8515625 1 20 C1 19.34 1 18.68 1 18 C1.99 17.34 2.98 16.68 4 16 C3.27275406 10.47293087 1.66554027 5.30039859 0 0 Z " fill="#20201F" transform="translate(260,342)"/>
<path d="M0 0 C2.5 0.25 2.5 0.25 4.5 2.25 C4.75 5.25 4.75 5.25 4.5 8.25 C2.5 10.25 2.5 10.25 0 10.5 C-2.5 10.25 -2.5 10.25 -4.5 8.25 C-4.75 5.25 -4.75 5.25 -4.5 2.25 C-2.5 0.25 -2.5 0.25 0 0 Z " fill="#EAEAEA" transform="translate(200.5,375.75)"/>
<path d="M0 0 C0.598125 0.78375 1.19625 1.5675 1.8125 2.375 C4.17493382 5.20992059 5.78549383 6.79726354 9.48046875 7.4140625 C10.37378906 7.48367187 11.26710937 7.55328125 12.1875 7.625 C13.08855469 7.69976562 13.98960937 7.77453125 14.91796875 7.8515625 C15.60503906 7.90054688 16.29210937 7.94953125 17 8 C17 8.99 17 9.98 17 11 C13.75381133 12.62309433 10.50786729 12.56151113 7 12 C3.13191261 10.22097508 0.50286223 8.35144223 -1 4.3125 C-1 2 -1 2 0 0 Z " fill="#CACACA" transform="translate(170,66)"/>
<path d="M0 0 C1 3 1 3 0.125 5.6875 C-2 8 -2 8 -4.20703125 8.3203125 C-6.49055822 8.31312029 -8.72708261 8.21442617 -11 8 C-10.65213292 9.97536745 -10.65213292 9.97536745 -10 12 C-9.34 12.33 -8.68 12.66 -8 13 C-8 13.66 -8 14.32 -8 15 C-1.09643321 13.60913034 -1.09643321 13.60913034 4.125 9.3125 C4.41375 8.549375 4.7025 7.78625 5 7 C5.33 7.66 5.66 8.32 6 9 C4.57639369 12.34966191 3.56435581 13.73064837 0.25 15.3125 C-5.35170265 16.49747556 -9.79942482 16.521491 -15 14 C-14.67 13.01 -14.34 12.02 -14 11 C-14.66 10.67 -15.32 10.34 -16 10 C-13.22991486 7.22991486 -11.20374799 6.84698281 -7.4375 6.6875 C-5.09411383 6.58630438 -5.09411383 6.58630438 -3 6 C-0.83752779 3.09748698 -0.83752779 3.09748698 0 0 Z " fill="#393939" transform="translate(169,155)"/>
<path d="M0 0 C0.99 0 1.98 0 3 0 C3 1.32 3 2.64 3 4 C4.32 4 5.64 4 7 4 C7 4.66 7 5.32 7 6 C5.68 6 4.36 6 3 6 C3.33 8.97 3.66 11.94 4 15 C4.99 15.33 5.98 15.66 7 16 C7 16.66 7 17.32 7 18 C4.625 18.1875 4.625 18.1875 2 18 C-0.13586678 14.79619983 -0.23132175 13.98060033 -0.125 10.3125 C-0.10695312 9.50425781 -0.08890625 8.69601562 -0.0703125 7.86328125 C-0.03550781 6.94095703 -0.03550781 6.94095703 0 6 C-0.99 6 -1.98 6 -3 6 C-3 5.34 -3 4.68 -3 4 C-2.01 4 -1.02 4 0 4 C0 2.68 0 1.36 0 0 Z " fill="#4C4C4C" transform="translate(252,338)"/>
<path d="M0 0 C3.69267287 3.69267287 5.76853302 7.73912223 8.28125 12.28515625 C9.87585251 15.2106702 9.87585251 15.2106702 13 17 C12.236875 17.28875 11.47375 17.5775 10.6875 17.875 C7.84970692 18.96269013 7.84970692 18.96269013 5 21 C5 18.36 5 15.72 5 13 C4.01 13.33 3.02 13.66 2 14 C1.34 9.38 0.68 4.76 0 0 Z " fill="#1D1D1C" transform="translate(105,122)"/>
<path d="M0 0 C1 2 1 2 0.5390625 3.83984375 C-0.87720244 7.08999022 -1.94262339 9.39944159 -5.09765625 11.19140625 C-9.05199133 12.55792939 -12.78993229 13.40742591 -17 13 C-17.66 11.68 -18.32 10.36 -19 9 C-19.66 9 -20.32 9 -21 9 C-21 8.34 -21 7.68 -21 7 C-21.66 7 -22.32 7 -23 7 C-23 6.34 -23 5.68 -23 5 C-19.88089144 3.20724134 -17.32317572 2.65709282 -13.75 2.375 C-12.85796875 2.30023438 -11.9659375 2.22546875 -11.046875 2.1484375 C-10.37140625 2.09945312 -9.6959375 2.05046875 -9 2 C-9 2.66 -9 3.32 -9 4 C-13.455 4.495 -13.455 4.495 -18 5 C-17.67 6.32 -17.34 7.64 -17 9 C-16.34 9 -15.68 9 -15 9 C-15 9.66 -15 10.32 -15 11 C-13.54096742 10.69078116 -12.08279278 10.37751201 -10.625 10.0625 C-9.81289062 9.88847656 -9.00078125 9.71445313 -8.1640625 9.53515625 C-5.970537 9.07669307 -5.970537 9.07669307 -4 8 C-2.87775145 6.11986894 -2.87775145 6.11986894 -1.875 3.9375 C-1.52179688 3.20402344 -1.16859375 2.47054687 -0.8046875 1.71484375 C-0.53914063 1.14894531 -0.27359375 0.58304688 0 0 Z " fill="#393938" transform="translate(137,163)"/>
<path d="M0 0 C2.5 0.125 2.5 0.125 3.5 1.125 C3.6328125 2.9375 3.6328125 2.9375 3.625 5.125 C3.62757813 5.846875 3.63015625 6.56875 3.6328125 7.3125 C3.5 9.125 3.5 9.125 2.5 10.125 C0.0625 10.375 0.0625 10.375 -2.5 10.125 C-4.5 7.125 -4.5 7.125 -4.1875 4 C-3.27007701 0.16350385 -3.27007701 0.16350385 0 0 Z " fill="#EDEDED" transform="translate(184.5,375.875)"/>
<path d="M0 0 C3.125 0.375 3.125 0.375 6 1 C6.125 4.375 6.125 4.375 6 8 C4 10 4 10 1.375 10.125 C0.59125 10.08375 -0.1925 10.0425 -1 10 C-2.38125018 7.23749964 -2.19079306 5.05268901 -2 2 C-1.34 1.34 -0.68 0.68 0 0 Z " fill="#F5F5F5" transform="translate(78,376)"/>
<path d="M0 0 C2.375 -0.125 2.375 -0.125 5 0 C5.66 0.66 6.32 1.32 7 2 C6.625 5.625 6.625 5.625 6 9 C3.625 9.625 3.625 9.625 1 10 C-1 8 -1 8 -1.1875 5 C-1 2 -1 2 0 0 Z " fill="#ECECEB" transform="translate(149,376)"/>
<path d="M0 0 C2.0625 1.625 2.0625 1.625 3 4 C2.875 7.625 2.875 7.625 2 11 C1.01 11.66 0.02 12.32 -1 13 C-1.99 12.67 -2.98 12.34 -4 12 C-3.01 11.67 -2.02 11.34 -1 11 C-1 8.03 -1 5.06 -1 2 C-4.63 2 -8.26 2 -12 2 C-9.75579746 -2.48840509 -4.10221116 -1.0831202 0 0 Z " fill="#E1E1E1" transform="translate(213,105)"/>
<path d="M0 0 C7.21712538 -0.48929664 7.21712538 -0.48929664 11 1.875 C13 4 13 4 13 6 C14.65 5.67 16.3 5.34 18 5 C15.23776722 7.76223278 12.79293383 7.57856291 9 8 C9.33 6.35 9.66 4.7 10 3 C7.2027092 5.06756277 6.97307727 6.14440371 6.3125 9.6875 C6.1578125 11.3271875 6.1578125 11.3271875 6 13 C4.34408844 10.0193592 3.60044016 7.34530944 3 4 C2.67 3.01 2.34 2.02 2 1 C1.34 0.67 0.68 0.34 0 0 Z " fill="#2B2B2A" transform="translate(178,53)"/>
<path d="M0 0 C0.99 0 1.98 0 3 0 C3.99 3.3 4.98 6.6 6 10 C6.6496875 7.8034375 6.6496875 7.8034375 7.3125 5.5625 C8.05078125 3.06640625 8.05078125 3.06640625 9 1 C9.99 0.67 10.98 0.34 12 0 C11.40895235 4.84659077 10.02055843 8.60748167 8 13 C6.140625 12.84375 6.140625 12.84375 4 12 C2.734375 9.53125 2.734375 9.53125 1.75 6.5 C1.41484375 5.4996875 1.0796875 4.499375 0.734375 3.46875 C0 1 0 1 0 0 Z " fill="#2D2D2C" transform="translate(192,342)"/>
<path d="M0 0 C2.31 0 4.62 0 7 0 C7 0.66 7 1.32 7 2 C5.02 2 3.04 2 1 2 C3.0072908 5.0109362 3.83884224 5.63016497 7 7 C7.125 9.375 7.125 9.375 7 12 C5 14 5 14 1.875 14.125 C0.451875 14.063125 0.451875 14.063125 -1 14 C-0.67 13.01 -0.34 12.02 0 11 C1.32 11 2.64 11 4 11 C4 10.34 4 9.68 4 9 C2.37373596 7.61767557 0.7074998 6.28062485 -1 5 C-0.67 3.35 -0.34 1.7 0 0 Z " fill="#1F1F1E" transform="translate(233,342)"/>
<path d="M0 0 C3 1 3 1 4 3 C4.57760804 9.23816685 4.57760804 9.23816685 2.37109375 12.1484375 C-0.53756692 14.41978043 -2.61297711 14.77560571 -6.25 15.25 C-7.32765625 15.39953125 -8.4053125 15.5490625 -9.515625 15.703125 C-10.74539062 15.85007812 -10.74539062 15.85007812 -12 16 C-12 15.34 -12 14.68 -12 14 C-15.3 14 -18.6 14 -22 14 C-22 13.67 -22 13.34 -22 13 C-21.04738281 12.93941406 -20.09476563 12.87882812 -19.11328125 12.81640625 C-17.23189453 12.69072266 -17.23189453 12.69072266 -15.3125 12.5625 C-14.07113281 12.48128906 -12.82976562 12.40007812 -11.55078125 12.31640625 C-8.10084036 12.0798657 -8.10084036 12.0798657 -5.16796875 11.40234375 C-3 11 -3 11 -1 12 C0.70735301 10.96431405 0.70735301 10.96431405 2 9 C1.76811536 5.69564394 1.48929359 2.97858719 0 0 Z " fill="#9A9A9A" transform="translate(213,105)"/>
<path d="M0 0 C2.64 0 5.28 0 8 0 C8 0.66 8 1.32 8 2 C7.35546875 2.22429687 6.7109375 2.44859375 6.046875 2.6796875 C3.75611148 3.82889456 3.75611148 3.82889456 3.390625 6.3828125 C3.34421875 7.28773438 3.2978125 8.19265625 3.25 9.125 C3.19328125 10.03507812 3.1365625 10.94515625 3.078125 11.8828125 C3.03945312 12.93082031 3.03945312 12.93082031 3 14 C2.01 14 1.02 14 0 14 C0 9.38 0 4.76 0 0 Z " fill="#2F2F2E" transform="translate(211,374)"/>
<path d="M0 0 C0.66 0 1.32 0 2 0 C2 1.32 2 2.64 2 4 C3.32 4 4.64 4 6 4 C6 4.66 6 5.32 6 6 C4.68 6 3.36 6 2 6 C2.33 8.97 2.66 11.94 3 15 C3.99 15.33 4.98 15.66 6 16 C6 16.66 6 17.32 6 18 C4.35 18 2.7 18 1 18 C-0.32229189 15.35541621 -0.09677194 13.32238699 -0.0625 10.375 C-0.05347656 9.37210937 -0.04445313 8.36921875 -0.03515625 7.3359375 C-0.01775391 6.17964844 -0.01775391 6.17964844 0 5 C-0.99 4.67 -1.98 4.34 -3 4 C-2.01 4 -1.02 4 0 4 C0 2.68 0 1.36 0 0 Z " fill="#121212" transform="translate(70,338)"/>
<path d="M0 0 C5.37140063 -0.27312207 8.58683426 -0.40444214 13 3 C14.8125 4.6875 14.8125 4.6875 16 6 C15.67 6.99 15.34 7.98 15 9 C14.34 9 13.68 9 13 9 C12.29875 8.195625 11.5975 7.39125 10.875 6.5625 C7.0967289 3.19491055 4.95987142 3.25219685 0 3 C0 2.01 0 1.02 0 0 Z " fill="#E6E6E6" transform="translate(178,50)"/>
<path d="M0 0 C0 1.32 0 2.64 0 4 C-0.98033203 3.75443359 -0.98033203 3.75443359 -1.98046875 3.50390625 C-5.76991774 2.87151437 -9.48490951 2.89303291 -13.3125 2.9375 C-14.42334961 2.94426758 -14.42334961 2.94426758 -15.55664062 2.95117188 C-17.37112899 2.96287825 -19.18557534 2.98081102 -21 3 C-21 2.01 -21 1.02 -21 0 C-18.25034772 -0.19511725 -15.50057868 -0.38136433 -12.75 -0.5625 C-11.97269531 -0.61857422 -11.19539063 -0.67464844 -10.39453125 -0.73242188 C-9.64042969 -0.78076172 -8.88632813 -0.82910156 -8.109375 -0.87890625 C-7.41811523 -0.9260376 -6.72685547 -0.97316895 -6.01464844 -1.02172852 C-3.86382928 -0.99853136 -2.05915129 -0.5995764 0 0 Z " fill="#1A1A18" transform="translate(123,40)"/>
<path d="M0 0 C0.66 0.33 1.32 0.66 2 1 C1.3503125 2.0209375 1.3503125 2.0209375 0.6875 3.0625 C-1.17503916 6.3046978 -2.57729648 9.54486289 -4 13 C-2.35 13 -0.7 13 1 13 C1 13.33 1 13.66 1 14 C-1.97 13.67 -4.94 13.34 -8 13 C-7.46760392 8.47463334 -5.72876727 5.61160373 -3 2 C-2.01 1.34 -1.02 0.68 0 0 Z " fill="#E0E0E0" transform="translate(183,36)"/>
<path d="M0 0 C1.03125 0.04125 2.0625 0.0825 3.125 0.125 C4.445 0.125 5.765 0.125 7.125 0.125 C7.125 3.095 7.125 6.065 7.125 9.125 C6.465 8.795 5.805 8.465 5.125 8.125 C4.7228125 6.8875 4.7228125 6.8875 4.3125 5.625 C3.920625 4.8 3.52875 3.975 3.125 3.125 C0.57724694 2.23113836 0.57724694 2.23113836 -1.875 2.125 C-2.205 4.765 -2.535 7.405 -2.875 10.125 C-3.535 10.125 -4.195 10.125 -4.875 10.125 C-5.0703125 4.0703125 -5.0703125 4.0703125 -4.875 2.125 C-2.875 0.125 -2.875 0.125 0 0 Z " fill="#191918" transform="translate(150.875,373.875)"/>
<path d="M0 0 C0 0.33 0 0.66 0 1 C2.97 1.495 2.97 1.495 6 2 C6 2.33 6 2.66 6 3 C4.35 3.33 2.7 3.66 1 4 C1.433125 4.50789062 1.86625 5.01578125 2.3125 5.5390625 C6.91766724 11.23156089 6.91766724 11.23156089 7.375 15.5 C7.25125 16.325 7.1275 17.15 7 18 C6.34 18 5.68 18 5 18 C5.061875 17.26136719 5.12375 16.52273437 5.1875 15.76171875 C4.9628762 12.45319737 4.09965965 11.32528713 2 8.8125 C-1 5.18055556 -1 5.18055556 -1 3 C-3.97 2.505 -3.97 2.505 -7 2 C-5.26578631 -1.46842738 -3.40984787 -1.13661596 0 0 Z " fill="#4B4B4A" transform="translate(165,137)"/>
<path d="M0 0 C2.64 0 5.28 0 8 0 C7.35546875 0.37769531 6.7109375 0.75539063 6.046875 1.14453125 C3.75970238 2.86059908 3.75970238 2.86059908 3.390625 5.69921875 C3.34421875 6.68535156 3.2978125 7.67148437 3.25 8.6875 C3.19328125 9.68136719 3.1365625 10.67523438 3.078125 11.69921875 C3.05234375 12.45847656 3.0265625 13.21773438 3 14 C2.01 14 1.02 14 0 14 C0 9.38 0 4.76 0 0 Z " fill="#3F3F3E" transform="translate(222,342)"/>
<path d="M0 0 C0.66 0 1.32 0 2 0 C2 6.27 2 12.54 2 19 C0.35 19 -1.3 19 -3 19 C-3 17.68 -3 16.36 -3 15 C-2.01 15 -1.02 15 0 15 C0 10.05 0 5.1 0 0 Z " fill="#3D3D3D" transform="translate(47,337)"/>
<path d="M0 0 C3.16115776 1.36983503 3.9927092 1.9890638 6 5 C-0.75 7 -0.75 7 -3 7 C-3 7.66 -3 8.32 -3 9 C-5.31 8.67 -7.62 8.34 -10 8 C-7.90217213 5.90217213 -6.6200793 5.3490604 -3.875 4.375 C-3.15054688 4.11460937 -2.42609375 3.85421875 -1.6796875 3.5859375 C-0.84824219 3.29589844 -0.84824219 3.29589844 0 3 C0 2.01 0 1.02 0 0 Z " fill="#181817" transform="translate(173,130)"/>
<path d="M0 0 C0.66 1.32 1.32 2.64 2 4 C5.3 4 8.6 4 12 4 C12.33 3.01 12.66 2.02 13 1 C13 2.32 13 3.64 13 5 C9.7 5 6.4 5 3 5 C4.70892499 8.31460705 4.70892499 8.31460705 8.125 8.6875 C9.07375 8.790625 10.0225 8.89375 11 9 C11 9.66 11 10.32 11 11 C3.71641791 11.35820896 3.71641791 11.35820896 1 10 C-0.63983879 6.72032242 -0.17845638 3.62861311 0 0 Z " fill="#555554" transform="translate(221,377)"/>
<path d="M0 0 C2.10353495 -0.0810206 4.20795952 -0.13919907 6.3125 -0.1875 C7.48425781 -0.22230469 8.65601562 -0.25710937 9.86328125 -0.29296875 C13 0 13 0 14.91796875 1.51171875 C15.45357422 2.24841797 15.45357422 2.24841797 16 3 C12.33012779 4.22329074 9.66032178 3.88021006 5.8125 3.5625 C4.54019531 3.46066406 3.26789063 3.35882813 1.95703125 3.25390625 C0.98121094 3.17011719 0.00539063 3.08632813 -1 3 C-0.67 2.01 -0.34 1.02 0 0 Z " fill="#C5C5C4" transform="translate(105,42)"/>
<path d="M0 0 C0.66 0 1.32 0 2 0 C2.53580497 1.87077668 3.05298887 3.7468917 3.5625 5.625 C3.85253906 6.66914063 4.14257812 7.71328125 4.44140625 8.7890625 C5.03309337 12.19022902 4.75851802 14.65448342 4 18 C-0.05842151 11.91236773 -0.2502075 7.15871449 0 0 Z " fill="#181816" transform="translate(85,122)"/>
<path d="M0 0 C-0.33 2.64 -0.66 5.28 -1 8 C-1.99 8.33 -2.98 8.66 -4 9 C-6.50037734 6.82575883 -7.43628586 5.26954202 -8 2 C-5.09399739 0.74335022 -3.20395416 0 0 0 Z " fill="#383837" transform="translate(195,64)"/>
<path d="M0 0 C0.33 1.32 0.66 2.64 1 4 C-6.25 10.14673913 -6.25 10.14673913 -13 10 C-12.67 9.01 -12.34 8.02 -12 7 C-10.9275 6.71125 -9.855 6.4225 -8.75 6.125 C-4.5432405 4.86297215 -2.83987475 3.2701588 0 0 Z " fill="#EDEDED" transform="translate(201,53)"/>
<path d="M0 0 C1.09570312 0.00902344 2.19140625 0.01804688 3.3203125 0.02734375 C4.16335937 0.03894531 5.00640625 0.05054688 5.875 0.0625 C6.205 1.0525 6.535 2.0425 6.875 3.0625 C-1.045 3.5575 -1.045 3.5575 -9.125 4.0625 C-8.795 3.0725 -8.465 2.0825 -8.125 1.0625 C-5.36047967 -0.31976016 -3.0788637 -0.03275387 0 0 Z " fill="#CDCDCC" transform="translate(138.125,52.9375)"/>
<path d="M0 0 C1.29550781 -0.02126953 1.29550781 -0.02126953 2.6171875 -0.04296875 C5.2491288 0.19890748 6.86480544 0.85766459 9.125 2.1875 C9.125 2.8475 9.125 3.5075 9.125 4.1875 C3.845 3.8575 -1.435 3.5275 -6.875 3.1875 C-6.875 2.5275 -6.875 1.8675 -6.875 1.1875 C-4.42528376 -0.03735812 -2.73265539 0.02027192 0 0 Z " fill="#CCCCCC" transform="translate(111.875,46.8125)"/>
<path d="M0 0 C2.475 0.99 2.475 0.99 5 2 C5 2.66 5 3.32 5 4 C4.01 4.33 3.02 4.66 2 5 C2 5.99 2 6.98 2 8 C-0.3125 10 -0.3125 10 -3 12 C-4.0173873 12.98230498 -5.02596117 13.97469597 -6 15 C-4.40109514 9.80355921 -2.25861997 4.93387858 0 0 Z " fill="#2E2E2D" transform="translate(202,149)"/>
<path d="M0 0 C0.66 0 1.32 0 2 0 C2 0.66 2 1.32 2 2 C5.96 2 9.92 2 14 2 C10.98832456 5.01167544 7.54547277 4.83863075 3.43359375 5.4375 C2.22896484 5.7159375 2.22896484 5.7159375 1 6 C0.67 6.66 0.34 7.32 0 8 C0 5.36 0 2.72 0 0 Z " fill="#161614" transform="translate(102,54)"/>
<path d="M0 0 C0.96808594 -0.00257812 1.93617187 -0.00515625 2.93359375 -0.0078125 C5.5625 0.125 5.5625 0.125 8.5625 1.125 C8.5625 1.785 8.5625 2.445 8.5625 3.125 C3.2825 3.125 -1.9975 3.125 -7.4375 3.125 C-7.4375 2.465 -7.4375 1.805 -7.4375 1.125 C-4.84233479 -0.17258261 -2.89566973 -0.00769102 0 0 Z " fill="#D1D1D1" transform="translate(111.4375,52.875)"/>
<path d="M0 0 C0.99 0 1.98 0 3 0 C3 4.62 3 9.24 3 14 C2.01 14 1.02 14 0 14 C0 9.38 0 4.76 0 0 Z " fill="#424242" transform="translate(122,374)"/>
<path d="M0 0 C0.99 0 1.98 0 3 0 C3 4.62 3 9.24 3 14 C2.01 14 1.02 14 0 14 C0 9.38 0 4.76 0 0 Z " fill="#40403F" transform="translate(186,342)"/>
<path d="M0 0 C2.74637817 0.37881078 3.80049058 0.77832287 5.6875 2.875 C8.19442693 6.93383408 8.08807374 10.33209165 8 15 C7.67 15 7.34 15 7 15 C6.87625 14.195625 6.7525 13.39125 6.625 12.5625 C6.41875 11.716875 6.2125 10.87125 6 10 C5.34 9.67 4.68 9.34 4 9 C2.01871317 6.06769549 0.64610681 3.48897679 0 0 Z " fill="#DBDBDB" transform="translate(204,52)"/>
<path d="M0 0 C1.30324219 -0.00386719 1.30324219 -0.00386719 2.6328125 -0.0078125 C4.875 0.125 4.875 0.125 6.875 1.125 C6.875 1.785 6.875 2.445 6.875 3.125 C1.595 3.125 -3.685 3.125 -9.125 3.125 C-9.125 2.465 -9.125 1.805 -9.125 1.125 C-6.02102241 0.21546238 -3.22989778 -0.00964149 0 0 Z " fill="#EAEAEA" transform="translate(138.125,41.875)"/>
<path d="M0 0 C2.93774463 -0.05390357 5.87450232 -0.0936255 8.8125 -0.125 C10.06256836 -0.15013672 10.06256836 -0.15013672 11.33789062 -0.17578125 C12.14033203 -0.18222656 12.94277344 -0.18867187 13.76953125 -0.1953125 C14.50792236 -0.20578613 15.24631348 -0.21625977 16.00708008 -0.22705078 C18 0 18 0 21 2 C21 2.66 21 3.32 21 4 C14.07 3.01 7.14 2.02 0 1 C0 0.67 0 0.34 0 0 Z " fill="#D1D1D1" transform="translate(101,36)"/>
<path d="M0 0 C0.66 0 1.32 0 2 0 C2.99 2.31 3.98 4.62 5 7 C7.31 7 9.62 7 12 7 C12 7.99 12 8.98 12 10 C9.14133991 10.23822167 6.80180916 10.42775712 4 10 C1.09200217 7.4555019 0.09297943 6.04601863 -0.25 2.1875 C-0.1675 1.465625 -0.085 0.74375 0 0 Z " fill="#323231" transform="translate(206,346)"/>
<path d="M0 0 C0.66 1.32 1.32 2.64 2 4 C-0.59375835 5.55754223 -3.14731103 6.97703944 -6 8 C-9 7.25 -9 7.25 -11 6 C-8.61542052 4.41028035 -6.3695876 3.13258407 -3.8125 1.875 C-3.09707031 1.52179688 -2.38164062 1.16859375 -1.64453125 0.8046875 C-1.10183594 0.53914062 -0.55914062 0.27359375 0 0 Z " fill="#272725" transform="translate(171,199)"/>
<path d="M0 0 C2.09375 -0.36328125 2.09375 -0.36328125 4.5 -0.3125 C5.69109375 -0.30669922 5.69109375 -0.30669922 6.90625 -0.30078125 C9 0 9 0 11 2 C11 2.99 11 3.98 11 5 C9.58297487 4.85769192 8.1663904 4.71099254 6.75 4.5625 C5.56664062 4.44068359 5.56664062 4.44068359 4.359375 4.31640625 C2.17635361 4.02365007 0.1226818 3.57935581 -2 3 C-1.34 2.01 -0.68 1.02 0 0 Z " fill="#DDDDDD" transform="translate(185,35)"/>
<path d="M0 0 C0.66 0.99 1.32 1.98 2 3 C-0.66666667 3 -3.33333333 3 -6 3 C-6.66 5.31 -7.32 7.62 -8 10 C-8.66 10 -9.32 10 -10 10 C-10.48468708 3.57789614 -10.48468708 3.57789614 -8.375 1.0625 C-5.35429678 -0.28886723 -3.27337643 -0.42696214 0 0 Z " fill="#151514" transform="translate(204,374)"/>
<path d="M0 0 C0.33 0 0.66 0 1 0 C1.125 2.875 1.125 2.875 1 6 C0.34 6.66 -0.32 7.32 -1 8 C-4.625 7.625 -4.625 7.625 -8 7 C-8 6.01 -8 5.02 -8 4 C-5.36 3.67 -2.72 3.34 0 3 C0 2.01 0 1.02 0 0 Z " fill="#7F7F7E" transform="translate(200,46)"/>
<path d="M0 0 C1.19109375 -0.00386719 1.19109375 -0.00386719 2.40625 -0.0078125 C4.5 0.125 4.5 0.125 6.5 1.125 C6.5 1.785 6.5 2.445 6.5 3.125 C7.16 3.455 7.82 3.785 8.5 4.125 C6.18690295 4.01158363 3.87449815 3.88396193 1.5625 3.75 C-0.36916016 3.64558594 -0.36916016 3.64558594 -2.33984375 3.5390625 C-3.90412109 3.33410156 -3.90412109 3.33410156 -5.5 3.125 C-5.83 2.465 -6.16 1.805 -6.5 1.125 C-4.13386544 -0.05806728 -2.63219264 -0.00854608 0 0 Z " fill="#090909" transform="translate(111.5,49.875)"/>
<path d="M0 0 C2.875 -0.125 2.875 -0.125 6 0 C8 2 8 2 8.1953125 4.8203125 C8.16050781 6.45613281 8.16050781 6.45613281 8.125 8.125 C8.10695312 9.22070312 8.08890625 10.31640625 8.0703125 11.4453125 C8.04710937 12.28835938 8.02390625 13.13140625 8 14 C6.68 13.34 5.36 12.68 4 12 C4.66 11.34 5.32 10.68 6 10 C6.16681109 6.91652174 6.16681109 6.91652174 6 4 C3.69 3.34 1.38 2.68 -1 2 C-0.67 1.34 -0.34 0.68 0 0 Z " fill="#141413" transform="translate(165,374)"/>
<path d="M0 0 C0.33 0 0.66 0 1 0 C1 1.65 1 3.3 1 5 C0.67 4.34 0.34 3.68 0 3 C-1.98 3.33 -3.96 3.66 -6 4 C-6 4.99 -6 5.98 -6 7 C-4.68 7.66 -3.36 8.32 -2 9 C-4.31 9 -6.62 9 -9 9 C-9.625 6.625 -9.625 6.625 -10 4 C-8 2 -8 2 -6.0546875 1.8046875 C-4.03645833 1.86979167 -2.01822917 1.93489583 0 2 C0 1.34 0 0.68 0 0 Z " fill="#0E0E0E" transform="translate(129,346)"/>
<path d="M0 0 C2.125 2.75 2.125 2.75 2.125 5.75 C1.795 5.75 1.465 5.75 1.125 5.75 C0.795 7.73 0.465 9.71 0.125 11.75 C-0.535 11.75 -1.195 11.75 -1.875 11.75 C-1.77960938 11.12351563 -1.68421875 10.49703125 -1.5859375 9.8515625 C-1.47507813 9.03429687 -1.36421875 8.21703125 -1.25 7.375 C-1.13398438 6.56289062 -1.01796875 5.75078125 -0.8984375 4.9140625 C-0.89070312 4.19992188 -0.88296875 3.48578125 -0.875 2.75 C-3.4404594 0.1845406 -5.35186668 0.20953913 -8.875 -0.25 C-8.875 -0.58 -8.875 -0.91 -8.875 -1.25 C-4.71684542 -2.5071165 -3.51905555 -2.75404348 0 0 Z " fill="#525252" transform="translate(180.875,137.25)"/>
<path d="M0 0 C0.78246094 -0.01417969 1.56492188 -0.02835938 2.37109375 -0.04296875 C4.5625 0.1875 4.5625 0.1875 7.5625 2.1875 C6.5625 3.1875 6.5625 3.1875 3.83984375 3.28515625 C2.18662109 3.26775391 2.18662109 3.26775391 0.5 3.25 C-1.15708984 3.23646484 -1.15708984 3.23646484 -2.84765625 3.22265625 C-3.70230469 3.21105469 -4.55695313 3.19945312 -5.4375 3.1875 C-5.7675 2.5275 -6.0975 1.8675 -6.4375 1.1875 C-4.0978331 0.01766655 -2.60358473 0.0213759 0 0 Z " fill="#090908" transform="translate(137.4375,49.8125)"/>
<path d="M0 0 C1.28132812 0.00902344 2.56265625 0.01804688 3.8828125 0.02734375 C4.87023437 0.03894531 5.85765625 0.05054688 6.875 0.0625 C6.875 0.7225 6.875 1.3825 6.875 2.0625 C-1.045 2.5575 -1.045 2.5575 -9.125 3.0625 C-9.125 2.4025 -9.125 1.7425 -9.125 1.0625 C-6.12186252 -0.43906874 -3.33432478 -0.03031204 0 0 Z " fill="#E8E8E8" transform="translate(138.125,47.9375)"/>
<path d="M0 0 C0.66 0 1.32 0 2 0 C2 4.95 2 9.9 2 15 C1.01 15 0.02 15 -1 15 C-0.67 10.05 -0.34 5.1 0 0 Z " fill="#0A0A09" transform="translate(162,337)"/>
<path d="M0 0 C2.30143236 3.45214853 2.13833854 4.23479324 1.625 8.1875 C1.51414063 9.08855469 1.40328125 9.98960937 1.2890625 10.91796875 C1.19367188 11.60503906 1.09828125 12.29210937 1 13 C-1.11243359 10.41937532 -1.96514127 9.34161558 -2.3125 5.9375 C-2 3 -2 3 0 0 Z " fill="#2D2D2C" transform="translate(224,119)"/>
<path d="M0 0 C4.62 0 9.24 0 14 0 C14.33 0.99 14.66 1.98 15 3 C10.05 2.67 5.1 2.34 0 2 C0 1.34 0 0.68 0 0 Z " fill="#E8E8E8" transform="translate(105,59)"/>
<path d="M0 0 C0.35897436 6.22222222 0.35897436 6.22222222 -1.125 9.4375 C-3.75128857 11.6260738 -5.68553637 11.29461899 -9 11 C-8.67 10.34 -8.34 9.68 -8 9 C-5.9375 8.375 -5.9375 8.375 -4 8 C-3.814375 6.2984375 -3.814375 6.2984375 -3.625 4.5625 C-3.41875 3.386875 -3.2125 2.21125 -3 1 C-1 0 -1 0 0 0 Z " fill="#353534" transform="translate(191,377)"/>
<path d="M0 0 C2 2 2 2 2.125 5.625 C2.08375 6.73875 2.0425 7.8525 2 9 C1.67 9 1.34 9 1 9 C0.34 7.02 -0.32 5.04 -1 3 C-2.65 3 -4.3 3 -6 3 C-6.33 3.66 -6.66 4.32 -7 5 C-7.66 5 -8.32 5 -9 5 C-9 4.01 -9 3.02 -9 2 C-5.54754176 -0.30163882 -4.05261287 -0.34490322 0 0 Z " fill="#131312" transform="translate(188,374)"/>
<path d="M0 0 C0.66 0.33 1.32 0.66 2 1 C0.50902342 4.7952131 -1.75700849 6.61042731 -5 9 C-5.66 8.67 -6.32 8.34 -7 8 C-5.61918777 3.8575633 -3.40174442 2.67796901 0 0 Z " fill="#141413" transform="translate(196,180)"/>
<path d="M0 0 C1.4540625 0.0309375 1.4540625 0.0309375 2.9375 0.0625 C2.6075 1.3825 2.2775 2.7025 1.9375 4.0625 C0.2875 4.3925 -1.3625 4.7225 -3.0625 5.0625 C-3.625 3.125 -3.625 3.125 -4.0625 1.0625 C-3.0625 0.0625 -3.0625 0.0625 0 0 Z " fill="#E3E3E3" transform="translate(59.0625,348.9375)"/>
<path d="M0 0 C-2.16549811 2.16549811 -3.1248334 2.35076883 -6 3 C-7.35618499 4.12534105 -7.35618499 4.12534105 -7.0625 7.0625 C-7.041875 8.031875 -7.02125 9.00125 -7 10 C-7.99 10 -8.98 10 -10 10 C-10.35915493 3.65492958 -10.35915493 3.65492958 -8.9375 1.0625 C-5.98831309 -0.55479605 -3.29132441 -0.18630138 0 0 Z " fill="#0E0E0D" transform="translate(96,342)"/>
<path d="M0 0 C2.0625 0.4375 2.0625 0.4375 4 1 C4.33 2.32 4.66 3.64 5 5 C2.69 5 0.38 5 -2 5 C-1.125 1.125 -1.125 1.125 0 0 Z " fill="#CDCDCD" transform="translate(211,343)"/>
<path d="M0 0 C1.65 0 3.3 0 5 0 C4.67 1.65 4.34 3.3 4 5 C2.35 5 0.7 5 -1 5 C-0.67 3.35 -0.34 1.7 0 0 Z " fill="#E3E3E3" transform="translate(166,381)"/>
<path d="M0 0 C2.31 0.33 4.62 0.66 7 1 C7.33 2.32 7.66 3.64 8 5 C5.69 5 3.38 5 1 5 C0.67 3.35 0.34 1.7 0 0 Z " fill="#D3D3D3" transform="translate(163,375)"/>
<path d="M0 0 C0 0.99 0 1.98 0 3 C-2.64 3 -5.28 3 -8 3 C-8.33 2.01 -8.66 1.02 -9 0 C-5.67465243 -1.10844919 -3.37817425 -0.84454356 0 0 Z " fill="#F4F4F4" transform="translate(137,121)"/>
<path d="M0 0 C0.99 0.33 1.98 0.66 3 1 C2.67 1.33 2.34 1.66 2 2 C1.63239269 4.32817964 1.29758419 6.6618385 1 9 C0.01 9.33 -0.98 9.66 -2 10 C-1.67 11.32 -1.34 12.64 -1 14 C-1.66 14 -2.32 14 -3 14 C-3 12.68 -3 11.36 -3 10 C-3.99 9.67 -4.98 9.34 -6 9 C-6 8.67 -6 8.34 -6 8 C-4.02 8 -2.04 8 0 8 C0 5.36 0 2.72 0 0 Z " fill="#2C2C2B" transform="translate(135,106)"/>
<path d="M0 0 C1.13598633 0.00483398 1.13598633 0.00483398 2.29492188 0.00976562 C3.47344727 0.02233398 3.47344727 0.02233398 4.67578125 0.03515625 C5.47306641 0.03966797 6.27035156 0.04417969 7.09179688 0.04882812 C9.05732382 0.06059775 11.0228121 0.07853277 12.98828125 0.09765625 C12.98828125 0.42765625 12.98828125 0.75765625 12.98828125 1.09765625 C12.19164062 1.15824219 11.395 1.21882813 10.57421875 1.28125 C3.93845947 1.7927344 3.93845947 1.7927344 -2.63671875 2.78515625 C-3.81234375 2.93984375 -3.81234375 2.93984375 -5.01171875 3.09765625 C-5.67171875 2.43765625 -6.33171875 1.77765625 -7.01171875 1.09765625 C-4.30455633 0.19526878 -2.77395107 -0.02085677 0 0 Z " fill="#E2E2E2" transform="translate(131.01171875,36.90234375)"/>
<path d="M0 0 C3.375 -0.125 3.375 -0.125 7 0 C9 2 9 2 9.125 5.625 C9.08375 6.73875 9.0425 7.8525 9 9 C8.01 9 7.02 9 6 9 C6 6.69 6 4.38 6 2 C3.03 1.505 3.03 1.505 0 1 C0 0.67 0 0.34 0 0 Z " fill="#424241" transform="translate(78,375)"/>
<path d="M0 0 C1.65 0 3.3 0 5 0 C4.67 1.65 4.34 3.3 4 5 C2.35 4.67 0.7 4.34 -1 4 C-0.67 2.68 -0.34 1.36 0 0 Z " fill="#ECECEB" transform="translate(123,349)"/>
<path d="M0 0 C1.65 0 3.3 0 5 0 C5.33 1.32 5.66 2.64 6 4 C3.69 4 1.38 4 -1 4 C-0.67 2.68 -0.34 1.36 0 0 Z " fill="#DCDCDC" transform="translate(225,376)"/>
<path d="M0 0 C1.2065625 0.0309375 1.2065625 0.0309375 2.4375 0.0625 C2.4375 0.7225 2.4375 1.3825 2.4375 2.0625 C1.4475 2.3925 0.4575 2.7225 -0.5625 3.0625 C-1.29573796 5.07758358 -1.29573796 5.07758358 -1.5625 7.0625 C-2.5525 7.0625 -3.5425 7.0625 -4.5625 7.0625 C-3.5234375 0.0859375 -3.5234375 0.0859375 0 0 Z " fill="#424242" transform="translate(96.5625,366.9375)"/>
<path d="M0 0 C2.31 0 4.62 0 7 0 C7.66 1.32 8.32 2.64 9 4 C8.34 4 7.68 4 7 4 C7 4.66 7 5.32 7 6 C4.69 6 2.38 6 0 6 C0 5.67 0 5.34 0 5 C1.98 5 3.96 5 6 5 C5.67 4.01 5.34 3.02 5 2 C3.02 2 1.04 2 -1 2 C-0.67 1.34 -0.34 0.68 0 0 Z " fill="#2F2F2E" transform="translate(55,342)"/>
<path d="M0 0 C-2 2 -2 2 -4.3828125 2.1953125 C-5.28773438 2.17210938 -6.19265625 2.14890625 -7.125 2.125 C-8.49011719 2.09792969 -8.49011719 2.09792969 -9.8828125 2.0703125 C-10.58148438 2.04710938 -11.28015625 2.02390625 -12 2 C-9.67178678 -2.65642643 -4.2230553 -0.62307373 0 0 Z " fill="#D8D8D8" transform="translate(213,105)"/>
<path d="M0 0 C-0.33 0.99 -0.66 1.98 -1 3 C-3.64 3 -6.28 3 -9 3 C-9 2.01 -9 1.02 -9 0 C-2.25 -1.125 -2.25 -1.125 0 0 Z " fill="#DADADA" transform="translate(203,75)"/>
<path d="M0 0 C1.79133978 -0.05391993 3.58313899 -0.09275571 5.375 -0.125 C6.37273437 -0.14820313 7.37046875 -0.17140625 8.3984375 -0.1953125 C11 0 11 0 13 2 C9.79984144 3.06671952 8.11455706 2.94845472 4.8125 2.5625 C3.91144531 2.46066406 3.01039062 2.35882813 2.08203125 2.25390625 C1.39496094 2.17011719 0.70789063 2.08632813 0 2 C0 1.34 0 0.68 0 0 Z " fill="#090907" transform="translate(107,45)"/>
<path d="M0 0 C0.99 0 1.98 0 3 0 C3.99 3.63 4.98 7.26 6 11 C5.34 11 4.68 11 4 11 C3.33125616 9.35500958 2.66505926 7.70898352 2 6.0625 C1.443125 4.68771484 1.443125 4.68771484 0.875 3.28515625 C0 1 0 1 0 0 Z " fill="#1E1E1D" transform="translate(192,342)"/>
<path d="M0 0 C0 0.33 0 0.66 0 1 C-1.65 1 -3.3 1 -5 1 C-5.66 3.64 -6.32 6.28 -7 9 C-7.99 8.01 -8.98 7.02 -10 6 C-7.83322503 -0.036016 -6.28508493 -0.13663228 0 0 Z " fill="#292928" transform="translate(83,374)"/>
<path d="M0 0 C0.33 0 0.66 0 1 0 C1.0825 1.27875 1.165 2.5575 1.25 3.875 C1.45869931 6.05333418 1.45869931 6.05333418 2 8 C3.92064793 9.5899433 3.92064793 9.5899433 6 10 C6 10.66 6 11.32 6 12 C4.33388095 12.042721 2.66617115 12.04063832 1 12 C0 11 0 11 -0.09765625 8.49609375 C-0.08605469 7.48675781 -0.07445312 6.47742188 -0.0625 5.4375 C-0.05347656 4.42558594 -0.04445312 3.41367187 -0.03515625 2.37109375 C-0.02355469 1.58863281 -0.01195312 0.80617188 0 0 Z " fill="#222222" transform="translate(253,344)"/>
<path d="M0 0 C1.4540625 0.61875 1.4540625 0.61875 2.9375 1.25 C3.2675 2.24 3.5975 3.23 3.9375 4.25 C-1.60096154 3.63461538 -1.60096154 3.63461538 -3.9375 1.6875 C-4.30875 1.213125 -4.68 0.73875 -5.0625 0.25 C-3.0625 -0.75 -3.0625 -0.75 0 0 Z " fill="#161614" transform="translate(145.0625,202.75)"/>
<path d="M0 0 C0.66 0 1.32 0 2 0 C2 1.32 2 2.64 2 4 C1.34 4 0.68 4 0 4 C0 6.31 0 8.62 0 11 C-2 9 -2 9 -2.25 6.0625 C-2 3 -2 3 0 0 Z " fill="#EEEEED" transform="translate(186,56)"/>
<path d="M0 0 C0.33 0 0.66 0 1 0 C1 2.31 1 4.62 1 7 C-2.3 7 -5.6 7 -9 7 C-9 6.67 -9 6.34 -9 6 C-7.88625 5.7525 -6.7725 5.505 -5.625 5.25 C-1.95384802 4.38994661 -1.95384802 4.38994661 -0.5625 1.875 C-0.376875 1.25625 -0.19125 0.6375 0 0 Z " fill="#060606" transform="translate(63,348)"/>
<path d="M0 0 C2 1.375 2 1.375 4 3 C4 3.66 4 4.32 4 5 C5.65 4.67 7.3 4.34 9 4 C6.23776722 6.76223278 3.79293383 6.57856291 0 7 C0.33 5.35 0.66 3.7 1 2 C0.34 1.67 -0.32 1.34 -1 1 C-0.67 0.67 -0.34 0.34 0 0 Z " fill="#434342" transform="translate(187,54)"/>
<path d="M0 0 C0.66 0 1.32 0 2 0 C2 1.32 2 2.64 2 4 C3.32 4 4.64 4 6 4 C6 4.66 6 5.32 6 6 C3.03 5.67 0.06 5.34 -3 5 C-2.01 4.67 -1.02 4.34 0 4 C0 2.68 0 1.36 0 0 Z " fill="#212120" transform="translate(70,338)"/>
<path d="M0 0 C2.475 0.99 2.475 0.99 5 2 C5 2.66 5 3.32 5 4 C4.01 4.33 3.02 4.66 2 5 C2 5.99 2 6.98 2 8 C1.01 7.67 0.02 7.34 -1 7 C-0.67 4.69 -0.34 2.38 0 0 Z " fill="#212120" transform="translate(202,149)"/>
<path d="M0 0 C0.33 0.66 0.66 1.32 1 2 C1.99 1.67 2.98 1.34 4 1 C3.01 4.3 2.02 7.6 1 11 C0.67 11 0.34 11 0 11 C-1.28571429 3.57142857 -1.28571429 3.57142857 0 0 Z " fill="#31312F" transform="translate(217,142)"/>
<path d="M0 0 C0.99 0 1.98 0 3 0 C3.625 3.375 3.625 3.375 4 7 C3.34 7.66 2.68 8.32 2 9 C1.34 6.03 0.68 3.06 0 0 Z " fill="#090908" transform="translate(86,131)"/>
<path d="M0 0 C-0.33 0.66 -0.66 1.32 -1 2 C-3.97 2 -6.94 2 -10 2 C-10 1.34 -10 0.68 -10 0 C-6.33694766 -0.74926071 -3.57644848 -1.2380014 0 0 Z " fill="#F4F4F4" transform="translate(188,75)"/>
<path d="M0 0 C0.66 0 1.32 0 2 0 C1.25 6.75 1.25 6.75 -1 9 C-2.0326802 6.21176345 -2.04509293 5.1322726 -1.0625 2.25 C-0.711875 1.5075 -0.36125 0.765 0 0 Z " fill="#2F2F2F" transform="translate(270,342)"/>
<path d="M0 0 C0.99 0.33 1.98 0.66 3 1 C3 2.32 3 3.64 3 5 C4.65 5 6.3 5 8 5 C8 5.33 8 5.66 8 6 C5.03 5.67 2.06 5.34 -1 5 C-0.67 3.35 -0.34 1.7 0 0 Z " fill="#B4B4B4" transform="translate(176,44)"/>
<path d="M0 0 C0.33 0 0.66 0 1 0 C1 2.31 1 4.62 1 7 C-0.65 7.66 -2.3 8.32 -4 9 C-4.66 8.34 -5.32 7.68 -6 7 C-4.02 6.34 -2.04 5.68 0 5 C0 3.35 0 1.7 0 0 Z " fill="#262626" transform="translate(85,379)"/>
<path d="M0 0 C3.875 0.875 3.875 0.875 5 2 C5.04092937 4.33297433 5.04241723 6.66705225 5 9 C4.01 8.67 3.02 8.34 2 8 C1.26953125 6.15234375 1.26953125 6.15234375 0.8125 3.9375 C0.65394531 3.20402344 0.49539062 2.47054688 0.33203125 1.71484375 C0.22246094 1.14894531 0.11289063 0.58304687 0 0 Z " fill="#474746" transform="translate(95,343)"/>
<path d="M0 0 C3.16115776 1.36983503 3.9927092 1.9890638 6 5 C5.01 5.495 5.01 5.495 4 6 C1.875 5.0625 1.875 5.0625 0 4 C0 2.68 0 1.36 0 0 Z " fill="#2C2C2A" transform="translate(114,181)"/>
<path d="M0 0 C2.35953094 2.35953094 2.49141413 3.77895617 3 7 C0.525 6.01 0.525 6.01 -2 5 C-1.125 1.125 -1.125 1.125 0 0 Z " fill="#2E2E2C" transform="translate(94,148)"/>
<path d="M0 0 C0.66 0 1.32 0 2 0 C2 0.66 2 1.32 2 2 C1.01 2.495 1.01 2.495 0 3 C0.33 4.98 0.66 6.96 1 9 C0.01 9 -0.98 9 -2 9 C-2.6875 6.75 -2.6875 6.75 -3 4 C-1.6875 1.6875 -1.6875 1.6875 0 0 Z " fill="#616160" transform="translate(168,99)"/>
<path d="M0 0 C0.99 0 1.98 0 3 0 C2.67 1.98 2.34 3.96 2 6 C1.01 6.33 0.02 6.66 -1 7 C-0.67 4.69 -0.34 2.38 0 0 Z " fill="#EBEBEB" transform="translate(192,64)"/>
<path d="M0 0 C0.99 0.33 1.98 0.66 3 1 C3 2.65 3 4.3 3 6 C2.01 6.33 1.02 6.66 0 7 C0 4.69 0 2.38 0 0 Z " fill="#2C2C2B" transform="translate(205,377)"/>
<path d="M0 0 C0.33 0 0.66 0 1 0 C1.6875 2.8125 1.6875 2.8125 2 6 C0.5625 7.875 0.5625 7.875 -1 9 C-1.80967438 6.08517222 -2.21845993 4.53886783 -1.0625 1.6875 C-0.711875 1.130625 -0.36125 0.57375 0 0 Z " fill="#383836" transform="translate(90,136)"/>
<path d="M0 0 C0.99 0.33 1.98 0.66 3 1 C3 1.99 3 2.98 3 4 C3.66 4.66 4.32 5.32 5 6 C3.35 6.33 1.7 6.66 0 7 C0 4.69 0 2.38 0 0 Z " fill="#272725" transform="translate(127,54)"/>
<path d="M0 0 C2.0625 0.4375 2.0625 0.4375 4 1 C4 1.66 4 2.32 4 3 C0.04 3 -3.92 3 -8 3 C-8 2.67 -8 2.34 -8 2 C-6.865625 1.855625 -5.73125 1.71125 -4.5625 1.5625 C-1.19222799 1.38828522 -1.19222799 1.38828522 0 0 Z " fill="#AFAFAF" transform="translate(141,42)"/>
<path d="M0 0 C0.66 0 1.32 0 2 0 C3.5625 2.8125 3.5625 2.8125 5 6 C4.67 6.99 4.34 7.98 4 9 C0 3.375 0 3.375 0 0 Z " fill="#131313" transform="translate(39,342)"/>
<path d="M0 0 C0.66 0.66 1.32 1.32 2 2 C1.96712417 4.72869407 1.43602229 7.2966618 1 10 C-0.80411967 7.24075815 -1.0127245 6.11027897 -0.625 2.75 C-0.41875 1.8425 -0.2125 0.935 0 0 Z " fill="#0F0F0E" transform="translate(222,128)"/>
<path d="M0 0 C0.33 0 0.66 0 1 0 C1.1875 2.875 1.1875 2.875 1 6 C0.01 6.66 -0.98 7.32 -2 8 C-2.99 7.67 -3.98 7.34 -5 7 C-4.01 6.67 -3.02 6.34 -2 6 C-0.77479736 2.99152582 -0.77479736 2.99152582 0 0 Z " fill="#F2F2F2" transform="translate(214,110)"/>
<path d="M0 0 C1.9375 0.75 1.9375 0.75 4 2 C4.75 4.125 4.75 4.125 5 6 C3.0625 5.25 3.0625 5.25 1 4 C0.25 1.875 0.25 1.875 0 0 Z " fill="#EEEEEE" transform="translate(178,55)"/>
<path d="M0 0 C2.31 0 4.62 0 7 0 C7 0.66 7 1.32 7 2 C4.69 2.33 2.38 2.66 0 3 C0 2.01 0 1.02 0 0 Z " fill="#F1F1F1" transform="translate(192,50)"/>
<path d="M0 0 C0.33 0.66 0.66 1.32 1 2 C1.66 2.33 2.32 2.66 3 3 C2.67 3.99 2.34 4.98 2 6 C0.68 6 -0.64 6 -2 6 C-2 4.68 -2 3.36 -2 2 C-1.34 2 -0.68 2 0 2 C0 1.34 0 0.68 0 0 Z " fill="#2F2F2E" transform="translate(104,48)"/>
<path d="M0 0 C0 0.66 0 1.32 0 2 C-3.375 2.625 -3.375 2.625 -7 3 C-7.66 2.34 -8.32 1.68 -9 1 C-6.04335481 -0.4783226 -3.25770263 -0.06032783 0 0 Z " fill="#232321" transform="translate(117,369)"/>
</svg>
