<?xml version="1.0" encoding="UTF-8"?>
<svg version="1.1" xmlns="http://www.w3.org/2000/svg" width="225" height="225">
<path d="M0 0 C74.25 0 148.5 0 225 0 C225 74.25 225 148.5 225 225 C150.75 225 76.5 225 0 225 C0 150.75 0 76.5 0 0 Z " fill="#00243C" transform="translate(0,0)"/>
<path d="M0 0 C10.37343598 0 17.41846256 2.24642801 25 9.4375 C31.37852698 16.48336678 34 23.47187971 34 33 C22.78 33 11.56 33 0 33 C0 22.11 0 11.22 0 0 Z " fill="#3B7AC6" transform="translate(65,78)"/>
<path d="M0 0 C0 10.89 0 21.78 0 33 C-11.22 33 -22.44 33 -34 33 C-32.86324209 21.63242091 -30.69635754 14.55648167 -22.30078125 6.76171875 C-14.86116742 1.06517234 -9.47884271 0 0 0 Z " fill="#945DC7" transform="translate(130,109)"/>
<path d="M0 0 C11.22 0 22.44 0 34 0 C32.63295609 12.30339523 30.29751166 18.80835977 21 27 C13.50004344 32.01989125 9.34248785 33 0 33 C0 22.11 0 11.22 0 0 Z " fill="#F9BC03" transform="translate(96,47)"/>
<path d="M0 0 C11.22 0 22.44 0 34 0 C34 10.89 34 21.78 34 33 C23.6962914 33 16.70171605 30.75677551 9.0625 23.75 C2.40044511 16.33866755 0.99861693 9.98616932 0 0 Z " fill="#FA8102" transform="translate(127,78)"/>
<path d="M0 0 C2.86942113 2.26533247 3.83907612 3.51722837 5 7 C5.99 6.34 6.98 5.68 8 5 C14.20272925 4.44618489 14.20272925 4.44618489 16.67578125 6.1640625 C18.48153381 8.66761324 18.50757844 10.62883351 18.6875 13.6875 C18.78611328 15.17830078 18.78611328 15.17830078 18.88671875 16.69921875 C18.94279297 17.83810547 18.94279297 17.83810547 19 19 C17.22950311 19.05410687 15.45853151 19.09284119 13.6875 19.125 C12.20830078 19.15980469 12.20830078 19.15980469 10.69921875 19.1953125 C8 19 8 19 5 17 C4.67 16.01 4.34 15.02 4 14 C3.319375 14.825 2.63875 15.65 1.9375 16.5 C-1 19 -1 19 -4.5 19.5 C-8.18350462 18.97378505 -10.10946187 18.3124305 -13 16 C-15.32849047 12.78446554 -15.54457007 9.88978623 -15 6 C-11.10300696 -0.46001538 -7.2363069 -1.65038579 0 0 Z " fill="#112C44" transform="translate(147,159)"/>
<path d="M0 0 C10 0 10 0 14 2 C15.52491998 5.04983996 15.23562548 7.6423369 15 11 C13.9375 12.9375 13.9375 12.9375 12 14 C8.3125 14.1875 8.3125 14.1875 5 14 C5 15.98 5 17.96 5 20 C3.35 20 1.7 20 0 20 C0 13.4 0 6.8 0 0 Z " fill="#E7EAEB" transform="translate(33,158)"/>
<path d="M0 0 C2.4375 1.9375 2.4375 1.9375 4 4 C4 4.66 4 5.32 4 6 C3.29875 5.855625 2.5975 5.71125 1.875 5.5625 C0.92625 5.376875 -0.0225 5.19125 -1 5 C-2.5778125 4.6596875 -2.5778125 4.6596875 -4.1875 4.3125 C-5.5796875 4.1578125 -5.5796875 4.1578125 -7 4 C-9.39564928 5.94967279 -9.39564928 5.94967279 -9.1875 9.5625 C-9.39287806 12.82963695 -9.39287806 12.82963695 -8 14 C-5.04182893 14.25005386 -5.04182893 14.25005386 -2 14 C-1.34 13.34 -0.68 12.68 0 12 C1.32 12 2.64 12 4 12 C2.75023244 15.65316671 2.32901247 16.78065836 -1 19 C-5.96495273 19.45971784 -9.06167696 19.15065843 -13 16 C-15.32849047 12.78446554 -15.54457007 9.88978623 -15 6 C-11.10300696 -0.46001538 -7.2363069 -1.65038579 0 0 Z " fill="#EEF0F1" transform="translate(147,159)"/>
<path d="M0 0 C2.47821152 1.71169494 2.94592219 2.71474987 3.51171875 5.69921875 C3.59873047 7.17841797 3.59873047 7.17841797 3.6875 8.6875 C3.78611328 10.17830078 3.78611328 10.17830078 3.88671875 11.69921875 C3.92410156 12.45847656 3.96148437 13.21773437 4 14 C2.22950311 14.05410687 0.45853151 14.09284119 -1.3125 14.125 C-2.79169922 14.15980469 -2.79169922 14.15980469 -4.30078125 14.1953125 C-7 14 -7 14 -10 12 C-9.67 10.02 -9.34 8.04 -9 6 C-5.535 5.505 -5.535 5.505 -2 5 C-2 4.67 -2 4.34 -2 4 C-4.31 4 -6.62 4 -9 4 C-9 3.01 -9 2.02 -9 1 C-5.95016004 -0.52491998 -3.3576631 -0.23562548 0 0 Z " fill="#D5D9DD" transform="translate(162,164)"/>
<path d="M0 0 C2.3125 0.125 2.3125 0.125 5 1 C6.8125 4.0625 6.8125 4.0625 8 7 C8.99 4.69 9.98 2.38 11 0 C12.32 0 13.64 0 15 0 C11.20809249 14.4894027 11.20809249 14.4894027 7 20 C4.3359375 20.77734375 4.3359375 20.77734375 2 21 C1.67 19.68 1.34 18.36 1 17 C2.32 17 3.64 17 5 17 C4.50109419 12.13566836 2.92236169 8.31084936 0.83984375 3.953125 C0 2 0 2 0 0 Z " fill="#E4E7E9" transform="translate(93,164)"/>
<path d="M0 0 C2 3 2 3 2 7 C-0.97 7 -3.94 7 -7 7 C-6.67 7.66 -6.34 8.32 -6 9 C-3.69 9 -1.38 9 1 9 C0.67 10.32 0.34 11.64 0 13 C-7.28358209 13.35820896 -7.28358209 13.35820896 -10 12 C-11.6324458 8.73510839 -11.65165412 5.5618822 -11 2 C-7.94917282 -2.02709188 -4.54879972 -1.17931845 0 0 Z " fill="#E1E3E6" transform="translate(190,165)"/>
<path d="M0 0 C10.41390728 -0.36754967 10.41390728 -0.36754967 12.84375 1.15625 C14.46489067 3.74131215 14.29419981 5.6643388 14.1875 8.6875 C14.16042969 9.68136719 14.13335937 10.67523438 14.10546875 11.69921875 C14.07066406 12.45847656 14.03585938 13.21773437 14 14 C12.68 14 11.36 14 10 14 C10 10.7 10 7.4 10 4 C8.68 4.33 7.36 4.66 6 5 C5.67 7.97 5.34 10.94 5 14 C3.68 14 2.36 14 1 14 C0.67 9.38 0.34 4.76 0 0 Z " fill="#EDF0F1" transform="translate(109,164)"/>
<path d="M0 0 C0.33 0.99 0.66 1.98 1 3 C-1.31 2.67 -3.62 2.34 -6 2 C-6 2.99 -6 3.98 -6 5 C-5.05125 4.95875 -4.1025 4.9175 -3.125 4.875 C0 5 0 5 2 7 C1.75 9.5625 1.75 9.5625 1 12 C-1.95664519 13.4783226 -4.74229737 13.06032783 -8 13 C-8.66 11.68 -9.32 10.36 -10 9 C-7.69 9.33 -5.38 9.66 -3 10 C-3 9.34 -3 8.68 -3 8 C-3.969375 7.855625 -4.93875 7.71125 -5.9375 7.5625 C-9 7 -9 7 -10 6 C-10.25 3.5625 -10.25 3.5625 -10 1 C-6.1496895 -1.56687367 -4.41430237 -0.83288724 0 0 Z " fill="#EAECEE" transform="translate(79,165)"/>
<path d="M0 0 C0.99 0 1.98 0 3 0 C3 1.32 3 2.64 3 4 C4.32 4 5.64 4 7 4 C7 5.32 7 6.64 7 8 C5.68 8 4.36 8 3 8 C3.33 9.98 3.66 11.96 4 14 C5.32 14.33 6.64 14.66 8 15 C8 15.99 8 16.98 8 18 C4.625 18.125 4.625 18.125 1 18 C-1 16 -1 16 -1.1953125 13.8359375 C-1.17210938 13.02382812 -1.14890625 12.21171875 -1.125 11.375 C-1.10695313 10.55773437 -1.08890625 9.74046875 -1.0703125 8.8984375 C-1.04710938 8.27195313 -1.02390625 7.64546875 -1 7 C-1.66 7 -2.32 7 -3 7 C-3 6.34 -3 5.68 -3 5 C-2.34 5 -1.68 5 -1 5 C-0.67 3.35 -0.34 1.7 0 0 Z " fill="#E5E8EA" transform="translate(85,160)"/>
<path d="M0 0 C3.3 0 6.6 0 10 0 C10.33 1.32 10.66 2.64 11 4 C9.35 4.33 7.7 4.66 6 5 C5.67 7.97 5.34 10.94 5 14 C3.68 14 2.36 14 1 14 C0.67 9.38 0.34 4.76 0 0 Z " fill="#EEF1F2" transform="translate(50,164)"/>
<path d="M0 0 C1.2065625 0.0309375 1.2065625 0.0309375 2.4375 0.0625 C2.4375 1.3825 2.4375 2.7025 2.4375 4.0625 C0.7875 4.3925 -0.8625 4.7225 -2.5625 5.0625 C-2.8925 8.0325 -3.2225 11.0025 -3.5625 14.0625 C-4.8825 14.0625 -6.2025 14.0625 -7.5625 14.0625 C-7.8925 9.7725 -8.2225 5.4825 -8.5625 1.0625 C-6.9125 1.0625 -5.2625 1.0625 -3.5625 1.0625 C-2.5625 0.0625 -2.5625 0.0625 0 0 Z " fill="#F5F7F8" transform="translate(175.5625,163.9375)"/>
<path d="M0 0 C1.65 0 3.3 0 5 0 C5 4.29 5 8.58 5 13 C3.35 13 1.7 13 0 13 C0 8.71 0 4.42 0 0 Z " fill="#D4D7DA" transform="translate(62,165)"/>
<path d="M0 0 C1.99954746 -0.04254356 4.00041636 -0.04080783 6 0 C7 1 7 1 7.125 3.5 C7 6 7 6 6 7 C4.00041636 7.04080783 1.99954746 7.04254356 0 7 C0 4.69 0 2.38 0 0 Z " fill="#2B4257" transform="translate(37,162)"/>
<path d="M0 0 C0.99 0.495 0.99 0.495 2 1 C2.625 3.5625 2.625 3.5625 3 6 C4.98 6.66 6.96 7.32 9 8 C9 8.66 9 9.32 9 10 C4.545 9.01 4.545 9.01 0 8 C0 5.36 0 2.72 0 0 Z " fill="#051331" transform="translate(67,165)"/>
<path d="M0 0 C0 2.31 0 4.62 0 7 C-0.99 7.33 -1.98 7.66 -3 8 C-3.268125 7.21625 -3.53625 6.4325 -3.8125 5.625 C-4.84814432 2.71885077 -4.84814432 2.71885077 -8 1 C-5.23735711 0.40267181 -2.83967231 0 0 0 Z " fill="#00122E" transform="translate(84,168)"/>
<path d="M0 0 C0.99 0.33 1.98 0.66 3 1 C2.34 1 1.68 1 1 1 C1 1.66 1 2.32 1 3 C1.66 3.33 2.32 3.66 3 4 C-0.63 4.66 -4.26 5.32 -8 6 C-8 5.01 -8 4.02 -8 3 C-5.69 3 -3.38 3 -1 3 C-0.67 2.01 -0.34 1.02 0 0 Z " fill="#5C6A78" transform="translate(81,164)"/>
<path d="M0 0 C1.65 0 3.3 0 5 0 C5 1.32 5 2.64 5 4 C3.35 4 1.7 4 0 4 C0 2.68 0 1.36 0 0 Z " fill="#D9DFE1" transform="translate(173,164)"/>
<path d="M0 0 C2.475 0.495 2.475 0.495 5 1 C5 1.99 5 2.98 5 4 C3.35 4 1.7 4 0 4 C0 2.68 0 1.36 0 0 Z " fill="#E0E5E7" transform="translate(56,164)"/>
</svg>
