<?xml version="1.0" encoding="UTF-8"?>
<svg version="1.1" xmlns="http://www.w3.org/2000/svg" width="161" height="148">
<path d="M0 0 C53.13 0 106.26 0 161 0 C161 48.84 161 97.68 161 148 C107.87 148 54.74 148 0 148 C0 99.16 0 50.32 0 0 Z " fill="#FDFDFE" transform="translate(0,0)"/>
<path d="M0 0 C7.85423031 6.70262158 7.85423031 6.70262158 9 12 C8.07888428 11.84853516 7.15776855 11.69707031 6.20874023 11.54101562 C2.71551055 10.97247746 -0.77912349 10.41476704 -4.27514648 9.86376953 C-5.77386163 9.6254212 -7.27194446 9.38305429 -8.76928711 9.13623047 C-18.86648715 7.47539528 -28.74537225 6.3120737 -39 7 C-40.67936175 8.67936175 -40.16787879 10.76510828 -40.20532227 13.07055664 C-40.22526749 14.15160172 -40.24521271 15.23264679 -40.26576233 16.34645081 C-40.29083107 18.110485 -40.29083107 18.110485 -40.31640625 19.91015625 C-40.33718735 21.10732773 -40.35796844 22.30449921 -40.37937927 23.53794861 C-40.44500279 27.37940487 -40.50381903 31.22093201 -40.5625 35.0625 C-40.60567305 37.65951267 -40.64928693 40.25651806 -40.69335938 42.85351562 C-40.80069716 49.23560117 -40.90243931 55.61775793 -41 62 C-42.65 62 -44.3 62 -46 62 C-46.01030746 61.3257045 -46.02061493 60.651409 -46.03123474 59.9566803 C-46.13905769 52.96556418 -46.25367443 45.97458333 -46.37231445 38.98364258 C-46.41574124 36.37136656 -46.45741038 33.75906072 -46.49731445 31.14672852 C-46.55483007 27.40111281 -46.61857764 23.65564831 -46.68359375 19.91015625 C-46.70030624 18.73413345 -46.71701874 17.55811066 -46.73423767 16.34645081 C-46.7641555 14.72488319 -46.7641555 14.72488319 -46.79467773 13.07055664 C-46.81799416 11.63493126 -46.81799416 11.63493126 -46.84178162 10.17030334 C-46.7606861 8.02137306 -46.7606861 8.02137306 -48 7 C-63.90944171 5.62576251 -80.4309844 9.0515952 -96 12 C-92.45012157 2.74364233 -84.56790069 -2.45607378 -76 -7 C-72.06550868 -8.63682972 -68.11162708 -9.8898049 -64 -11 C-63.22527344 -11.22558594 -62.45054688 -11.45117188 -61.65234375 -11.68359375 C-41.19743477 -16.77100679 -17.04489332 -12.13928987 0 0 Z " fill="#496BAE" transform="translate(124,21)"/>
<path d="M0 0 C0.74362793 -0.00128906 1.48725586 -0.00257812 2.25341797 -0.00390625 C7.28887292 0.10137292 7.28887292 0.10137292 9.5625 2.375 C10.12255397 10.11174556 8.66499216 17.36327756 7.1875 24.9375 C6.85492188 26.70770508 6.85492188 26.70770508 6.515625 28.51367188 C5.37263704 34.52108215 4.12637715 40.46295975 2.5625 46.375 C-3.52505259 45.89940995 -8.04052755 44.56302299 -13.4375 41.75 C-14.13665527 41.3895459 -14.83581055 41.0290918 -15.55615234 40.65771484 C-24.51243372 35.90262963 -31.59538503 30.04699082 -35.4375 20.375 C-36.42436213 14.96576196 -37.19669869 9.65259607 -35.4375 4.375 C-11.39307277 -0.01902412 -11.39307277 -0.01902412 0 0 Z " fill="#486AAE" transform="translate(60.4375,34.625)"/>
<path d="M0 0 C36.0082077 0.15273895 36.0082077 0.15273895 41.12109375 5.265625 C42.08019925 15.458909 39.63235103 22.62355462 33.44140625 30.65625 C26.50746265 38.45401823 16.90824488 43.00324129 7.12109375 46.265625 C5.45493467 46.30675543 3.7870611 46.31390109 2.12109375 46.265625 C1.10928104 41.77051634 0.11310185 37.27230822 -0.86962891 32.77075195 C-1.20502012 31.2444486 -1.54443813 29.71902366 -1.88818359 28.19458008 C-6.05898481 9.66917001 -6.05898481 9.66917001 -4.87890625 2.265625 C-2.87890625 0.265625 -2.87890625 0.265625 0 0 Z " fill="#486AAE" transform="translate(95.87890625,34.734375)"/>
<path d="M0 0 C5.28 0 10.56 0 16 0 C20.17396454 8.83898372 23.65576083 17.82615986 27 27 C27.41894531 28.1446875 27.83789062 29.289375 28.26953125 30.46875 C29.18442825 32.97744283 30.09304267 35.48842586 31 38 C26.05 38 21.1 38 16 38 C13.89712019 32.4273685 11.85924991 26.83594839 9.8671875 21.22265625 C9.19550206 19.06159218 9.19550206 19.06159218 8 18 C5.69 24.6 3.38 31.2 1 38 C-3.62 38 -8.24 38 -13 38 C-11.57553901 30.29163112 -8.93411285 23.41412646 -5.9375 16.1875 C-5.02768871 13.97358333 -4.12004146 11.75877577 -3.21484375 9.54296875 C-2.81386475 8.57383545 -2.41288574 7.60470215 -1.99975586 6.60620117 C-0.86671397 3.80974218 -0.86671397 3.80974218 0 0 Z " fill="#4B6CAF" transform="translate(125,102)"/>
<path d="M0 0 C1.48831242 0.00667405 2.97660807 0.01863442 4.46484375 0.03515625 C5.22345703 0.03966797 5.98207031 0.04417969 6.76367188 0.04882812 C8.64326246 0.06064945 10.52281274 0.07858547 12.40234375 0.09765625 C15.81900054 8.08130151 19.03210822 16.14350076 22.21484375 24.22265625 C22.62404053 25.25463135 23.0332373 26.28660645 23.45483398 27.34985352 C23.83583252 28.32108154 24.21683105 29.29230957 24.609375 30.29296875 C24.95460205 31.16969238 25.2998291 32.04641602 25.65551758 32.94970703 C26.40234375 35.09765625 26.40234375 35.09765625 26.40234375 37.09765625 C21.78234375 37.09765625 17.16234375 37.09765625 12.40234375 37.09765625 C5.40234375 20.51870888 5.40234375 20.51870888 5.40234375 15.09765625 C4.74234375 15.09765625 4.08234375 15.09765625 3.40234375 15.09765625 C3.31597656 15.6803125 3.22960937 16.26296875 3.140625 16.86328125 C1.89476053 24.13272898 -0.61891233 30.35628843 -3.59765625 37.09765625 C-8.21765625 37.09765625 -12.83765625 37.09765625 -17.59765625 37.09765625 C-16.88281801 33.52346503 -16.23411969 30.89397339 -14.890625 27.62109375 C-14.55297119 26.79005127 -14.21531738 25.95900879 -13.86743164 25.1027832 C-13.51028076 24.23484131 -13.15312988 23.36689941 -12.78515625 22.47265625 C-10.14904686 15.99131535 -7.5824027 9.51107314 -5.2890625 2.8984375 C-4.04338121 -0.34596404 -3.83363871 0.10406185 0 0 Z " fill="#496BAE" transform="translate(55.59765625,102.90234375)"/>
<path d="M0 0 C11.88 0 23.76 0 36 0 C36 3.96 36 7.92 36 12 C32.7 12 29.4 12 26 12 C26 20.58 26 29.16 26 38 C20.72 38 15.44 38 10 38 C10 29.42 10 20.84 10 12 C6.7 12 3.4 12 0 12 C0 8.04 0 4.08 0 0 Z " fill="#5272B2" transform="translate(79,102)"/>
<path d="M0 0 C12.21 0 24.42 0 37 0 C37 3.63 37 7.26 37 11 C33.37 11 29.74 11 26 11 C26 19.91 26 28.82 26 38 C21.05 38 16.1 38 11 38 C11 29.42 11 20.84 11 12 C7.37 12 3.74 12 0 12 C0 8.04 0 4.08 0 0 Z " fill="#4E6FB0" transform="translate(5,102)"/>
<path d="M0 0 C0.99 0 1.98 0 3 0 C4.01368644 11.14712232 4.1201299 22.19262526 4.0625 33.375 C4.05746967 35.09374868 4.05290951 36.8124988 4.04882812 38.53125 C4.0379561 42.68753651 4.02077804 46.8437517 4 51 C2.35 51 0.7 51 -1 51 C-1.13580541 33.97000106 -0.82957037 17.01060521 0 0 Z " fill="#4065AB" transform="translate(79,32)"/>
</svg>
